<svg xmlns="http://www.w3.org/2000/svg">
<defs>
<font id="CatShop" horiz-adv-x="685">
   <font-face underline-position="0" font-weight="400" descent="-200" panose-1="2 11 6 3 5 3 2 2 2 4" units-per-em="1000" unicode-range="U+0020-2122" bbox="-219 -307 1334 1017" x-height="501" underline-thickness="0" font-family="CatShop" ascent="800" cap-height="765"/>

<glyph glyph-name=".notdef" d="M504 824h3q1 0 5 -8l9.5 -19t11.5 -21.5t9 -16.5q5 -10 8.5 -19t3.5 -20q0 -8 -1.5 -15t-1.5 -15q0 -17 8 -34t8 -32q0 -20 -15 -33q0 -3 5 -3t5 -2h-14q-5 -2 -9 -6l43 -16q0 -1 0.5 -1t0.5 -1l-1 -1l-1 1q-2 0 -4 2q-1 0 -2 -2q-1 0 -1.5 2t-2.5 2q-1 0 -2 -1l-6 3h-2 q-6 0 -13 4t-13 4t-10 -3l-2 -2q-1 -1 -1 -2t1 -1l14 -8l-7 2q-3 2 -5.5 2.5t-4.5 2.5q-2 -1 -6.5 -1.5t-8.5 -3.5t-7 -8.5t-3 -15.5q0 -23 11 -47.5t15 -49.5q7 -28 4.5 -55.5t4.5 -53.5q1 0 9.5 14.5t19 32t20 33t12.5 18.5q10 19 21.5 37t19.5 39l3 6q2 18 11 37t9 49 q0 17 -4 32.5t-9.5 30.5t-9.5 30t-4 30q0 14 4.5 25t20.5 25h2q2 0 8 2l25 -6q12 -8 21.5 -24t15.5 -36t9 -40.5t3 -37.5q0 -47 -19.5 -99t-57.5 -107q0 -1 -3 -2q-6 -9 -16.5 -22.5t-20.5 -27.5t-17 -25.5t-7 -16.5q-11 -16 -19.5 -34t-8.5 -32q1 -1 3 -1t4 1.5t7 1.5 q26 10 49 10q20 0 31 -11l16 -20q8 -15 14.5 -33.5t6.5 -36.5q0 -24 -19 -40.5t-43.5 -27t-47.5 -16t-30 -7.5q-17 -1 -36 -5.5t-30 -6.5q-3 -6 -2.5 -13.5t-10.5 -9.5l-5 1q-8 -8 -27 -8q-5 0 -7.5 1.5t-4.5 1.5q-1 0 -1.5 -0.5t-1.5 -0.5h-1l-14 8l-5 10h-17l-7 -18 q-4 -2 -7 -2q-4 0 -12 2l-2 -7q-2 -2 -4 -2t-3 -1l-2 -1l-14 10l-1 -2h-1v2q-2 -1 -2.5 -2t-1.5 -2t-1 -2h-2q-5 3 -8.5 10t-3.5 17q-6 3 -14 2.5t-15 1.5l-22 3q-6 0 -16.5 2t-20 4t-17.5 4.5t-10 4.5q-45 11 -67 20t-36 9h-23l-7 2l-29 -5q13 -14 15 -30q0 -6 -4 -13 l-20 -9l-3 -5q-1 -1 -2 -1q0 -1 -7 -8l-12 -2l-3 3l-19 8q-3 0 -3 -6v-2q0 -1 1 -1l23 -11q2 -4 2 -6q0 -3 -2 -7l-5 -5q-1 0 -7 -2h-5l-9 4l-10 11l-6 -5q0 -5 5 -7t11 -4.5t11 -5.5t5 -10q0 -3 -2 -7v-2q6 -4 13 -5t7 -11q0 -11 -5 -14t-12 -3q-5 0 -10.5 1t-10.5 1l-2 -1 q-1 0 -1 -1l20 -38l-2 -4q-2 0 -6 5.5t-7.5 12.5t-6 13.5t-2.5 8.5q0 4 1 6q0 1 -1 2h-5q-1 -1 -1 -6v-5.5t1 -8.5l14 -22l-2 -4h-3q-4 10 -10.5 19.5t-6.5 22.5q3 3 3 6q0 1 -7.5 10t-7.5 18q0 6 4 12l4 6q-2 6 -2 9q0 14 8 19.5t9 10.5t5.5 12.5t9.5 15t8.5 12.5l3.5 5 l3 8l7 5h3l11 16l22 7h16l20 8l41 9q1 1 1 2q-11 33 -11 58q0 23 7.5 34t20.5 24l16 11q1 0 2 0.5t2 0.5l8 3h-1h1q1 0 3 1q13 -2 30.5 -8.5t31.5 -15.5q1 0 4 7.5l7 17.5t8 19.5t6 13.5q10 18 13.5 37.5t6 40.5l5 42t11.5 41q2 19 10.5 37.5t8.5 36.5q0 2 -0.5 4.5 t-0.5 4.5l-15 9l-17 -5l-5 1q-11 -3 -18.5 -9.5t-18.5 -6.5q-2 0 -3 0.5t-2 0.5l52 23l-15 12q-1 0 -9.5 -4t-9.5 -4q3 3 17 10q-9 9 -16.5 18.5t-7.5 23.5t6 26t6 25q0 11 -2 22.5t-5 25.5q0 10 6 25t13.5 29t14 24t7.5 10h5q3 0 6.5 -9.5t8 -21t9 -21.5t9.5 -13 q5 -4 10.5 -5t10.5 -1q8 0 15.5 1t15.5 1q14 0 28 -5t26 -5q7 0 13 1t10.5 6t9.5 17t11 34q7 28 24 31zM515 791q0 1 -1 5t-2.5 9t-3 9t-2.5 4q-4 0 -7.5 -5.5t-5.5 -11.5l-3.5 -10.5t-1.5 -2.5q1 -5 1 -11v-11v-17q0 -18 4 -31q-1 -2 -3 -4q-9 11 -8 27.5t-1 30.5 q-5 -16 -12 -32t-28 -16q-12 0 -26 5t-28 5q-8 0 -16.5 -1.5t-14.5 -1.5q-31 0 -44 25q-2 -1 1 -9.5t3 -30.5q-3 -8 -6 -10q-1 0 -3 2v19q0 10 -1.5 17.5t-3 14l-3 13t-1.5 14.5q2 0 3 1l-2 17q0 1 -3 4l-3 -2l1 1q-2 0 -7.5 -13t-11.5 -29t-10.5 -29.5l-4.5 -13.5 q0 -13 8.5 -22.5t8.5 -20.5q0 -9 -2 -15.5t-5 -11.5t-5 -9t-2 -10t3 -18t8 -12l7 1v-2l-6 -1l4 -10l5 -2l64 13l-52 -1q0 1 1 2l-2 2l1 1l16 1q1 1 4 1h8h21q8 0 18 -1t10 -5q0 -1 -2 -1h3q4 0 8 -1q0 -5 -2 -7h-4q-3 -6 -3 -7h1q-6 -6 -16 -6t-17 -3q0 -2 8.5 -3.5 t16.5 -1.5q14 0 26 4t12 12q0 5 -10 13t-12 14l2 4v2q10 3 31 3q16 -4 18 -10v-2l-22 -22v-6q1 -4 4 -4l11 -3q5 -2 9.5 -3.5t12.5 -1.5q17 0 27 7l-48 8l-6 6q1 6 5 7q1 -1 6 -1h5t8 1q23 0 45.5 -2.5t45.5 -3.5q5 8 11.5 14.5t6.5 16.5q0 7 -4 15t-9.5 16t-9.5 16t-4 14 q0 9 6 17t6 19q0 18 -9.5 35t-14.5 34zM-27 -6h-2q1 0 1 -9l4 -3q3 1 7 5zM-37 1h-3q-2 -2 -2 -9q0 -14 15 -22.5t32 -8.5h5l5 5q0 9 -3 11l-9 3q-8 0 -12 1l-10 -3q0 -1 -0.5 -1t-0.5 -1t3 -1l12 2l8 -1l2 -4q0 -1 1 -1q-4 -4 -10 -5q-14 2 -23 8t-9 17q0 6 2 9l-1 1h-2z M-27 37l-1 1q-1 0 -4.5 -5t-3.5 -10q0 -16 12 -22.5t16 -6.5t4 3q0 2 -4 8t-9 6q-2 0 -2 -2l5 -3l3 -6q0 -1 -3 -1q-5 2 -12 8t-7 15q0 5 3.5 8t3.5 5q0 1 -0.5 1t-0.5 1zM-13 61l-4 -2l-4 -16q2 -4 2 -5v-1l5 -6q1 -3 3 -7l7 -1q2 -2 3 -2q2 0 3 0.5t3 0.5l2 -1l2 6l-7 7 l-11 3l12 -10l-1 -1l1 -1q-1 0 -1 -0.5t-1 -0.5t-1 1.5t-2 1.5h-3q-6 1 -12 21zM-4 70h-1q0 -1 -0.5 -1t-0.5 -1q0 -5 9 -12t19 -7q0 -1 -1 -1v4l-16 8zM1 82q-1 -1 -1 -3q4 -9 11 -14.5t12 -5.5q3 0 4 1l-20 12zM37 90v-3q1 1 2 1q-3 1 -3 2h1zM14 99l-1 1l-4 -2 q-1 -3 -1 -7q0 -8 3.5 -12t20.5 -12q4 1 7 1l-14 7q-10 10 -10 24h-1zM75 126q-8 -4 -17.5 -4t-17 -1t-12.5 -6t-5 -19q0 -5 3.5 -11.5t8.5 -9.5l12 -4l5 1q3 1 4 4q0 14 -6 21t-12 9q-3 0 -3 -3q0 -2 5 -5.5t10 -11.5q0 -2 -4 -9l-2 -1q-3 0 -7 4l-5 5h-2q-1 0 -1 1l-1 -1 h1q-3 4 -3 11q0 10 5 15t12.5 7t15 2.5t13.5 2.5h3q3 0 3 2v1h-3zM412 127l-22 -2q0 -8 -1.5 -16t-1.5 -16q0 -12 6 -18l16 2q6 24 6 42v5t-3 3zM121 135l-30 -3q-5 -2 -5 -7q0 -1 1 -2l45 -1l-7 13h-4zM307 146h-1q-1 -1 -1 -2q1 0 1 -0.5t1 -0.5v1q1 1 1 2h-1zM291 151 l-2 1q-2 -4 -2 -3q0 -2 2 -2q1 -1 3 -1q1 0 2 1q-1 2 -3 4zM503 158q-7 -1 -7 -6h2q3 0 8 5q-3 0 -3 1zM261 228l-3 -4q-1 -1 -3 -1h-4q-2 0 -2 -1l25 -7zM675 229l-1 -14q-18 -6 -35.5 -11t-32.5 -8l-25 -5t-12 -3q-6 -1 -10.5 -1.5t-9.5 -0.5q-8 0 -11 1q-1 -1 -1 -2 l14 -29q-1 -2 -3 -2t-3 2l-3 5q-1 1 -2 1q-10 -7 -24.5 -14t-25.5 -8q-6 -12 -6.5 -25t-1.5 -25q1 -5 7 -7q58 11 89 18.5t48 16.5t25.5 21t22.5 31q6 16 6 32q0 14 -5 27zM252 235l-1 1q-3 -6 -3 -7h1h1q4 1 5 4q-1 0 -3 2zM136 237h-1q-6 -20 -6 -36q0 -6 1.5 -20t4 -28.5 t5.5 -25t6 -10.5q50 -17 95.5 -28t75.5 -11q9 0 14 1q0 4 -0.5 12t-1.5 16.5t-3.5 15.5t-5.5 10q-4 -2 -10 -2h-9h-4h-7q-17 0 -21 -6t-9 -11q-7 2 -7 1.5t0 1.5l28 58q-20 7 -36.5 11.5t-33 10t-34.5 14.5t-40 26h-1zM241 244q-2 -1 -3 -3l-2 -4q0 -2 0.5 -3t0.5 -2v-2 q-2 -5 -3 -5v3l4.5 -3t3.5 -1q1 0 1.5 2t0.5 4l-4 6l3 6h1q-1 1 -1.5 1t-1.5 1zM596 249q-2 0 -2.5 -1.5t-2.5 -1.5t-2 1.5t-1 1.5q-3 -3 -3 -5t2 -2l12 5l-2 1q-1 0 -1 1zM572 255l-10 -5l-25 -18q2 -2 4 -2q7 0 20 3.5t20 8.5l-3 3l-4 -2l-4 5l4 7h-2zM217 258l-1 -3 q-2 -2 -6 -4q0 -1 0.5 -2.5t0.5 -2.5l-5 -5l24 -12l-2 4q0 5 1 4.5t3 1.5v11h-3q0 -5 -5 -5v-7l-4 -2q-5 2 -5 4l2 4l2 2v4q0 7 1 7t1 -1zM649 260l-8 -5q-5 -1 -8.5 -2.5t-8 -4t-12.5 -6t-22 -8.5q-12 -2 -25 -6t-24 -6q-2 1 -4 1q-3 -2 -3 -3v-4v-10q0 -9 4 -10.5t10 -1.5 q19 0 42 6.5t43 17.5q5 2 15.5 6.5t18.5 12.5v3q-7 12 -18 20zM205 264l-2 1l-1 -5l-5 -3q-1 -6 -3 -8l4 -4q0 -3 1 -3q0 1 1 2l7 19q0 1 -2 1zM160 265l-15 -11l-3 -5q-2 -2 -2 -3l20 -17q8 -2 19.5 -8t26.5 -13.5t34 -14t42 -8.5l2 9q0 1 1 2q0 4 -4 9l-20 3l-6 4 q-20 3 -32.5 11.5t-22.5 10.5q-10 6 -20 11t-17 14l-1 5q-1 1 -2 1zM184 266h3q1 0 1 -3q1 -1 -0.5 -2t-3.5 -1q-3 0 -3 3l2 3h1zM620 267l-17 -1q-2 -6 -4 -6v2q0 -2 0.5 -3t0.5 -2t-1 -1l4 5q0 1 1 1h3q1 -2 1 -4q0 -3 -2.5 -5t-2.5 -4v1q1 0 2 -0.5t3 -0.5q8 4 18 8 t16 10h-22zM175 271q-5 -2 -5.5 -2.5t-0.5 -2.5t2 -4l11 -8q2 0 2.5 -1.5t2.5 -1.5h1q0 1 -0.5 1t-0.5 1q0 4 3 9q1 3 3 6q1 0 2 -1zM523 314l-28 -149h16l5 3l14 2q0 6 -4.5 10.5t-4.5 17.5q0 16 2.5 25t6 14t9 8.5t11.5 8.5l-6 16zM281 327h-2q-6 -6 -11.5 -16t-10 -20.5 t-7 -20.5t-2.5 -15q0 -6 7.5 -12.5t16.5 -15t16.5 -19.5t7.5 -25q0 -12 -4 -23q1 -4 5 -4l22 -1q-4 11 -6.5 23.5t-4 24.5t-3.5 21.5t-5 15.5q-13 31 -19 87zM488 553q-6 -6 -29.5 -13t-46.5 -12q-8 2 -15 2t-15 3q-15 1 -29 7t-25 10v-7q0 -11 -4 -22.5t-8 -21.5 q-10 -29 -14 -56.5t-4 -56.5q0 -38 5 -75.5t12 -75.5q12 -42 15.5 -81t9.5 -79q-1 -3 -4 -5t-4 -4l-1 -8q0 -1 2 -1v1h1q1 1 2 1q2 -2 3 -4l-2 -7h3l7 26l4 2q2 -2 3 -1.5t1 -2.5q0 -5 -2 -10.5t-2 -9.5q0 -7 2 -9q0 6 2 6q4 -2 4.5 -5t1.5 -3q3 0 5 2q-1 5 -4 10t-3 10 q0 1 0.5 3.5t2.5 2.5t6 -10.5t9 -12.5q1 0 1.5 0.5t1.5 0.5v-1l-3 13q1 1 3 1q0 -1 5 -6q1 0 1 -1t1 -1v2h-1q0 1 1.5 4t1.5 8q0 4 -5 9h-1q-1 0 -2 1l-6 5q-2 5 -2 10.5v10.5q0 26 6.5 56t6.5 62q0 29 -2.5 57t-4.5 54q0 1 1 3t3 2q4 0 8 -13.5t6.5 -31.5t4 -36t1.5 -26 q0 -23 -3.5 -46t-8.5 -46q6 -2 10 -2q8 0 16 5l1 15q1 10 1.5 19t0.5 18q0 14 -0.5 28.5t-0.5 28.5q0 9 2 23.5t5 29t6 25t6 10.5q2 -2 2 -6q0 -6 -3 -15q-3 -22 -4 -43.5t-1 -44.5q0 -20 0.5 -41t0.5 -41q0 -24 -3.5 -36t-5.5 -27q4 -10 2.5 -17.5t6.5 -15.5h2l1 12l4 2 l4 -7h2q2 2 2 6q0 5 -5 17q0 1 2 3q5 0 8 -8t3 -12q0 -5 -3 -9t-3 -7l8 1q2 2 2 4v2l-1 -1l4 2q1 -1 4 -1q5 5 5 11q0 8 -5 10t-5 5v3t2 2l6 -3t3 -2l7 -18l4 -1q2 4 2 6q0 5 -5 13l-13 5q-3 9 -3 18q0 14 4 28t9 28q30 106 30 208q0 77 -16 148q-4 9 -4 38zM406 573 q-8 -3 -10 -5l15 2l-4 3h-1zM325 574l-14 -1q-1 -3 -1 -4q0 -2 13 -7t30 -9.5t34 -8t25 -3.5q20 -2 41.5 7.5t31.5 15.5l13 8q-2 1 -3.5 0.5t-3.5 1.5q-13 -2 -24.5 -7.5t-23.5 -5.5q-6 0 -10.5 2t-6.5 2q-5 0 -11.5 -4t-14.5 -4q-10 0 -17 6q-5 -2 -14 -2q-12 0 -23 4 t-21 9zM575 585l32 -5l-34 3l-2 4zM351 593q-7 -2 -17.5 -3t-20 -2t-17 -2t-8.5 -4l7 -6l4 -1l61 17zM286 605l6 -1v-2l-8 2zM405 617l-14 -2l-1 -1q0 -1 1 -1l13 -4q1 0 1 0.5t1 0.5t1 -0.5t1 -0.5l4 -9q2 8 3.5 9.5t5.5 1.5h2q0 1 0.5 1t0.5 1v1zM342 661q13 1 28 -8.5 t15 -24.5q0 -7 -3 -7q-2 0 -3 2.5t-4 2.5q-5 -2 -8 -3.5t-8 -1.5q-16 0 -29 13l-9 15l-1 2l-8 3q-1 0 -1 2v1q0 1 1 2zM375 718l-13 -44h-6q-1 0 -1 1l-1 1l-5 -1q-1 0 -2 1l-6 39q2 -3 4 -8t3.5 -10.5t2.5 -9.5t2 -4t1.5 9.5t2.5 15.5l2 -20l1 -1l1 1l13 30h1zM497 667 l4 -1v-4q0 -2 -4 -3q-16 -36 -36 -36q-5 0 -9.5 1.5t-9.5 2.5q-2 0 -2 -3.5t-2 -3.5q-6 0 -6 8q0 11 11 21.5t27 15.5q3 0 6.5 -0.5t6.5 -0.5q6 0 14 3zM483 701l-7 -21q-2 -1 -3 -1t-1 -1l10 23h1zM465 705v-25q-2 -1 -4 -1q-1 0 -1 -1v-1l2 1q0 -1 -2 3l4 24h1zM451 707 l6 -30q0 -2 -3 -2q-4 8 -4 16v16h1zM333 651h-1v-1q0 -6 9 -15l10 -4q0 2 -0.5 3t-0.5 3q0 8 4 12zM667 767q-14 -5 -19 -12.5t-5 -19.5q0 -7 3 -16q26 -50 26 -103q0 -33 -10 -65t-25.5 -61.5t-34 -56.5t-34.5 -49q-8 -16 -18 -30.5t-14 -34.5q1 -3 4 -11.5t7 -17.5 t7.5 -16t5.5 -7l1 1q3 21 13 37t18 35l26 45.5t32 51.5q28 42 48 90.5t20 114.5q0 26 -6 59.5t-23 53.5l-4 4q-1 1 -1 2q0 -1 1 -2q-8 8 -16 8h-2zM361 647h-1q1 -2 1 -5q0 -4 -2 -7.5t-2 -6.5q2 0 2.5 -0.5t2.5 -0.5q4 0 12 4q-2 3 -13 16zM458 650q-8 -4 -10 -10t-2 -7v-1 l9 -3q2 0 2.5 0.5t1.5 0.5h2q-4 7 -4 14q0 4 1 6zM472 657q-2 -2 -4 -2t-3 -1l-2 -1q0 -2 3 -3l2 -19q9 6 13 13.5t5 12.5h-14zM484 584l22 -8q6 1 6 4zM503 590l19 -6l1 1q1 0 1 0.5t1 0.5q0 2 -1 3z" horiz-adv-x="792"/>
   <glyph glyph-name="NULL" horiz-adv-x="0"/>
   <glyph glyph-name="nonmarkingreturn" horiz-adv-x="1000"/>
   <glyph glyph-name="space.001" horiz-adv-x="350"/>
   <glyph glyph-name="Z" horiz-adv-x="748" unicode="Z" d="M13 17v13.5t1 10.5q-2 -2 -4 -3.5t-3 -2.5q-2 -1 -2 -2h-1q0 7 14.5 19t27.5 37l482 646h-156q-40 0 -79.5 0.5t-79.5 0.5q-17 0 -37.5 -7t-43.5 -20.5t-47 -32.5t-46 -42l-34 26l113 141l51 -2q-5 -5 -5 -10q0 -9 15.5 -16t36.5 -7l478 -1q0 -16 0.5 -22t-2 -10 t-8.5 -10.5t-18 -22.5q-58 -77 -119.5 -160t-124 -166.5t-124 -166.5t-119.5 -160h347q16 0 37.5 7.5t45 21t47 32t44.5 41.5l35 -26l-114 -140l-50 2q4 4 4 9q0 9 -16 16t-36 7h-510z"/>
   <glyph glyph-name="N" horiz-adv-x="723" unicode="N" d="M701 735q-25 0 -47 -7.5t-22 -22.5v-616q0 -10 7.5 -17.5t18 -13t22.5 -8.5t21 -3v-30h-82q-29 0 -53.5 8t-43 19.5t-31.5 24.5t-19 23l-339 525v-528q0 -10 7.5 -17.5t18 -13t23 -8.5t21.5 -3v-30h-181v30q7 0 18.5 3t22 8.5t18 13.5t7.5 17v616q0 7 -6.5 13t-16 9.5 t-21.5 5.5t-22 2v30h95q17 0 35.5 -5t36 -14t32.5 -21t24 -25l342 -518v523q0 7 -6.5 13t-16.5 9.5t-22 5.5t-22 2v30h181v-30z"/>
   <glyph glyph-name="M" horiz-adv-x="881" unicode="M" d="M372 357q-54 75 -106.5 149.5t-106.5 149.5q-5 8 -8.5 12t-11.5 11v-590q0 -10 7.5 -17.5t18 -13t22.5 -8.5t21 -3v-30h-181v30q7 0 18.5 3t22 8.5t18 13.5t7.5 17v539q0 36 -1.5 55.5t-8.5 30t-20.5 14t-38.5 8.5v29h277v-30q-9 0 -15 -7.5t-6 -20.5q0 -18 11 -34 q35 -50 69.5 -98.5t69.5 -96.5q20 26 49 60.5t56 69.5t46 66.5t19 50.5q0 10 -9 10h-12v30h275v-30q-26 0 -48 -7.5t-22 -22.5v-616q0 -10 7.5 -17.5t18 -13t23 -8.5t21.5 -3v-30h-275v30q7 0 18.5 3t22 8.5t18.5 13.5t8 17v600q-10 -7 -19 -16t-15 -17q-44 -63 -90 -121.5 t-94 -117.5l-48 -60h-8z"/>
   <glyph glyph-name="Y" horiz-adv-x="786" unicode="Y" d="M452 449l1 -372q0 -8 6 -13.5t16 -9.5t21.5 -5.5t22.5 -1.5v-30h-271v30q10 0 22 1.5t22 5.5t16.5 9.5t6.5 13.5l1 344q-42 59 -84 117.5t-84 117.5q-23 32 -56.5 52t-71.5 28v29h270v-30q-9 0 -15 -7.5t-6 -20.5q0 -18 11 -34l144 -202q35 50 72 101t72 101 q8 12 13 25.5t6 22.5q0 14 -12 14v30h189l-1 -30q-22 -3 -45.5 -9.5t-46 -16t-41.5 -23t-31 -30.5z"/>
   <glyph glyph-name="X" horiz-adv-x="856" unicode="X" d="M172 126q45 64 97 128t106 130q-50 67 -98 133.5t-96 138.5q-29 36 -74.5 55.5t-90.5 24.5l-1 29h316v-30q-20 0 -20 -27q0 -8 3.5 -18.5t6.5 -16.5q31 -45 63.5 -91.5t64.5 -89.5q3 -6 6 -9q39 48 76.5 94.5t71.5 95.5q8 12 12.5 25t4.5 23q0 14 -11 14l-1 30h199v-30 q-50 -6 -94.5 -25t-70.5 -54q-39 -54 -79 -105.5t-82 -103.5q58 -82 117.5 -165t111.5 -156q13 -19 34 -33.5t41 -25t36 -16.5t19 -9v-27h-281l1 34h2q8 0 12.5 7t4.5 17q0 8 -3.5 18.5t-6.5 17.5h1q-44 61 -85 120t-84 118l-93 -117q-15 -20 -35.5 -43t-38.5 -46t-30 -43.5 t-12 -33.5q0 -15 11 -15h2l1 -32h-199v30q24 2 48.5 8t46.5 15.5t40.5 23.5t29.5 32z"/>
   <glyph glyph-name="K" horiz-adv-x="755" unicode="K" d="M288 735q-25 0 -47.5 -7.5t-22.5 -22.5v-444q34 47 71.5 99.5t75.5 106.5t75.5 106.5t71.5 99.5q8 12 13 25.5t5 22.5q0 14 -11 14l-1 30h189v-30q-23 -3 -47 -9.5t-46 -16t-41 -23t-31 -30.5q-47 -66 -93 -130.5t-93 -130.5q20 10 44 10q33 0 57 -12.5t42 -37.5t32 -63 t27 -89l9 -36q8 -26 28 -42t51 -16q23 0 35 25.5t12 61.5l39 -2q-1 -56 -10 -91.5t-25.5 -56.5t-40.5 -29t-54 -8q-54 0 -85 22t-48.5 54.5t-27 71t-19.5 71.5q-13 53 -36 86.5t-43 33.5q-10 -1 -22 -9.5t-26 -28.5l-78 -111l1 -110q0 -10 7.5 -17.5t18 -13t23 -8.5t21.5 -3 v-30h-274v30q7 0 18.5 3t22 8.5t18 13.5t7.5 17v616q0 7 -6.5 13t-16 9.5t-21.5 5.5t-22 2v30h274v-30z"/>
   <glyph glyph-name="J" horiz-adv-x="309" unicode="J" d="M82 -69q0 195 -1.5 387t-1.5 387q0 7 -6.5 13t-16 9.5t-21.5 5.5t-22 2v30h274v-30q-25 0 -47 -7.5t-22 -22.5q0 -189 1 -375t1 -375q0 -43 -18.5 -86t-51 -78t-75 -57t-90.5 -22q-36 0 -72.5 12t-65.5 33t-47.5 51t-18.5 66q0 38 25.5 64t61.5 26q33 0 50 -16.5t25 -42 t10 -54.5t6 -54.5t14 -42t33 -16.5q55 0 66 74q5 36 7.5 66t2.5 53z"/>
   <glyph glyph-name="T" horiz-adv-x="820" unicode="T" d="M490 735v-658q0 -8 6 -13.5t16 -9.5t21.5 -5.5t22.5 -1.5v-30h-286v30q10 0 22 1.5t22 5.5t16.5 9.5t6.5 13.5v658h-127q-18 0 -40.5 -8t-46 -21.5t-46.5 -31.5t-42 -38l-29 23l113 141l43 -2q-5 -5 -5 -9q0 -10 16.5 -17t39.5 -7h399q22 0 39 7t17 17q0 5 -4 9l42 2 l114 -141l-30 -23q-18 19 -41 37t-47 31.5t-46.5 22t-40.5 8.5h-125z"/>
   <glyph glyph-name="R" horiz-adv-x="687" unicode="R" d="M220 366h113q76 0 110.5 39t34.5 111q0 85 -18.5 135.5t-38.5 61.5q-43 22 -129 22h-72v-369zM669 194q0 -54 -9 -90t-25.5 -57t-40.5 -29.5t-55 -8.5q-37 0 -65 13t-48 34t-31.5 47.5t-15.5 53.5l-24 117q-11 60 -70 60h-66v-55.5t-0.5 -67t-0.5 -67v-55.5 q0 -10 7.5 -17.5t18 -13t22 -8.5t18.5 -3v-30h-268v30q7 0 18.5 3t22 8.5t18 13.5t7.5 17v616q0 7 -6.5 13t-16 9.5t-21.5 5.5t-22 2v30h384q28 -2 62 -12t70 -27q38 -19 58.5 -57t20.5 -95q0 -69 -17 -114t-45.5 -72t-65.5 -39t-77 -14q30 -20 48.5 -44.5t30 -50t20 -49 t18 -42t23.5 -29.5t37 -11t35.5 25.5t12.5 61.5z"/>
   <glyph glyph-name="Q" horiz-adv-x="683" unicode="Q" d="M341 775q68 0 127 -31t102.5 -83.5t68 -122t24.5 -146.5q0 -50 -11.5 -99.5t-33 -93.5t-52.5 -80.5t-69 -61.5h2q28 -63 71 -63q19 0 28.5 19.5t9.5 48.5v13l36 -2q4 -20 4 -42q0 -64 -29.5 -97.5t-83.5 -33.5q-29 0 -51.5 10t-39.5 26t-29.5 36.5t-22.5 41.5 q-12 -2 -24.5 -3.5t-26.5 -1.5q-69 0 -128 31t-102.5 83.5t-68 122t-24.5 146.5q0 76 24.5 145.5t68 122.5t102.5 84t128 31zM486 88q-1 2 -1.5 3.5t-1.5 3.5q-2 -2 -3 -3.5t-3 -3.5h9zM474 120q2 -8 4.5 -14t4.5 -11q17 26 27 68t10 105q0 68 -8 130.5t-20.5 114.5t-28 91 t-30.5 61q-54 77 -131 77q-30 0 -56.5 -13t-45.5 -41t-30 -72t-11 -106q0 -56 6 -110t16.5 -102t24 -88.5t28.5 -67.5q5 48 33 75.5t79 27.5q29 0 50 -12t35.5 -30.5t24.5 -40.5t18 -42zM299 169q-29 -1 -29 -41q0 -25 11 -41.5t27 -26t35 -13.5t36 -4h1q-14 28 -23.5 51 t-18 39.5t-17.5 26t-22 9.5z"/>
   <glyph glyph-name="I" horiz-adv-x="302" unicode="I" d="M292 735q-25 0 -47.5 -7.5t-22.5 -22.5v-616q0 -10 7.5 -17.5t18 -13t23 -8.5t21.5 -3v-30h-274v30q7 0 18.5 3t22 8.5t18 13.5t7.5 17v616q0 7 -6.5 13t-16 9.5t-21.5 5.5t-22 2v30h274v-30z"/>
   <glyph glyph-name="P" horiz-adv-x="629" unicode="P" d="M222 366h113q76 0 110.5 39t34.5 111q0 85 -18.5 135.5t-38.5 61.5q-43 22 -129 22h-72v-369zM221 89q0 -10 7 -17.5t17.5 -13t22 -8.5t18.5 -3v-30h-268v30q7 0 18.5 3t22 8.5t18 13.5t7.5 17v616q0 7 -6.5 13t-16 9.5t-21.5 5.5t-22 2v30h384q28 -2 62 -12t70 -27 q38 -19 58.5 -57t20.5 -95q0 -152 -75 -197q-73 -43 -165 -43h-152v-245z"/>
   <glyph glyph-name="U" horiz-adv-x="814" unicode="U" d="M84 705q0 7 -6.5 13t-16 9.5t-21.5 5.5t-22 2v30h271v-30q-11 0 -23 -2t-21.5 -5.5t-16 -9.5t-6.5 -13v-210q0 -99 16 -182t42.5 -143.5t59.5 -94.5t67 -34t67 27.5t59 83.5t41.5 141.5t15.5 202.5v209q0 7 -6.5 13t-16 9.5t-21.5 5.5t-22 2v30h271v-30q-11 0 -23 -2 t-21.5 -5.5t-16 -9.5t-6.5 -13v-210q0 -117 -27 -208t-72 -152.5t-103 -93.5t-119 -32t-119 32t-103.5 94.5t-73 153.5t-27.5 209v207z"/>
   <glyph glyph-name="L" horiz-adv-x="666" unicode="L" d="M222 47h223q18 0 40.5 8t46 21.5t46.5 31.5t42 38l30 -23l-114 -140l-42 2q4 4 4 8q0 10 -17 17t-39 7h-424v30q7 0 18.5 3t22 8.5t18 13.5t7.5 17v616q0 7 -6.5 13t-16 9.5t-21.5 5.5t-22 2v30h271v-30q-11 0 -23 -2t-21.5 -5.5t-16 -9.5t-6.5 -13v-658z"/>
   <glyph glyph-name="F" horiz-adv-x="608" unicode="F" d="M230 455h191q25 0 48 17t45 40l29 -23q-8 -10 -16 -19.5t-20.5 -24.5t-31 -38.5t-48.5 -61.5l-29 22q13 13 13 42q0 15 -7 15h-174v-335q0 -10 7.5 -17.5t18 -13t22 -8.5t19.5 -3v-30h-271v30q7 0 18.5 3t22 8.5t18 13.5t7.5 17v616q0 7 -6.5 13t-16 9.5t-21.5 5.5t-22 2 v30h424q22 0 39 7t17 17q0 5 -4 9l42 2l114 -141l-30 -23q-18 19 -41 37t-47 31.5t-46.5 22t-40.5 8.5h-223v-280z"/>
   <glyph glyph-name="C" horiz-adv-x="656" unicode="C" d="M558 593h-34q-16 40 -33 68.5t-39.5 46t-53 25.5t-73.5 8q-45 0 -75.5 -22t-49 -57.5t-26.5 -80.5t-8 -92q0 -102 19 -180.5t51.5 -132t76.5 -81t94 -27.5q53 0 103.5 38t82.5 118l44 1q-19 -45 -48.5 -84.5t-67 -68.5t-81.5 -46t-93 -17q-69 0 -128 31t-102.5 83.5 t-68 122t-24.5 146.5q0 73 24.5 142t67.5 122.5t99.5 86t121.5 32.5q89 0 126 -35q18 -18 37 -25.5t41 -7.5q19 0 36 15t33 43h39z"/>
   <glyph glyph-name="B" horiz-adv-x="729" unicode="B" d="M220 455q51 0 97 2.5t90 7.5q72 7 72 98q0 32 -5.5 59t-14 47.5t-19 33.5t-19.5 16q-42 16 -129 16h-72v-280zM220 47h65q49 0 97.5 1.5t87 14t62.5 41.5t24 85q0 45 -9 81.5t-23 63.5t-31 44t-34 23q-35 11 -93 17t-146 6v-377zM438 765q28 -2 59 -10t56.5 -27 t42.5 -49.5t17 -75.5q-2 -65 -26.5 -100.5t-59.5 -53.5h-1q29 -8 61.5 -26t60 -45.5t45.5 -64.5t18 -82q-2 -77 -26 -120t-63 -64t-89 -25.5t-102 -4.5h-415v30q7 0 18.5 3t22 8.5t18 13.5t7.5 17v616q0 7 -6.5 13t-16 9.5t-21.5 5.5t-22 2v30h422z"/>
   <glyph glyph-name="H" horiz-adv-x="727" unicode="H" d="M288 735q-25 0 -47.5 -7.5t-22.5 -22.5v-250h285v250q0 7 -6.5 13t-16.5 9.5t-22 5.5t-22 2v30h275v-30q-26 0 -48 -7.5t-22 -22.5v-616q0 -10 7.5 -17.5t18 -13t23 -8.5t21.5 -3v-30h-275v30q7 0 18.5 3t22 8.5t18.5 13.5t8 17v335h-285v-335q0 -10 7.5 -17.5t18 -13 t23 -8.5t21.5 -3v-30h-274v30q7 0 18.5 3t22 8.5t18 13.5t7.5 17v616q0 7 -6.5 13t-16 9.5t-21.5 5.5t-22 2v30h274v-30z"/>
   <glyph glyph-name="D" d="M285 735q-23 0 -44 -7.5t-21 -22.5v-616q0 -10 7.5 -17.5t18 -13t21.5 -8.5t18 -3q67 0 112.5 10.5t74 35.5t41 67.5t12.5 107.5q0 26 -1.5 56t-6.5 63q-5 36 -11.5 75.5t-17 78t-26.5 74t-40.5 62t-58 42.5t-78.5 16zM16 47q7 0 18.5 3t22 8.5t18 13.5t7.5 17v616 q0 7 -6.5 13t-16 9.5t-21.5 5.5t-22 2v30h333q69 -1 127.5 -34t101.5 -87.5t67 -124.5t24 -144q0 -85 -24.5 -151.5t-70 -112.5t-110 -70.5t-143.5 -24.5q-26 0 -59 1.5t-62 1.5q-46 0 -91.5 -1t-92.5 -1v30z" unicode="D"/>
   <glyph glyph-name="E" horiz-adv-x="664" unicode="E" d="M220 455h191q25 0 48 17t45 40l29 -23q-8 -10 -16 -19.5t-20.5 -24.5t-31 -38.5t-48.5 -61.5l-29 22q13 13 13 42q0 15 -7 15h-174v-377h223q18 0 40.5 8t46 21.5t46.5 31.5t42 38l30 -23l-114 -140l-42 2q4 4 4 8q0 10 -17 17t-39 7h-424v30q7 0 18.5 3t22 8.5t18 13.5 t7.5 17v616q0 7 -6.5 13t-16 9.5t-21.5 5.5t-22 2v30h424q22 0 39 7t17 17q0 5 -4 9l42 2l114 -141l-30 -23q-18 19 -41 37t-47 31.5t-46.5 22t-40.5 8.5h-223v-280z"/>
   <glyph glyph-name="G" horiz-adv-x="647" unicode="G" d="M554 593h-34q-16 40 -33 68.5t-39.5 46t-53 25.5t-73.5 8q-45 0 -75.5 -22t-49 -57.5t-26.5 -80.5t-8 -92q0 -65 7.5 -112.5t17.5 -88.5q13 -57 38 -102t56.5 -76t67 -47t70.5 -16q56 0 66 61q5 32 7.5 51.5t2.5 26.5v41q0 36 -9.5 58.5t-30.5 35t-54.5 17t-81.5 4.5v28 h314q0 -63 -16 -127.5t-45 -120.5q-29 -55 -86.5 -84t-142.5 -29q-69 0 -128 31t-102.5 83.5t-68 122t-24.5 146.5t26 146.5t69.5 122t100.5 83.5t119 31q90 0 125 -35h-1q18 -18 37 -25.5t41 -7.5q19 0 36 15t33 43h39z"/>
   <glyph glyph-name="S" horiz-adv-x="666" unicode="S" d="M548 603h-34q-16 40 -33 67t-38.5 43.5t-50 23.5t-67.5 7q-39 -1 -71.5 -11t-56 -27.5t-36.5 -41.5t-13 -53q0 -30 10.5 -48t26.5 -28.5t34.5 -16t35.5 -10.5q26 -9 53 -16t54 -13q28 -6 59.5 -14t61.5 -19.5t58 -28.5t50 -42q13 -15 20.5 -33.5t11.5 -37.5t5 -37t1 -32 q0 -46 -27.5 -87t-71 -72t-96.5 -49t-104 -18q-48 0 -77 9t-49.5 20t-37.5 20t-41 9q-20 0 -37.5 -15t-31.5 -43h-39l91 172h34q15 -40 30 -67t36.5 -43.5t51.5 -23.5t74 -7q45 0 78 13.5t54.5 35t31.5 49t10 56.5q0 50 -21.5 80.5t-53.5 49.5t-69 28.5t-68 17.5 q-33 8 -63.5 17.5t-59.5 20.5q-21 8 -43 18t-40 26t-30 39.5t-12 58.5q0 49 28 90.5t70 71.5t90.5 46.5t89.5 16.5q46 0 75 -9t50 -20t38.5 -20t41.5 -9q38 0 69 58h39z"/>
   <glyph glyph-name="O" d="M343 775q68 0 127 -31t102.5 -83.5t68 -122t24.5 -146.5t-24.5 -146.5t-68 -122t-102.5 -83.5t-127 -31q-69 0 -128 31t-102.5 83.5t-68 122t-24.5 146.5q0 76 24.5 145.5t68 122.5t102.5 84t128 31zM304 742q-30 0 -56.5 -13t-45.5 -41t-30 -72t-11 -106q0 -26 2 -56 t6 -62q22 -179 77.5 -264t134.5 -85q30 0 56 11.5t45 37.5t30 68t11 104q0 65 -8 128t-20.5 116t-28 94t-31.5 63q-56 77 -131 77z" unicode="O"/>
   <glyph glyph-name="W" horiz-adv-x="1032" unicode="W" d="M593 527q27 -72 56.5 -148t57.5 -149q26 68 44.5 115t32 81.5t23.5 61t20.5 53t22.5 57.5t29 75q2 6 5.5 14t3.5 13q0 9 -7 15.5t-18.5 11t-24.5 7t-25 2.5v29h215v-29q-14 0 -29 -2t-29 -7.5t-24.5 -13.5t-14.5 -20l-261 -677h-35l-119 310q-29 -78 -60 -155.5 t-60 -154.5h-35l-262 677q-8 14 -19.5 22t-24.5 12.5t-26 6.5t-23 4v29h318v-31q-9 0 -21.5 -1t-24 -4.5t-19.5 -9.5t-8 -15q0 -6 3 -13q15 -42 27.5 -75t24 -63t23.5 -61t27 -68.5t33 -85t43 -111.5q15 39 30.5 78t30.5 78q-26 65 -51 131.5t-51 131.5q-7 19 -7 32 q0 18 13 34t34 27t47 17.5t51 6.5q21 0 42.5 -5t39 -14.5t28 -23.5t10.5 -32q0 -17 -8 -39zM570 585q4 11 10.5 25t12.5 28t10.5 27.5t4.5 23.5q0 14 -12 21.5t-26 7.5q-15 0 -25.5 -8t-10.5 -24v-6.5t2 -7.5z"/>
   <glyph glyph-name="V" horiz-adv-x="775" unicode="V" d="M770 736q-26 0 -55 -12t-40 -31q-63 -168 -127 -338.5t-127 -338.5h-35l-256 677q-11 23 -43.5 33t-68.5 10v29h336v-29q-29 0 -51.5 -10.5t-22.5 -27.5q0 -3 1 -5q18 -47 32 -85t27.5 -74t27.5 -73.5t31 -82.5q12 -33 26 -67.5t31 -80.5q23 64 40 109t30.5 79.5t24.5 63 t23 58.5t25.5 66.5t32.5 86.5q0 2 0.5 3t0.5 3q0 9 -7 16t-18 11.5t-24 7t-24 2.5v29h210v-29z"/>
   <glyph glyph-name="A" horiz-adv-x="838" unicode="A" d="M13 45q15 0 30.5 2t30 7t25.5 13.5t16 20.5l275 677h37l275 -677q10 -25 44.5 -34t76.5 -9v-29h-362v29q30 0 55.5 9t25.5 26q0 2 -2 8l-23 55q-6 14 -20 31t-49 25q-52 13 -103 13q-25 0 -50.5 -3.5t-48.5 -9.5q-26 -8 -43.5 -26.5t-17.5 -28.5l-23 -56q-2 -6 -2 -9 q0 -9 7.5 -15t19.5 -10.5t26 -6.5t26 -2v-29h-226v29zM214 215q33 13 67 20t69 7t69 -7t69 -20q-36 88 -68.5 169t-68.5 169z"/>
   <glyph glyph-name="a" horiz-adv-x="572" unicode="a" d="M456 193q0 -75 20.5 -110.5t79.5 -35.5v-30q-145 0 -188 36q-3 1 -6.5 1h-6.5q-16 0 -24.5 -7t-23.5 -15.5t-44 -15.5t-86 -7q-50 0 -81 11.5t-48.5 30t-24 42t-6.5 46.5q0 18 6 38.5t19 39.5t34 34.5t50 22.5q85 21 141 27q53 6 53 94q0 16 -6 32t-16 28.5t-23 20 t-27 7.5q-26 0 -37 -15.5t-16 -38.5q-10 -42 -33 -60.5t-48 -18.5q-24 0 -43.5 15t-19.5 39q0 18 15.5 37t40 34t56 24.5t63.5 9.5q46 0 88 -22t73.5 -56.5t50 -78t18.5 -86.5v-73zM328 309q-11 -15 -29.5 -23t-39.5 -13t-42.5 -9.5t-38.5 -13t-28 -22.5t-11 -39 q0 -40 9.5 -69t23.5 -47.5t30.5 -27t30.5 -8.5q18 0 35 8.5t30.5 23t21.5 33.5t8 40v167z"/>
   <glyph glyph-name="b" horiz-adv-x="578" unicode="b" d="M249 814v-336q46 31 102 31q43 0 81.5 -20t67 -54.5t45.5 -80t17 -95.5q0 -51 -16.5 -96.5t-45.5 -79.5t-67.5 -54t-81.5 -20q-18 0 -34.5 5.5t-31 12.5t-27 12.5t-22.5 5.5q-9 0 -17.5 -4t-19 -8.5t-23.5 -8.5t-31 -5q-17 -1 -48 -1.5t-76 -0.5v30q58 0 79 35.5 t21 110.5v378q0 7 -2.5 22t-8 30t-14.5 26t-21 11q-18 0 -43 -18v26l188 146h29zM249 193q0 -12 5 -39t16 -54.5t28 -48.5t42 -21q18 0 32.5 7.5t24 26.5t15 52.5t5.5 84.5q0 54 -7.5 103.5t-21.5 88t-33.5 61.5t-42.5 23q-19 0 -31 -10.5t-19 -25.5t-10 -33t-3 -33v-182z "/>
   <glyph glyph-name="c" horiz-adv-x="481" unicode="c" d="M253 509q22 0 38.5 -4.5t30.5 -10.5t27.5 -10.5t30.5 -4.5q41 0 54 25h30l-66 -175h-23q-6 21 -17 48.5t-26 52t-33.5 41t-39.5 16.5q-23 0 -39 -11.5t-26 -32.5t-14 -49t-4 -61q0 -131 35 -198.5t90 -67.5q26 0 49 8t42 21t32.5 29.5t21.5 33.5l19 -15 q-11 -30 -33 -54.5t-50.5 -42.5t-60.5 -28t-62 -10q-50 0 -93.5 20t-75.5 54t-50.5 79.5t-18.5 96.5t18.5 96t50 79.5t73.5 54.5t90 20z"/>
   <glyph glyph-name="d" horiz-adv-x="589" unicode="d" d="M466 814v-621q0 -37 3.5 -64.5t14.5 -45.5t31.5 -27t53.5 -9v-30h-98q-3 0 -6.5 -0.5t-6.5 -0.5q-12 0 -25 0.5t-25.5 5t-24.5 14t-22 28.5q-58 -55 -133 -55q-45 0 -83.5 20t-67 54t-44.5 79.5t-16 96.5t16.5 96t45 79.5t67 54.5t82.5 20q15 0 28.5 -4t24.5 -9.5 t19.5 -9.5t14.5 -4t10.5 5.5t7.5 12.5t4 14.5t1 11.5v45q0 7 -2.5 22t-8 30t-14.5 26t-21 11q-18 0 -43 -18v26l188 146h29zM338 240q0 26 -0.5 49.5t-4 45.5t-11 44.5t-20.5 46.5q-14 26 -32 43t-41 17q-35 0 -51.5 -39t-16.5 -129q0 -49 6.5 -98t18.5 -88.5t30 -64.5 t41 -25q24 0 39.5 12.5t25 33.5t13 48t3.5 57v47z"/>
   <glyph glyph-name="e" horiz-adv-x="500" unicode="e" d="M253 509q36 0 70 -12t62.5 -33.5t50 -51t34.5 -63.5q4 -12 4 -26q0 -13 -3.5 -24t-17 -18.5t-41 -11.5t-74.5 -4h-166q11 -94 41.5 -146t81.5 -52q26 0 49 8t42 21t32.5 29.5t21.5 33.5l19 -15q-1 -3 -2 -5l-2 -4q-30 -57 -83 -91.5t-119 -34.5q-48 0 -90.5 20t-74 54 t-49.5 79.5t-18 96.5t18.5 96t50 79.5t73.5 54.5t90 20zM169 290h111q17 0 28 5.5t11 24.5q0 5 -1 11t-3 14q-19 60 -44 97.5t-51 37.5q-24 0 -39 -36.5t-15 -96.5q0 -27 3 -57z"/>
   <glyph glyph-name="f" horiz-adv-x="385" unicode="f" d="M125 193v277h-100v31l100 8v62q0 44 18.5 87.5t50 78t73.5 56t88 21.5q33 0 68 -11t64.5 -32t48 -51t18.5 -67q0 -19 -6.5 -35.5t-18 -28.5t-26.5 -19t-31 -7q-34 0 -51 22.5t-24.5 53.5t-9.5 63t-6 51q-8 36 -48 36q-31 0 -48.5 -19.5t-22.5 -55.5q-9 -72 -9 -118v-87 h104v-39h-104v-277q0 -38 4.5 -65.5t16 -45.5t31.5 -26.5t52 -8.5v-30h-332v30q58 0 79 35.5t21 110.5z"/>
   <glyph glyph-name="g" horiz-adv-x="523" unicode="g" d="M45 -61q-3 9 -3 21q0 30 16.5 61t48.5 45q-39 34 -61.5 83.5t-22.5 109.5q0 51 18.5 96t50 79.5t73.5 54.5t90 20q75 0 138 -48q13 15 28 24.5t38 9.5q16 0 39 -6v-75q-14 18 -28.5 29.5t-27.5 11.5q-16 0 -16 -14q0 -10 15 -32q47 -70 47 -150q0 -52 -19.5 -97.5 t-52 -79.5t-75 -54t-89.5 -20q-17 0 -32 4t-31 8.5t-33 8.5t-36 4q-26 0 -26 -31t57 -31h135q36 0 72 -5t64.5 -18.5t46.5 -37.5t18 -63q0 -47 -20.5 -76.5t-52 -47t-70.5 -24t-76 -6.5q-36 0 -73 6.5t-69 18.5t-57 29t-37 37q3 0 15.5 10t27 21.5t27 21.5t16.5 10 q7 -30 28.5 -52t48.5 -36.5t57 -22t55 -7.5q38 0 67 15.5t29 48.5q0 20 -14 30t-37 14.5t-51.5 5t-58.5 1.5q-31 1 -62 2.5t-57.5 10t-47 27.5t-30.5 55zM227 480h-6q-23 0 -38 -37t-15 -98q0 -55 11 -110t28 -99.5t39 -72t44 -27.5t37 37t15 98q0 52 -10.5 105.5t-27 97.5 t-37 73t-40.5 33z"/>
   <glyph glyph-name="h" horiz-adv-x="683" unicode="h" d="M117 193v378q0 7 -2.5 22t-8 30t-14.5 26t-21 11q-18 0 -43 -18v26l188 146h29v-272q0 -20 4 -33t21 -13q18 0 38.5 6.5t38.5 6.5q43 0 81.5 -13t67 -44t45.5 -82.5t17 -128.5v-48q0 -37 3.5 -64.5t14.5 -45.5t31.5 -27t54.5 -9v-30q-74 0 -120.5 8t-73.5 24t-38.5 39 t-15 52t-3 64t-2.5 76q-3 36 -7 72t-14 65t-26 47t-43 18q-20 0 -34 -10t-23 -25.5t-13 -34.5t-4 -37v-182q0 -38 4.5 -65.5t16 -45.5t31.5 -26.5t52 -8.5v-30h-332v30q58 0 79 35.5t21 110.5z"/>
   <glyph glyph-name="i" horiz-adv-x="379" unicode="i" d="M247 509l2 -316q0 -38 4.5 -65.5t15.5 -45.5t31.5 -26.5t52.5 -8.5v-30h-332v30q55 0 77.5 31.5t22.5 99.5v15l-2 73q0 7 -3 21.5t-8.5 29.5t-14 26t-20.5 11q-19 0 -43 -17v26l188 146h29zM161 814q18 0 33 -8.5t26.5 -23t18 -34.5t6.5 -42q0 -23 -6.5 -42.5t-18 -34 t-26.5 -23t-33 -8.5t-33 8.5t-26.5 23t-18 34t-6.5 42.5q0 22 6.5 42t18 34.5t26.5 23t33 8.5z"/>
   <glyph glyph-name="j" horiz-adv-x="258" unicode="j" d="M233 509q0 -140 1 -277.5t1 -276.5q0 -44 -19 -87.5t-50.5 -78t-73.5 -56t-87 -21.5q-34 0 -69 11t-64 32t-47.5 51t-18.5 68q0 19 6.5 35.5t17.5 28.5t26 19t32 7q22 0 36.5 -10t23.5 -26.5t13.5 -37.5t7.5 -42t4.5 -41t4.5 -34q8 -35 48 -35q60 0 71 74q5 36 7.5 66 t2.5 53q0 84 -1 167t-1 168q0 7 -2.5 21.5t-8.5 29.5t-14.5 26t-20.5 11q-19 0 -43 -17v26l188 146h29zM147 814q17 0 32 -8.5t26.5 -23t18.5 -34.5t7 -42q0 -23 -7 -42.5t-18.5 -34t-26.5 -23t-32 -8.5q-36 0 -60 31.5t-24 76.5t24 76.5t60 31.5z"/>
   <glyph glyph-name="k" horiz-adv-x="640" unicode="k" d="M253 814v-544l116 137q5 6 9 17t4 23q0 21 -35 23v31h209v-31q-78 -4 -115 -27t-37 -61q0 -15 10 -37l109 -233q12 -25 20.5 -38.5t18 -20t20.5 -8t27 -1.5v-27h-73q-27 0 -55 10t-52 26t-42.5 35.5t-26.5 38.5l-66 143q-21 -25 -31 -46.5t-10 -52.5q2 -63 23 -93.5 t81 -30.5v-30h-332v30q58 0 79 35.5t21 110.5v378q0 7 -2.5 22t-8 30t-14.5 26t-21 11q-18 0 -43 -18v26l188 146h29z"/>
   <glyph glyph-name="l" horiz-adv-x="375" unicode="l" d="M253 814v-621q0 -38 4.5 -65.5t16 -45.5t31.5 -26.5t52 -8.5v-30h-332v30q58 0 79 35.5t21 110.5v378q0 7 -2.5 22t-8 30t-14.5 26t-21 11q-18 0 -43 -18v26l188 146h29z"/>
   <glyph glyph-name="m" horiz-adv-x="931" unicode="m" d="M392 193v195q0 43 -24.5 68.5t-57.5 25.5q-24 0 -40.5 -9.5t-26 -24.5t-13.5 -34t-4 -39v-182q0 -66 14.5 -101t60.5 -42v-33h-303v30q58 0 79 35.5t21 110.5v46v-21v48q0 7 -2.5 21.5t-8 29.5t-14.5 26t-21 11q-19 0 -43 -17v26l188 146h29q0 -18 13 -18q7 0 16.5 3 t21.5 6t25 6t26 3q92 0 145 -49q14 14 32 23t37 14.5t36 8t28 2.5q45 0 85.5 -19t71 -50t49.5 -72t22 -84q1 0 1 -42v-48q0 -38 4.5 -65.5t16 -45.5t31.5 -26.5t52 -8.5v-30q-14 -1 -27 -1h-25q-70 0 -111 10.5t-62.5 30.5t-28 47.5t-6.5 62.5q0 22 3 45.5t3 48.5 q0 29 -6 66.5t-18.5 71t-31.5 56.5t-44 23q-19 -1 -31.5 -12t-19.5 -26.5t-9.5 -33t-2.5 -31.5v-182q0 -38 4.5 -65.5t16 -45.5t31.5 -26.5t52 -8.5v-30h-306v33q42 7 57 42t15 101z"/>
   <glyph glyph-name="n" horiz-adv-x="638" unicode="n" d="M101 193v73q0 7 -2.5 21.5t-8 29.5t-14.5 26t-21 11q-19 0 -43 -17v26l188 146h29q0 -19 13 -19q8 0 17 4q31 15 72 15q43 0 81.5 -12.5t67 -43t45.5 -82.5t17 -130v-48q0 -37 3.5 -64.5t14.5 -45.5t31.5 -27t54.5 -9v-30q-90 0 -142 10t-79 29.5t-34 47.5t-7 65 q0 22 3 46t3 50q0 46 -9 85t-23 67.5t-31.5 44t-34.5 15.5q-19 0 -31 -10.5t-19 -25.5t-10 -33t-3 -33v-182q0 -38 4.5 -65.5t16 -45.5t31.5 -26.5t52 -8.5v-30h-332v30q58 0 79 35.5t21 110.5z"/>
   <glyph glyph-name="o" horiz-adv-x="509" unicode="o" d="M257 509q48 0 90 -20t74 -54.5t50.5 -80t18.5 -95.5q0 -51 -18.5 -96t-50 -79.5t-74 -54.5t-90.5 -20t-90.5 20t-74 54t-49.5 79.5t-18 96.5t18.5 96t50 79.5t73.5 54.5t90 20zM229 480h-6q-23 0 -38 -37t-15 -98q0 -55 11 -110t28 -99.5t39 -72t44 -27.5t37 37t15 98 q0 52 -10.5 105.5t-27 97.5t-37 73t-40.5 33z"/>
   <glyph glyph-name="p" horiz-adv-x="562" unicode="p" d="M226 501q0 -17 10 -17q5 0 15 4t22 8.5t26.5 8.5t28.5 4q43 0 81.5 -20t67 -54.5t45.5 -80t17 -95.5q0 -51 -16.5 -96.5t-45.5 -79.5t-67.5 -54t-81.5 -20q-13 0 -26.5 4t-25.5 9.5t-21.5 9.5t-14.5 4q-14 0 -14 -25v-130q0 -37 4.5 -64.5t16 -45.5t31.5 -27t52 -9v-30 h-332v30q58 0 79 35.5t21 110.5v377q0 7 -2.5 22t-8 30t-14.5 26t-21 11q-18 0 -43 -18v27l188 145h29zM226 299v-37t2 -55t7.5 -61.5t15 -57.5t25 -42.5t38.5 -16.5q18 0 32.5 7t25 25.5t16.5 52t6 87.5t-7.5 103.5t-21.5 88t-33.5 61.5t-42.5 23q-19 0 -31 -10.5 t-19 -25.5t-10 -33t-3 -33v-76z"/>
   <glyph glyph-name="q" horiz-adv-x="513" unicode="q" d="M476 501v-612q0 -38 4 -65.5t15 -45.5t31.5 -26.5t52.5 -8.5v-31h-332v31q58 0 79 35.5t21 110.5v103q0 14 -6.5 24.5t-19.5 10.5q-3 0 -6.5 -1t-8.5 -3q-37 -14 -72 -14q-45 0 -83.5 20t-67 54t-44.5 79.5t-16 96.5t16.5 96t45 79.5t67 54.5t82.5 20q24 0 45 -4.5 t40 -11t36.5 -13.5t33.5 -12q4 -1 7 -1.5t6 -0.5q26 0 38 35h36zM347 175q0 36 0.5 66.5t-2 59t-10 57.5t-24.5 62q-14 27 -33.5 46.5t-42.5 19.5q-35 0 -51.5 -39t-16.5 -129q0 -55 7.5 -105t20.5 -87.5t31 -60t39 -22.5q42 0 62 37t20 95z"/>
   <glyph glyph-name="r" horiz-adv-x="560" unicode="r" d="M103 193v73q0 7 -2.5 21.5t-8 29.5t-14.5 26t-21 11q-19 0 -43 -17v26l188 146h29v-31q46 31 102 31q33 0 68.5 -11.5t64.5 -32.5t47.5 -51t18.5 -67q0 -19 -6.5 -35.5t-18 -28.5t-26.5 -19t-31 -7q-33 0 -50 22t-24.5 52.5t-10 63t-6.5 53.5q-8 35 -48 35q-62 0 -71 -74 q-9 -72 -9 -119v-97q0 -38 4.5 -65.5t16 -45.5t31.5 -26.5t52 -8.5v-30h-332v30q58 0 79 35.5t21 110.5z"/>
   <glyph glyph-name="s" horiz-adv-x="561" unicode="s" d="M122 39q-21 0 -39.5 -5t-26.5 -20h-33l73 174l26 1q9 -28 24.5 -54.5t37.5 -47.5t50 -33.5t63 -12.5q23 0 43.5 3.5t36 11t24.5 18.5t9 26q0 27 -16 45t-41.5 31t-57.5 23t-65 19t-65 20t-57 27.5t-40.5 41.5t-15.5 62q0 19 6.5 43.5t28 45.5t62 35.5t107.5 14.5 q43 0 68 -4.5t41.5 -10t31 -10t38.5 -4.5q19 0 36 5.5t25 19.5h33l-73 -175h-26q-10 29 -23.5 56.5t-33.5 49t-48.5 34.5t-68.5 13q-19 0 -36.5 -3t-31.5 -10t-22.5 -18t-8.5 -26q0 -20 17.5 -34t45 -24.5t61.5 -20t68 -20.5t68.5 -26t62 -36t44.5 -50.5t17 -68.5 q-1 -27 -11 -51.5t-36 -43t-73 -30t-121 -11.5q-39 0 -63.5 4.5t-42.5 10t-34 10t-38 5.5z"/>
   <glyph glyph-name="t" horiz-adv-x="318" unicode="t" d="M83 193v277h-60v31q43 5 69.5 20t44 38.5t28.5 56.5t23 74h28q-4 -26 -4.5 -51t-0.5 -43v-87h104v-39h-104v-277q0 -38 4.5 -65.5t16 -45.5t31.5 -26.5t52 -8.5v-30q-13 0 -26 -0.5t-27 -0.5q-33 0 -65 4.5t-57.5 22.5t-41 53.5t-15.5 96.5z"/>
   <glyph glyph-name="u" horiz-adv-x="691" unicode="u" d="M246 509l2 -254q1 -31 6 -66.5t19.5 -66t40 -50.5t67.5 -20q41 0 63 25.5t22 64.5v136q-1 9 -4 22t-9 25t-14.5 20.5t-18.5 8.5q-17 0 -42 -17v26l188 146h29v-316q0 -38 4.5 -65.5t16 -45.5t32 -26.5t52.5 -8.5v-30h-217h13q0 23 -27 23q-17 0 -44 -9q-63 -21 -118 -21 q-53 0 -89 12t-57.5 38.5t-31.5 69.5t-11 105l-1 43q-1 9 -4 22t-9 25t-14.5 20.5t-18.5 8.5q-17 0 -42 -17v26l188 146h29z"/>
   <glyph glyph-name="v" horiz-adv-x="677" unicode="v" d="M25 501h307v-31q-21 -2 -36.5 -16t-15.5 -33q0 -7 3 -11l109 -222l95 218q2 6 2 11q0 18 -19.5 35.5t-46.5 17.5v31h233v-31q-43 0 -78 -10t-48 -40l-182 -411h-34l-197 413q-21 43 -92 48v31z"/>
   <glyph glyph-name="w" horiz-adv-x="927" unicode="w" d="M23 501h307v-31q-21 -2 -36.5 -16t-15.5 -33q0 -7 3 -11l109 -222l101 231h38l113 -231l96 218q2 6 2 10q0 18 -19.5 36t-47.5 18v31h233v-31q-42 0 -77.5 -10t-47.5 -40l-182 -411h-34l-114 237l-105 -237h-34l-197 413q-21 43 -92 48v31z"/>
   <glyph glyph-name="x" horiz-adv-x="679" unicode="x" d="M32 501h295v-31q-17 0 -26 -10.5t-9 -21.5q0 -7 5 -14l75 -95l87 95q5 5 5 11q0 11 -18.5 23t-39.5 12v31h219v-31q-84 0 -125 -46l-108 -120l167 -210q17 -21 37.5 -34.5t56.5 -12.5l1 -30h-316l-1 30q23 0 36.5 11.5t13.5 23.5q0 7 -4 12l-85 106l-96 -106 q-5 -7 -5 -12q0 -13 17.5 -24t44.5 -11v-30h-240v30q35 0 72 7t67 40l120 131l-159 199q-18 21 -34.5 33.5t-52.5 12.5v31z"/>
   <glyph glyph-name="y" horiz-adv-x="681" unicode="y" d="M26 501h307v-31q-23 -2 -37.5 -17.5t-14.5 -32.5q0 -6 3 -10l109 -222l96 218q2 6 2 10q0 18 -19.5 36t-47.5 18v31h233v-31q-42 0 -77.5 -10t-47.5 -40l-182 -411l-72 -158q-38 -81 -106 -81q-36 0 -63.5 14.5t-46.5 36t-29 47.5t-10 50q0 36 22 60.5t55 24.5 q13 0 26.5 -6t25 -15.5t18.5 -22.5t7 -28q0 -8 -3 -15l-6 -14t-6 -15.5t-3 -20.5q0 -43 33 -43q19 0 36 15t31 48l55 125l-196 411q-21 43 -92 48v31z"/>
   <glyph glyph-name="z" horiz-adv-x="631" unicode="z" d="M248 501h324q-1 -24 -12 -43t-26 -35l-348 -376h202q39 0 92.5 18t102.5 60l25 -21l-142 -125l-25 21q4 4 4 6q0 3 -8 5.5t-18.5 3.5t-20.5 1.5t-14 0.5h-367q-1 23 12.5 44t31.5 40l346 369h-160q-40 0 -94 -18t-108 -62l-24 21l142 126l25 -22q-4 -4 -4 -7t6 -4.5 t15.5 -2t21 -0.5h21.5z"/>
   <glyph glyph-name="germandbls" horiz-adv-x="614" unicode="ß" d="M144 193v378q0 44 18.5 87.5t50 78t73.5 56t88 21.5q34 0 63 -11t49.5 -32t32 -50.5t11.5 -66.5q0 -30 -8 -58t-23.5 -50t-38 -36t-50.5 -15q40 -3 72 -21.5t55 -50t35.5 -73.5t12.5 -91q0 -51 -16.5 -96.5t-45.5 -79.5t-67.5 -54t-81.5 -20q-18 0 -34.5 5.5t-31 12.5 t-27 12.5t-22.5 5.5q-9 0 -17.5 -4t-19 -8.5t-23.5 -8.5t-31 -5q-17 -1 -48 -1.5t-76 -0.5v30q58 0 79 35.5t21 110.5zM332 501q38 9 61.5 55.5t23.5 118.5q-1 19 -3.5 39.5t-9.5 37t-19.5 27t-32.5 10.5q-31 0 -48.5 -19.5t-22.5 -55.5q-9 -72 -9 -118v-403q0 -12 5 -39 t16 -54.5t28 -48.5t42 -21q45 0 62.5 41.5t17.5 109.5q0 70 -9.5 126t-25 95t-35 60t-38.5 21h-3v18z"/>
   <glyph glyph-name="period" horiz-adv-x="210" unicode="." d="M101 215q18 0 33 -8.5t26.5 -23t18 -34.5t6.5 -42q0 -23 -6.5 -42.5t-18 -34t-26.5 -23t-33 -8.5t-33 8.5t-26.5 23t-18 34t-6.5 42.5q0 22 6.5 42t18 34.5t26.5 23t33 8.5z"/>
   <glyph glyph-name="colon" horiz-adv-x="210" unicode=":" d="M101 518q18 0 33 -8.5t26.5 -23t18 -34.5t6.5 -42q0 -23 -6.5 -42.5t-18 -34t-26.5 -23t-33 -8.5t-33 8.5t-26.5 23t-18 34t-6.5 42.5q0 22 6.5 42t18 34.5t26.5 23t33 8.5zM101 215q18 0 33 -8.5t26.5 -23t18 -34.5t6.5 -42q0 -23 -6.5 -42.5t-18 -34t-26.5 -23 t-33 -8.5t-33 8.5t-26.5 23t-18 34t-6.5 42.5q0 22 6.5 42t18 34.5t26.5 23t33 8.5z"/>
   <glyph glyph-name="comma" horiz-adv-x="232" unicode="," d="M56 -75q18 8 30 24t12 38q0 32 -45 63q-30 19 -30 57t21.5 62t54.5 24q19 0 37 -10t32 -26.5t22.5 -38.5t8.5 -46q0 -26 -9.5 -50.5t-25.5 -46t-36.5 -38.5t-41.5 -27z"/>
   <glyph glyph-name="semicolon" horiz-adv-x="228" unicode=";" d="M56 -75q18 8 30 24t12 38q0 32 -45 63q-30 19 -30 57t21.5 62t54.5 24q19 0 37 -10t32 -26.5t22.5 -38.5t8.5 -46q0 -26 -9.5 -50.5t-25.5 -46t-36.5 -38.5t-41.5 -27zM101 518q18 0 33 -8.5t26.5 -23t18 -34.5t6.5 -42q0 -23 -6.5 -42.5t-18 -34t-26.5 -23t-33 -8.5 t-33 8.5t-26.5 23t-18 34t-6.5 42.5q0 22 6.5 42t18 34.5t26.5 23t33 8.5z"/>
   <glyph glyph-name="quotesinglbase" horiz-adv-x="236" unicode="‚" d="M56 -75q18 8 30 24t12 38q0 32 -45 63q-30 19 -30 57t21.5 62t54.5 24q19 0 37 -10t32 -26.5t22.5 -38.5t8.5 -46q0 -26 -9.5 -50.5t-25.5 -46t-36.5 -38.5t-41.5 -27z"/>
   <glyph glyph-name="quotedblbase" horiz-adv-x="434" unicode="„" d="M267 -75q18 8 30 24t12 38q0 32 -45 63q-30 19 -30 57t21.5 62t54.5 24q19 0 37 -10t32 -26.5t22.5 -38.5t8.5 -46q0 -26 -9.5 -50.5t-25.5 -46t-36.5 -38.5t-41.5 -27zM56 -75q18 8 30 24t12 38q0 32 -45 63q-30 19 -30 57t21.5 62t54.5 24q19 0 37 -10t32 -26.5 t22.5 -38.5t8.5 -46q0 -26 -9.5 -50.5t-25.5 -46t-36.5 -38.5t-41.5 -27z"/>
   <glyph glyph-name="quotedblright" horiz-adv-x="440" unicode="”" d="M269 533q18 8 30 23.5t12 37.5q0 33 -45 64q-30 19 -30 57t21.5 62t54.5 24q19 0 37 -10t32 -26.5t22.5 -38.5t8.5 -46q0 -26 -9.5 -50.5t-25.5 -46t-36.5 -38.5t-41.5 -27zM54 533q18 8 30 23.5t12 37.5q0 33 -45 64q-30 19 -30 57t21.5 62t54.5 24q19 0 37 -10 t32 -26.5t22.5 -38.5t8.5 -46q0 -26 -9.5 -50.5t-25.5 -46t-36.5 -38.5t-41.5 -27z"/>
   <glyph glyph-name="quoteright" horiz-adv-x="236" unicode="’" d="M54 533q18 8 30 23.5t12 37.5q0 33 -45 64q-30 19 -30 57t21.5 62t54.5 24q19 0 37 -10t32 -26.5t22.5 -38.5t8.5 -46q0 -26 -9.5 -50.5t-25.5 -46t-36.5 -38.5t-41.5 -27z"/>
   <glyph glyph-name="quotedbl" horiz-adv-x="440" unicode='&quot;' d="M269 533q18 8 30 23.5t12 37.5q0 33 -45 64q-30 19 -30 57t21.5 62t54.5 24q19 0 37 -10t32 -26.5t22.5 -38.5t8.5 -46q0 -26 -9.5 -50.5t-25.5 -46t-36.5 -38.5t-41.5 -27zM54 533q18 8 30 23.5t12 37.5q0 33 -45 64q-30 19 -30 57t21.5 62t54.5 24q19 0 37 -10 t32 -26.5t22.5 -38.5t8.5 -46q0 -26 -9.5 -50.5t-25.5 -46t-36.5 -38.5t-41.5 -27z"/>
   <glyph glyph-name="quotesingle" horiz-adv-x="236" unicode="&apos;" d="M54 533q18 8 30 23.5t12 37.5q0 33 -45 64q-30 19 -30 57t21.5 62t54.5 24q19 0 37 -10t32 -26.5t22.5 -38.5t8.5 -46q0 -26 -9.5 -50.5t-25.5 -46t-36.5 -38.5t-41.5 -27z"/>
   <glyph glyph-name="quotedblleft" horiz-adv-x="440" unicode="“" d="M177 794q-18 -9 -30 -25t-12 -37q0 -33 45 -63q30 -20 30 -58q0 -37 -21.5 -61.5t-54.5 -24.5q-20 0 -38 10t-32 27t-22.5 39.5t-8.5 46.5q0 26 10 50.5t26 46t36.5 38t41.5 26.5zM392 794q-18 -9 -30 -25t-12 -37q0 -33 45 -63q30 -20 30 -58q0 -37 -21.5 -61.5 t-54.5 -24.5q-20 0 -38 10t-32 27t-22.5 39.5t-8.5 46.5q0 26 10 50.5t26 46t36.5 38t41.5 26.5z"/>
   <glyph glyph-name="quoteleft" horiz-adv-x="236" unicode="‘" d="M177 794q-18 -9 -30 -25t-12 -37q0 -33 45 -63q30 -20 30 -58q0 -37 -21.5 -61.5t-54.5 -24.5q-20 0 -38 10t-32 27t-22.5 39.5t-8.5 46.5q0 26 10 50.5t26 46t36.5 38t41.5 26.5z"/>
   <glyph glyph-name="exclam" horiz-adv-x="210" unicode="!" d="M101 215q18 0 33 -8.5t26.5 -23t18 -34.5t6.5 -42q0 -23 -6.5 -42.5t-18 -34t-26.5 -23t-33 -8.5t-33 8.5t-26.5 23t-18 34t-6.5 42.5q0 22 6.5 42t18 34.5t26.5 23t33 8.5zM19 800h165l-55 -487h-60z"/>
   <glyph glyph-name="dollar" horiz-adv-x="666" unicode="$" d="M347 14h-45v68q-30 1 -49 8.5t-32.5 15.5t-26 14.5t-28.5 6.5q-23 0 -48 -45h-52l81 152h38q11 -30 20.5 -49.5t22.5 -31.5t30.5 -18t43.5 -9v232q-3 0 -7 2q-26 5 -50 15t-49 16q-20 7 -38 16.5t-31.5 23.5t-21.5 32.5t-8 44.5q0 35 20 66.5t50 56t66 40t69 18.5v103h45 v-103q26 -2 43.5 -9t32 -14.5t27 -13.5t27.5 -6q24 0 49 44h51l-80 -151h-38q-11 28 -22 47.5t-24 31.5t-29 18.5t-37 9.5v-184l14 -2q21 -5 44 -11.5t45.5 -15.5t43 -22.5t37.5 -31.5q10 -13 16.5 -28t10 -30t4.5 -29.5t1 -26.5q0 -34 -19.5 -65.5t-50.5 -56t-69.5 -40.5 t-76.5 -20v-69zM436 178q5 9 10 27.5t5 28.5q0 14 -3 28.5t-11 27.5l1 -1q-16 23 -40.5 35.5t-50.5 20.5v-219q32 5 55.5 19.5t33.5 32.5zM208 600q-15 -21 -15 -45q0 -10 3.5 -20.5t8.5 -20.5l-1 1q12 -16 29 -20.5t36 -9.5l16 -6t17 -5v172q-67 -6 -94 -46z"/>
   <glyph glyph-name="periodcentered" horiz-adv-x="210" unicode="·" d="M101 518q18 0 33 -8.5t26.5 -23t18 -34.5t6.5 -42q0 -23 -6.5 -42.5t-18 -34t-26.5 -23t-33 -8.5t-33 8.5t-26.5 23t-18 34t-6.5 42.5q0 22 6.5 42t18 34.5t26.5 23t33 8.5z"/>
   <glyph glyph-name="dieresis" horiz-adv-x="379" unicode="¨" d="M417 814q18 0 33 -8.5t26.5 -23t18 -34.5t6.5 -42q0 -23 -6.5 -42.5t-18 -34t-26.5 -23t-33 -8.5t-33 8.5t-26.5 23t-18 34t-6.5 42.5q0 22 6.5 42t18 34.5t26.5 23t33 8.5zM161 814q18 0 33 -8.5t26.5 -23t18 -34.5t6.5 -42q0 -23 -6.5 -42.5t-18 -34t-26.5 -23 t-33 -8.5t-33 8.5t-26.5 23t-18 34t-6.5 42.5q0 22 6.5 42t18 34.5t26.5 23t33 8.5z"/>
   <glyph glyph-name="adieresis" horiz-adv-x="572" unicode="ä" d="M456 193q0 -75 20.5 -110.5t79.5 -35.5v-30q-145 0 -188 36q-3 1 -6.5 1h-6.5q-16 0 -24.5 -7t-23.5 -15.5t-44 -15.5t-86 -7q-50 0 -81 11.5t-48.5 30t-24 42t-6.5 46.5q0 18 6 38.5t19 39.5t34 34.5t50 22.5q85 21 141 27q53 6 53 94q0 16 -6 32t-16 28.5t-23 20 t-27 7.5q-26 0 -37 -15.5t-16 -38.5q-10 -42 -33 -60.5t-48 -18.5q-24 0 -43.5 15t-19.5 39q0 18 15.5 37t40 34t56 24.5t63.5 9.5q46 0 88 -22t73.5 -56.5t50 -78t18.5 -86.5v-73zM328 309q-11 -15 -29.5 -23t-39.5 -13t-42.5 -9.5t-38.5 -13t-28 -22.5t-11 -39 q0 -40 9.5 -69t23.5 -47.5t30.5 -27t30.5 -8.5q18 0 35 8.5t30.5 23t21.5 33.5t8 40v167zM375 814q18 0 33 -8.5t26.5 -23t18 -34.5t6.5 -42q0 -23 -6.5 -42.5t-18 -34t-26.5 -23t-33 -8.5t-33 8.5t-26.5 23t-18 34t-6.5 42.5q0 22 6.5 42t18 34.5t26.5 23t33 8.5zM119 814 q18 0 33 -8.5t26.5 -23t18 -34.5t6.5 -42q0 -23 -6.5 -42.5t-18 -34t-26.5 -23t-33 -8.5t-33 8.5t-26.5 23t-18 34t-6.5 42.5q0 22 6.5 42t18 34.5t26.5 23t33 8.5z"/>
   <glyph glyph-name="edieresis" horiz-adv-x="500" unicode="ë" d="M253 509q36 0 70 -12t62.5 -33.5t50 -51t34.5 -63.5q4 -12 4 -26q0 -13 -3.5 -24t-17 -18.5t-41 -11.5t-74.5 -4h-166q11 -94 41.5 -146t81.5 -52q26 0 49 8t42 21t32.5 29.5t21.5 33.5l19 -15q-1 -3 -2 -5l-2 -4q-30 -57 -83 -91.5t-119 -34.5q-48 0 -90.5 20t-74 54 t-49.5 79.5t-18 96.5t18.5 96t50 79.5t73.5 54.5t90 20zM169 290h111q17 0 28 5.5t11 24.5q0 5 -1 11t-3 14q-19 60 -44 97.5t-51 37.5q-24 0 -39 -36.5t-15 -96.5q0 -27 3 -57zM379 814q18 0 33 -8.5t26.5 -23t18 -34.5t6.5 -42q0 -23 -6.5 -42.5t-18 -34t-26.5 -23 t-33 -8.5t-33 8.5t-26.5 23t-18 34t-6.5 42.5q0 22 6.5 42t18 34.5t26.5 23t33 8.5zM123 814q18 0 33 -8.5t26.5 -23t18 -34.5t6.5 -42q0 -23 -6.5 -42.5t-18 -34t-26.5 -23t-33 -8.5t-33 8.5t-26.5 23t-18 34t-6.5 42.5q0 22 6.5 42t18 34.5t26.5 23t33 8.5z"/>
   <glyph glyph-name="odieresis" horiz-adv-x="509" unicode="ö" d="M257 509q48 0 90 -20t74 -54.5t50.5 -80t18.5 -95.5q0 -51 -18.5 -96t-50 -79.5t-74 -54.5t-90.5 -20t-90.5 20t-74 54t-49.5 79.5t-18 96.5t18.5 96t50 79.5t73.5 54.5t90 20zM229 480h-6q-23 0 -38 -37t-15 -98q0 -55 11 -110t28 -99.5t39 -72t44 -27.5t37 37t15 98 q0 52 -10.5 105.5t-27 97.5t-37 73t-40.5 33zM384 814q18 0 33 -8.5t26.5 -23t18 -34.5t6.5 -42q0 -23 -6.5 -42.5t-18 -34t-26.5 -23t-33 -8.5t-33 8.5t-26.5 23t-18 34t-6.5 42.5q0 22 6.5 42t18 34.5t26.5 23t33 8.5zM128 814q18 0 33 -8.5t26.5 -23t18 -34.5t6.5 -42 q0 -23 -6.5 -42.5t-18 -34t-26.5 -23t-33 -8.5t-33 8.5t-26.5 23t-18 34t-6.5 42.5q0 22 6.5 42t18 34.5t26.5 23t33 8.5z"/>
   <glyph glyph-name="udieresis" horiz-adv-x="725" unicode="ü" d="M246 509l2 -254q1 -31 6 -66.5t19.5 -66t40 -50.5t67.5 -20q41 0 63 25.5t22 64.5v136q-1 9 -4 22t-9 25t-14.5 20.5t-18.5 8.5q-17 0 -42 -17v26l188 146h29v-316q0 -38 4.5 -65.5t16 -45.5t32 -26.5t52.5 -8.5v-30h-217h13q0 23 -27 23q-17 0 -44 -9q-63 -21 -118 -21 q-53 0 -89 12t-57.5 38.5t-31.5 69.5t-11 105l-1 43q-1 9 -4 22t-9 25t-14.5 20.5t-18.5 8.5q-17 0 -42 -17v26l188 146h29zM490 814q18 0 33 -8.5t26.5 -23t18 -34.5t6.5 -42q0 -23 -6.5 -42.5t-18 -34t-26.5 -23t-33 -8.5t-33 8.5t-26.5 23t-18 34t-6.5 42.5q0 22 6.5 42 t18 34.5t26.5 23t33 8.5zM234 814q18 0 33 -8.5t26.5 -23t18 -34.5t6.5 -42q0 -23 -6.5 -42.5t-18 -34t-26.5 -23t-33 -8.5t-33 8.5t-26.5 23t-18 34t-6.5 42.5q0 22 6.5 42t18 34.5t26.5 23t33 8.5z"/>
   <glyph glyph-name="idieresis" horiz-adv-x="379" unicode="ï" d="M247 509l2 -316q0 -38 4.5 -65.5t15.5 -45.5t31.5 -26.5t52.5 -8.5v-30h-332v30q55 0 77.5 31.5t22.5 99.5v15l-2 73q0 7 -3 21.5t-8.5 29.5t-14 26t-20.5 11q-19 0 -43 -17v26l188 146h29zM275 793q18 0 33 -8.5t26.5 -23t18 -34.5t6.5 -42q0 -23 -6.5 -42.5t-18 -34 t-26.5 -23t-33 -8.5t-33 8.5t-26.5 23t-18 34t-6.5 42.5q0 22 6.5 42t18 34.5t26.5 23t33 8.5zM81 793q18 0 33 -8.5t26.5 -23t18 -34.5t6.5 -42q0 -23 -6.5 -42.5t-18 -34t-26.5 -23t-33 -8.5t-33 8.5t-26.5 23t-18 34t-6.5 42.5q0 22 6.5 42t18 34.5t26.5 23t33 8.5z"/>
   <glyph glyph-name="ydieresis" horiz-adv-x="681" unicode="ÿ" d="M26 501h307v-31q-23 -2 -37.5 -17.5t-14.5 -32.5q0 -6 3 -10l109 -222l96 218q2 6 2 10q0 18 -19.5 36t-47.5 18v31h233v-31q-42 0 -77.5 -10t-47.5 -40l-182 -411l-72 -158q-38 -81 -106 -81q-36 0 -63.5 14.5t-46.5 36t-29 47.5t-10 50q0 36 22 60.5t55 24.5 q13 0 26.5 -6t25 -15.5t18.5 -22.5t7 -28q0 -8 -3 -15l-6 -14t-6 -15.5t-3 -20.5q0 -43 33 -43q19 0 36 15t31 48l55 125l-196 411q-21 43 -92 48v31zM468 814q18 0 33 -8.5t26.5 -23t18 -34.5t6.5 -42q0 -23 -6.5 -42.5t-18 -34t-26.5 -23t-33 -8.5t-33 8.5t-26.5 23 t-18 34t-6.5 42.5q0 22 6.5 42t18 34.5t26.5 23t33 8.5zM212 814q18 0 33 -8.5t26.5 -23t18 -34.5t6.5 -42q0 -23 -6.5 -42.5t-18 -34t-26.5 -23t-33 -8.5t-33 8.5t-26.5 23t-18 34t-6.5 42.5q0 22 6.5 42t18 34.5t26.5 23t33 8.5z"/>
   <glyph glyph-name="Adieresis" horiz-adv-x="838" unicode="Ä" d="M13 45q15 0 30.5 2t30 7t25.5 13.5t16 20.5l275 677h37l275 -677q10 -25 44.5 -34t76.5 -9v-29h-362v29q30 0 55.5 9t25.5 26q0 2 -2 8l-23 55q-6 14 -20 31t-49 25q-52 13 -103 13q-25 0 -50.5 -3.5t-48.5 -9.5q-26 -8 -43.5 -26.5t-17.5 -28.5l-23 -56q-2 -6 -2 -9 q0 -9 7.5 -15t19.5 -10.5t26 -6.5t26 -2v-29h-226v29zM214 215q33 13 67 20t69 7t69 -7t69 -20q-36 88 -68.5 169t-68.5 169zM546 910q18 0 33 -8.5t26.5 -23t18 -34.5t6.5 -42q0 -23 -6.5 -42.5t-18 -34t-26.5 -23t-33 -8.5t-33 8.5t-26.5 23t-18 34t-6.5 42.5q0 22 6.5 42 t18 34.5t26.5 23t33 8.5zM290 910q18 0 33 -8.5t26.5 -23t18 -34.5t6.5 -42q0 -23 -6.5 -42.5t-18 -34t-26.5 -23t-33 -8.5t-33 8.5t-26.5 23t-18 34t-6.5 42.5q0 22 6.5 42t18 34.5t26.5 23t33 8.5z"/>
   <glyph glyph-name="Edieresis" horiz-adv-x="664" unicode="Ë" d="M220 455h191q25 0 48 17t45 40l29 -23q-8 -10 -16 -19.5t-20.5 -24.5t-31 -38.5t-48.5 -61.5l-29 22q13 13 13 42q0 15 -7 15h-174v-377h223q18 0 40.5 8t46 21.5t46.5 31.5t42 38l30 -23l-114 -140l-42 2q4 4 4 8q0 10 -17 17t-39 7h-424v30q7 0 18.5 3t22 8.5t18 13.5 t7.5 17v616q0 7 -6.5 13t-16 9.5t-21.5 5.5t-22 2v30h424q22 0 39 7t17 17q0 5 -4 9l42 2l114 -141l-30 -23q-18 19 -41 37t-47 31.5t-46.5 22t-40.5 8.5h-223v-280zM434 1011q18 0 33 -8.5t26.5 -23t18 -34.5t6.5 -42q0 -23 -6.5 -42.5t-18 -34t-26.5 -23t-33 -8.5t-33 8.5 t-26.5 23t-18 34t-6.5 42.5q0 22 6.5 42t18 34.5t26.5 23t33 8.5zM178 1011q18 0 33 -8.5t26.5 -23t18 -34.5t6.5 -42q0 -23 -6.5 -42.5t-18 -34t-26.5 -23t-33 -8.5t-33 8.5t-26.5 23t-18 34t-6.5 42.5q0 22 6.5 42t18 34.5t26.5 23t33 8.5z"/>
   <glyph glyph-name="Idieresis" horiz-adv-x="302" unicode="Ï" d="M292 735q-25 0 -47.5 -7.5t-22.5 -22.5v-616q0 -10 7.5 -17.5t18 -13t23 -8.5t21.5 -3v-30h-274v30q7 0 18.5 3t22 8.5t18 13.5t7.5 17v616q0 7 -6.5 13t-16 9.5t-21.5 5.5t-22 2v30h274v-30zM280 1009q18 0 33 -8.5t26.5 -23t18 -34.5t6.5 -42q0 -23 -6.5 -42.5t-18 -34 t-26.5 -23t-33 -8.5t-33 8.5t-26.5 23t-18 34t-6.5 42.5q0 22 6.5 42t18 34.5t26.5 23t33 8.5zM24 1009q18 0 33 -8.5t26.5 -23t18 -34.5t6.5 -42q0 -23 -6.5 -42.5t-18 -34t-26.5 -23t-33 -8.5t-33 8.5t-26.5 23t-18 34t-6.5 42.5q0 22 6.5 42t18 34.5t26.5 23t33 8.5z"/>
   <glyph glyph-name="Odieresis" d="M343 775q68 0 127 -31t102.5 -83.5t68 -122t24.5 -146.5t-24.5 -146.5t-68 -122t-102.5 -83.5t-127 -31q-69 0 -128 31t-102.5 83.5t-68 122t-24.5 146.5q0 76 24.5 145.5t68 122.5t102.5 84t128 31zM304 742q-30 0 -56.5 -13t-45.5 -41t-30 -72t-11 -106q0 -26 2 -56 t6 -62q22 -179 77.5 -264t134.5 -85q30 0 56 11.5t45 37.5t30 68t11 104q0 65 -8 128t-20.5 116t-28 94t-31.5 63q-56 77 -131 77zM464 981q18 0 33 -8.5t26.5 -23t18 -34.5t6.5 -42q0 -23 -6.5 -42.5t-18 -34t-26.5 -23t-33 -8.5t-33 8.5t-26.5 23t-18 34t-6.5 42.5 q0 22 6.5 42t18 34.5t26.5 23t33 8.5zM208 981q18 0 33 -8.5t26.5 -23t18 -34.5t6.5 -42q0 -23 -6.5 -42.5t-18 -34t-26.5 -23t-33 -8.5t-33 8.5t-26.5 23t-18 34t-6.5 42.5q0 22 6.5 42t18 34.5t26.5 23t33 8.5z" unicode="Ö"/>
   <glyph glyph-name="Udieresis" horiz-adv-x="814" unicode="Ü" d="M84 705q0 7 -6.5 13t-16 9.5t-21.5 5.5t-22 2v30h271v-30q-11 0 -23 -2t-21.5 -5.5t-16 -9.5t-6.5 -13v-210q0 -99 16 -182t42.5 -143.5t59.5 -94.5t67 -34t67 27.5t59 83.5t41.5 141.5t15.5 202.5v209q0 7 -6.5 13t-16 9.5t-21.5 5.5t-22 2v30h271v-30q-11 0 -23 -2 t-21.5 -5.5t-16 -9.5t-6.5 -13v-210q0 -117 -27 -208t-72 -152.5t-103 -93.5t-119 -32t-119 32t-103.5 94.5t-73 153.5t-27.5 209v207zM526 1009q18 0 33 -8.5t26.5 -23t18 -34.5t6.5 -42q0 -23 -6.5 -42.5t-18 -34t-26.5 -23t-33 -8.5t-33 8.5t-26.5 23t-18 34t-6.5 42.5 q0 22 6.5 42t18 34.5t26.5 23t33 8.5zM270 1009q18 0 33 -8.5t26.5 -23t18 -34.5t6.5 -42q0 -23 -6.5 -42.5t-18 -34t-26.5 -23t-33 -8.5t-33 8.5t-26.5 23t-18 34t-6.5 42.5q0 22 6.5 42t18 34.5t26.5 23t33 8.5z"/>
   <glyph glyph-name="asciitilde" horiz-adv-x="627" unicode="~" d="M118 289q-54 62 -75.5 108t-21.5 78q0 28 13 50t33 38t43.5 24.5t43.5 8.5q18 0 40 -5.5t45 -14.5t45.5 -20t41.5 -23q24 -15 48.5 -31.5t47 -30t42 -22t33.5 -8.5q19 0 32.5 13t13.5 30q0 18 -12 40t-26 40l20 17q38 -47 54.5 -83.5t16.5 -65.5q0 -32 -12 -56 t-30.5 -40.5t-39.5 -24.5t-39 -8q-17 0 -36 6.5t-39 16t-40 22t-38 24.5q-20 13 -42 27t-43 25.5t-40 19t-33 7.5q-10 0 -21 -3.5t-20.5 -10.5t-15.5 -17t-6 -23q0 -20 11.5 -43.5t31.5 -46.5z"/>
   <glyph glyph-name="tilde" horiz-adv-x="627" unicode="˜" d="M-126 603q-36 40 -50 70.5t-14 51.5q0 18 8.5 32.5t21.5 25t28 16.5t29 6q25 0 56 -13.5t57 -28.5q16 -10 32 -21t30.5 -20t27.5 -14.5t22 -5.5q14 0 22 9t8 20q0 12 -7 26t-17 26l13 11q25 -30 35.5 -53.5t10.5 -43.5q0 -21 -8 -37t-19.5 -26.5t-25 -16t-25.5 -5.5 q-21 0 -49 15t-56.5 33.5t-54.5 33.5t-44 15q-13 0 -28 -9t-15 -26q0 -27 29 -59z"/>
   <glyph glyph-name="ntilde" horiz-adv-x="688" unicode="ñ" d="M119 193v73q0 7 -2.5 21.5t-8 29.5t-14.5 26t-21 11q-19 0 -43 -17v26l188 146h29q0 -19 13 -19q8 0 17 4q31 15 72 15q43 0 81.5 -12.5t67 -43t45.5 -82.5t17 -130v-48q0 -37 3.5 -64.5t14.5 -45.5t31.5 -27t54.5 -9v-30q-90 0 -142 10t-79 29.5t-34 47.5t-7 65 q0 22 3 46t3 50q0 46 -9 85t-23 67.5t-31.5 44t-34.5 15.5q-19 0 -31 -10.5t-19 -25.5t-10 -33t-3 -33v-182q0 -38 4.5 -65.5t16 -45.5t31.5 -26.5t52 -8.5v-30h-332v30q58 0 79 35.5t21 110.5zM183 536q-36 40 -50 70.5t-14 51.5q0 18 8.5 32.5t21.5 25t28 16.5t29 6 q25 0 56 -13.5t57 -28.5q16 -10 32 -21t30.5 -20t27.5 -14.5t22 -5.5q14 0 22 9t8 20q0 12 -7 26t-17 26l13 11q25 -30 35.5 -53.5t10.5 -43.5q0 -21 -8 -37t-19.5 -26.5t-25 -16t-25.5 -5.5q-21 0 -49 15t-56.5 33.5t-54.5 33.5t-44 15q-13 0 -28 -9t-15 -26q0 -27 29 -59z "/>
   <glyph glyph-name="otilde" horiz-adv-x="509" unicode="õ" d="M257 509q48 0 90 -20t74 -54.5t50.5 -80t18.5 -95.5q0 -51 -18.5 -96t-50 -79.5t-74 -54.5t-90.5 -20t-90.5 20t-74 54t-49.5 79.5t-18 96.5t18.5 96t50 79.5t73.5 54.5t90 20zM229 480h-6q-23 0 -38 -37t-15 -98q0 -55 11 -110t28 -99.5t39 -72t44 -27.5t37 37t15 98 q0 52 -10.5 105.5t-27 97.5t-37 73t-40.5 33zM124 506q-36 40 -50 70.5t-14 51.5q0 18 8.5 32.5t21.5 25t28 16.5t29 6q25 0 56 -13.5t57 -28.5q16 -10 32 -21t30.5 -20t27.5 -14.5t22 -5.5q14 0 22 9t8 20q0 12 -7 26t-17 26l13 11q25 -30 35.5 -53.5t10.5 -43.5 q0 -21 -8 -37t-19.5 -26.5t-25 -16t-25.5 -5.5q-21 0 -49 15t-56.5 33.5t-54.5 33.5t-44 15q-13 0 -28 -9t-15 -26q0 -27 29 -59z"/>
   <glyph glyph-name="atilde" horiz-adv-x="572" unicode="ã" d="M456 193q0 -75 20.5 -110.5t79.5 -35.5v-30q-145 0 -188 36q-3 1 -6.5 1h-6.5q-16 0 -24.5 -7t-23.5 -15.5t-44 -15.5t-86 -7q-50 0 -81 11.5t-48.5 30t-24 42t-6.5 46.5q0 18 6 38.5t19 39.5t34 34.5t50 22.5q85 21 141 27q53 6 53 94q0 16 -6 32t-16 28.5t-23 20 t-27 7.5q-26 0 -37 -15.5t-16 -38.5q-10 -42 -33 -60.5t-48 -18.5q-24 0 -43.5 15t-19.5 39q0 18 15.5 37t40 34t56 24.5t63.5 9.5q46 0 88 -22t73.5 -56.5t50 -78t18.5 -86.5v-73zM328 309q-11 -15 -29.5 -23t-39.5 -13t-42.5 -9.5t-38.5 -13t-28 -22.5t-11 -39 q0 -40 9.5 -69t23.5 -47.5t30.5 -27t30.5 -8.5q18 0 35 8.5t30.5 23t21.5 33.5t8 40v167zM115 538q-36 40 -50 70.5t-14 51.5q0 18 8.5 32.5t21.5 25t28 16.5t29 6q25 0 56 -13.5t57 -28.5q16 -10 32 -21t30.5 -20t27.5 -14.5t22 -5.5q14 0 22 9t8 20q0 12 -7 26t-17 26 l13 11q25 -30 35.5 -53.5t10.5 -43.5q0 -21 -8 -37t-19.5 -26.5t-25 -16t-25.5 -5.5q-21 0 -49 15t-56.5 33.5t-54.5 33.5t-44 15q-13 0 -28 -9t-15 -26q0 -27 29 -59z"/>
   <glyph glyph-name="Otilde" d="M343 775q68 0 127 -31t102.5 -83.5t68 -122t24.5 -146.5t-24.5 -146.5t-68 -122t-102.5 -83.5t-127 -31q-69 0 -128 31t-102.5 83.5t-68 122t-24.5 146.5q0 76 24.5 145.5t68 122.5t102.5 84t128 31zM304 742q-30 0 -56.5 -13t-45.5 -41t-30 -72t-11 -106q0 -26 2 -56 t6 -62q22 -179 77.5 -264t134.5 -85q30 0 56 11.5t45 37.5t30 68t11 104q0 65 -8 128t-20.5 116t-28 94t-31.5 63q-56 77 -131 77zM211 775q-36 40 -50 70.5t-14 51.5q0 18 8.5 32.5t21.5 25t28 16.5t29 6q25 0 56 -13.5t57 -28.5q16 -10 32 -21t30.5 -20t27.5 -14.5 t22 -5.5q14 0 22 9t8 20q0 12 -7 26t-17 26l13 11q25 -30 35.5 -53.5t10.5 -43.5q0 -21 -8 -37t-19.5 -26.5t-25 -16t-25.5 -5.5q-21 0 -49 15t-56.5 33.5t-54.5 33.5t-44 15q-13 0 -28 -9t-15 -26q0 -27 29 -59z" unicode="Õ"/>
   <glyph glyph-name="Ntilde" horiz-adv-x="723" unicode="Ñ" d="M701 735q-25 0 -47 -7.5t-22 -22.5v-616q0 -10 7.5 -17.5t18 -13t22.5 -8.5t21 -3v-30h-82q-29 0 -53.5 8t-43 19.5t-31.5 24.5t-19 23l-339 525v-528q0 -10 7.5 -17.5t18 -13t23 -8.5t21.5 -3v-30h-181v30q7 0 18.5 3t22 8.5t18 13.5t7.5 17v616q0 7 -6.5 13t-16 9.5 t-21.5 5.5t-22 2v30h95q17 0 35.5 -5t36 -14t32.5 -21t24 -25l342 -518v523q0 7 -6.5 13t-16.5 9.5t-22 5.5t-22 2v30h181v-30zM215 741q-36 40 -50 70.5t-14 51.5q0 18 8.5 32.5t21.5 25t28 16.5t29 6q25 0 56 -13.5t57 -28.5q16 -10 32 -21t30.5 -20t27.5 -14.5t22 -5.5 q14 0 22 9t8 20q0 12 -7 26t-17 26l13 11q25 -30 35.5 -53.5t10.5 -43.5q0 -21 -8 -37t-19.5 -26.5t-25 -16t-25.5 -5.5q-21 0 -49 15t-56.5 33.5t-54.5 33.5t-44 15q-13 0 -28 -9t-15 -26q0 -27 29 -59z"/>
   <glyph glyph-name="grave" horiz-adv-x="271" unicode="`" d="M0 816h125l57 -162l-50 -4z"/>
   <glyph glyph-name="Agrave" horiz-adv-x="838" unicode="À" d="M13 45q15 0 30.5 2t30 7t25.5 13.5t16 20.5l275 677h37l275 -677q10 -25 44.5 -34t76.5 -9v-29h-362v29q30 0 55.5 9t25.5 26q0 2 -2 8l-23 55q-6 14 -20 31t-49 25q-52 13 -103 13q-25 0 -50.5 -3.5t-48.5 -9.5q-26 -8 -43.5 -26.5t-17.5 -28.5l-23 -56q-2 -6 -2 -9 q0 -9 7.5 -15t19.5 -10.5t26 -6.5t26 -2v-29h-226v29zM214 215q33 13 67 20t69 7t69 -7t69 -20q-36 88 -68.5 169t-68.5 169zM251 974h125l57 -162l-50 -4z"/>
   <glyph glyph-name="Egrave" horiz-adv-x="664" unicode="È" d="M220 455h191q25 0 48 17t45 40l29 -23q-8 -10 -16 -19.5t-20.5 -24.5t-31 -38.5t-48.5 -61.5l-29 22q13 13 13 42q0 15 -7 15h-174v-377h223q18 0 40.5 8t46 21.5t46.5 31.5t42 38l30 -23l-114 -140l-42 2q4 4 4 8q0 10 -17 17t-39 7h-424v30q7 0 18.5 3t22 8.5t18 13.5 t7.5 17v616q0 7 -6.5 13t-16 9.5t-21.5 5.5t-22 2v30h424q22 0 39 7t17 17q0 5 -4 9l42 2l114 -141l-30 -23q-18 19 -41 37t-47 31.5t-46.5 22t-40.5 8.5h-223v-280zM172 967h125l57 -162l-50 -4z"/>
   <glyph glyph-name="Igrave" horiz-adv-x="302" unicode="Ì" d="M292 735q-25 0 -47.5 -7.5t-22.5 -22.5v-616q0 -10 7.5 -17.5t18 -13t23 -8.5t21.5 -3v-30h-274v30q7 0 18.5 3t22 8.5t18 13.5t7.5 17v616q0 7 -6.5 13t-16 9.5t-21.5 5.5t-22 2v30h274v-30zM-1 972h125l57 -162l-50 -4z"/>
   <glyph glyph-name="Ograve" d="M343 775q68 0 127 -31t102.5 -83.5t68 -122t24.5 -146.5t-24.5 -146.5t-68 -122t-102.5 -83.5t-127 -31q-69 0 -128 31t-102.5 83.5t-68 122t-24.5 146.5q0 76 24.5 145.5t68 122.5t102.5 84t128 31zM304 742q-30 0 -56.5 -13t-45.5 -41t-30 -72t-11 -106q0 -26 2 -56 t6 -62q22 -179 77.5 -264t134.5 -85q30 0 56 11.5t45 37.5t30 68t11 104q0 65 -8 128t-20.5 116t-28 94t-31.5 63q-56 77 -131 77zM152 961h125l57 -162l-50 -4z" unicode="Ò"/>
   <glyph glyph-name="Ugrave" horiz-adv-x="814" unicode="Ù" d="M84 705q0 7 -6.5 13t-16 9.5t-21.5 5.5t-22 2v30h271v-30q-11 0 -23 -2t-21.5 -5.5t-16 -9.5t-6.5 -13v-210q0 -99 16 -182t42.5 -143.5t59.5 -94.5t67 -34t67 27.5t59 83.5t41.5 141.5t15.5 202.5v209q0 7 -6.5 13t-16 9.5t-21.5 5.5t-22 2v30h271v-30q-11 0 -23 -2 t-21.5 -5.5t-16 -9.5t-6.5 -13v-210q0 -117 -27 -208t-72 -152.5t-103 -93.5t-119 -32t-119 32t-103.5 94.5t-73 153.5t-27.5 209v207zM253 925h125l57 -162l-50 -4z"/>
   <glyph glyph-name="agrave" horiz-adv-x="572" unicode="à" d="M456 193q0 -75 20.5 -110.5t79.5 -35.5v-30q-145 0 -188 36q-3 1 -6.5 1h-6.5q-16 0 -24.5 -7t-23.5 -15.5t-44 -15.5t-86 -7q-50 0 -81 11.5t-48.5 30t-24 42t-6.5 46.5q0 18 6 38.5t19 39.5t34 34.5t50 22.5q85 21 141 27q53 6 53 94q0 16 -6 32t-16 28.5t-23 20 t-27 7.5q-26 0 -37 -15.5t-16 -38.5q-10 -42 -33 -60.5t-48 -18.5q-24 0 -43.5 15t-19.5 39q0 18 15.5 37t40 34t56 24.5t63.5 9.5q46 0 88 -22t73.5 -56.5t50 -78t18.5 -86.5v-73zM328 309q-11 -15 -29.5 -23t-39.5 -13t-42.5 -9.5t-38.5 -13t-28 -22.5t-11 -39 q0 -40 9.5 -69t23.5 -47.5t30.5 -27t30.5 -8.5q18 0 35 8.5t30.5 23t21.5 33.5t8 40v167zM114 739h125l57 -162l-50 -4z"/>
   <glyph glyph-name="egrave" horiz-adv-x="500" unicode="è" d="M253 509q36 0 70 -12t62.5 -33.5t50 -51t34.5 -63.5q4 -12 4 -26q0 -13 -3.5 -24t-17 -18.5t-41 -11.5t-74.5 -4h-166q11 -94 41.5 -146t81.5 -52q26 0 49 8t42 21t32.5 29.5t21.5 33.5l19 -15q-1 -3 -2 -5l-2 -4q-30 -57 -83 -91.5t-119 -34.5q-48 0 -90.5 20t-74 54 t-49.5 79.5t-18 96.5t18.5 96t50 79.5t73.5 54.5t90 20zM169 290h111q17 0 28 5.5t11 24.5q0 5 -1 11t-3 14q-19 60 -44 97.5t-51 37.5q-24 0 -39 -36.5t-15 -96.5q0 -27 3 -57zM80 724h125l57 -162l-50 -4z"/>
   <glyph glyph-name="igrave" horiz-adv-x="379" unicode="ì" d="M247 509l2 -316q0 -38 4.5 -65.5t15.5 -45.5t31.5 -26.5t52.5 -8.5v-30h-332v30q55 0 77.5 31.5t22.5 99.5v15l-2 73q0 7 -3 21.5t-8.5 29.5t-14 26t-20.5 11q-19 0 -43 -17v26l188 146h29zM12 805h125l57 -162l-50 -4z"/>
   <glyph glyph-name="ograve" horiz-adv-x="509" unicode="ò" d="M257 509q48 0 90 -20t74 -54.5t50.5 -80t18.5 -95.5q0 -51 -18.5 -96t-50 -79.5t-74 -54.5t-90.5 -20t-90.5 20t-74 54t-49.5 79.5t-18 96.5t18.5 96t50 79.5t73.5 54.5t90 20zM229 480h-6q-23 0 -38 -37t-15 -98q0 -55 11 -110t28 -99.5t39 -72t44 -27.5t37 37t15 98 q0 52 -10.5 105.5t-27 97.5t-37 73t-40.5 33zM58 757h125l57 -162l-50 -4z"/>
   <glyph glyph-name="ugrave" horiz-adv-x="725" unicode="ù" d="M246 509l2 -254q1 -31 6 -66.5t19.5 -66t40 -50.5t67.5 -20q41 0 63 25.5t22 64.5v136q-1 9 -4 22t-9 25t-14.5 20.5t-18.5 8.5q-17 0 -42 -17v26l188 146h29v-316q0 -38 4.5 -65.5t16 -45.5t32 -26.5t52.5 -8.5v-30h-217h13q0 23 -27 23q-17 0 -44 -9q-63 -21 -118 -21 q-53 0 -89 12t-57.5 38.5t-31.5 69.5t-11 105l-1 43q-1 9 -4 22t-9 25t-14.5 20.5t-18.5 8.5q-17 0 -42 -17v26l188 146h29zM186 766h125l57 -162l-50 -4z"/>
   <glyph glyph-name="acute" horiz-adv-x="271" unicode="´" d="M50 650l-50 4l57 162h125z"/>
   <glyph glyph-name="Aacute" horiz-adv-x="838" unicode="Á" d="M13 45q15 0 30.5 2t30 7t25.5 13.5t16 20.5l275 677h37l275 -677q10 -25 44.5 -34t76.5 -9v-29h-362v29q30 0 55.5 9t25.5 26q0 2 -2 8l-23 55q-6 14 -20 31t-49 25q-52 13 -103 13q-25 0 -50.5 -3.5t-48.5 -9.5q-26 -8 -43.5 -26.5t-17.5 -28.5l-23 -56q-2 -6 -2 -9 q0 -9 7.5 -15t19.5 -10.5t26 -6.5t26 -2v-29h-226v29zM214 215q33 13 67 20t69 7t69 -7t69 -20q-36 88 -68.5 169t-68.5 169zM438 794l-50 4l57 162h125z"/>
   <glyph glyph-name="Eacute" horiz-adv-x="664" unicode="É" d="M220 455h191q25 0 48 17t45 40l29 -23q-8 -10 -16 -19.5t-20.5 -24.5t-31 -38.5t-48.5 -61.5l-29 22q13 13 13 42q0 15 -7 15h-174v-377h223q18 0 40.5 8t46 21.5t46.5 31.5t42 38l30 -23l-114 -140l-42 2q4 4 4 8q0 10 -17 17t-39 7h-424v30q7 0 18.5 3t22 8.5t18 13.5 t7.5 17v616q0 7 -6.5 13t-16 9.5t-21.5 5.5t-22 2v30h424q22 0 39 7t17 17q0 5 -4 9l42 2l114 -141l-30 -23q-18 19 -41 37t-47 31.5t-46.5 22t-40.5 8.5h-223v-280zM358 806l-50 4l57 162h125z"/>
   <glyph glyph-name="Iacute" horiz-adv-x="302" unicode="Í" d="M292 735q-25 0 -47.5 -7.5t-22.5 -22.5v-616q0 -10 7.5 -17.5t18 -13t23 -8.5t21.5 -3v-30h-274v30q7 0 18.5 3t22 8.5t18 13.5t7.5 17v616q0 7 -6.5 13t-16 9.5t-21.5 5.5t-22 2v30h274v-30zM178 791l-50 4l57 162h125z"/>
   <glyph glyph-name="Oacute" d="M343 775q68 0 127 -31t102.5 -83.5t68 -122t24.5 -146.5t-24.5 -146.5t-68 -122t-102.5 -83.5t-127 -31q-69 0 -128 31t-102.5 83.5t-68 122t-24.5 146.5q0 76 24.5 145.5t68 122.5t102.5 84t128 31zM304 742q-30 0 -56.5 -13t-45.5 -41t-30 -72t-11 -106q0 -26 2 -56 t6 -62q22 -179 77.5 -264t134.5 -85q30 0 56 11.5t45 37.5t30 68t11 104q0 65 -8 128t-20.5 116t-28 94t-31.5 63q-56 77 -131 77zM365 803l-50 4l57 162h125z" unicode="Ó"/>
   <glyph glyph-name="Uacute" horiz-adv-x="814" unicode="Ú" d="M84 705q0 7 -6.5 13t-16 9.5t-21.5 5.5t-22 2v30h271v-30q-11 0 -23 -2t-21.5 -5.5t-16 -9.5t-6.5 -13v-210q0 -99 16 -182t42.5 -143.5t59.5 -94.5t67 -34t67 27.5t59 83.5t41.5 141.5t15.5 202.5v209q0 7 -6.5 13t-16 9.5t-21.5 5.5t-22 2v30h271v-30q-11 0 -23 -2 t-21.5 -5.5t-16 -9.5t-6.5 -13v-210q0 -117 -27 -208t-72 -152.5t-103 -93.5t-119 -32t-119 32t-103.5 94.5t-73 153.5t-27.5 209v207zM428 755l-50 4l57 162h125z"/>
   <glyph glyph-name="Yacute" horiz-adv-x="786" unicode="Ý" d="M452 449l1 -372q0 -8 6 -13.5t16 -9.5t21.5 -5.5t22.5 -1.5v-30h-271v30q10 0 22 1.5t22 5.5t16.5 9.5t6.5 13.5l1 344q-42 59 -84 117.5t-84 117.5q-23 32 -56.5 52t-71.5 28v29h270v-30q-9 0 -15 -7.5t-6 -20.5q0 -18 11 -34l144 -202q35 50 72 101t72 101 q8 12 13 25.5t6 22.5q0 14 -12 14v30h189l-1 -30q-22 -3 -45.5 -9.5t-46 -16t-41.5 -23t-31 -30.5zM431 749l-50 4l57 162h125z"/>
   <glyph glyph-name="aacute" horiz-adv-x="572" unicode="á" d="M456 193q0 -75 20.5 -110.5t79.5 -35.5v-30q-145 0 -188 36q-3 1 -6.5 1h-6.5q-16 0 -24.5 -7t-23.5 -15.5t-44 -15.5t-86 -7q-50 0 -81 11.5t-48.5 30t-24 42t-6.5 46.5q0 18 6 38.5t19 39.5t34 34.5t50 22.5q85 21 141 27q53 6 53 94q0 16 -6 32t-16 28.5t-23 20 t-27 7.5q-26 0 -37 -15.5t-16 -38.5q-10 -42 -33 -60.5t-48 -18.5q-24 0 -43.5 15t-19.5 39q0 18 15.5 37t40 34t56 24.5t63.5 9.5q46 0 88 -22t73.5 -56.5t50 -78t18.5 -86.5v-73zM328 309q-11 -15 -29.5 -23t-39.5 -13t-42.5 -9.5t-38.5 -13t-28 -22.5t-11 -39 q0 -40 9.5 -69t23.5 -47.5t30.5 -27t30.5 -8.5q18 0 35 8.5t30.5 23t21.5 33.5t8 40v167zM245 568l-50 4l57 162h125z"/>
   <glyph glyph-name="eacute" horiz-adv-x="500" unicode="é" d="M253 509q36 0 70 -12t62.5 -33.5t50 -51t34.5 -63.5q4 -12 4 -26q0 -13 -3.5 -24t-17 -18.5t-41 -11.5t-74.5 -4h-166q11 -94 41.5 -146t81.5 -52q26 0 49 8t42 21t32.5 29.5t21.5 33.5l19 -15q-1 -3 -2 -5l-2 -4q-30 -57 -83 -91.5t-119 -34.5q-48 0 -90.5 20t-74 54 t-49.5 79.5t-18 96.5t18.5 96t50 79.5t73.5 54.5t90 20zM169 290h111q17 0 28 5.5t11 24.5q0 5 -1 11t-3 14q-19 60 -44 97.5t-51 37.5q-24 0 -39 -36.5t-15 -96.5q0 -27 3 -57zM233 589l-50 4l57 162h125z"/>
   <glyph glyph-name="iacute" horiz-adv-x="379" unicode="í" d="M247 509l2 -316q0 -38 4.5 -65.5t15.5 -45.5t31.5 -26.5t52.5 -8.5v-30h-332v30q55 0 77.5 31.5t22.5 99.5v15l-2 73q0 7 -3 21.5t-8.5 29.5t-14 26t-20.5 11q-19 0 -43 -17v26l188 146h29zM174 577l-50 4l57 162h125z"/>
   <glyph glyph-name="oacute" horiz-adv-x="509" unicode="ó" d="M257 509q48 0 90 -20t74 -54.5t50.5 -80t18.5 -95.5q0 -51 -18.5 -96t-50 -79.5t-74 -54.5t-90.5 -20t-90.5 20t-74 54t-49.5 79.5t-18 96.5t18.5 96t50 79.5t73.5 54.5t90 20zM229 480h-6q-23 0 -38 -37t-15 -98q0 -55 11 -110t28 -99.5t39 -72t44 -27.5t37 37t15 98 q0 52 -10.5 105.5t-27 97.5t-37 73t-40.5 33zM259 582l-50 4l57 162h125z"/>
   <glyph glyph-name="uacute" horiz-adv-x="725" unicode="ú" d="M246 509l2 -254q1 -31 6 -66.5t19.5 -66t40 -50.5t67.5 -20q41 0 63 25.5t22 64.5v136q-1 9 -4 22t-9 25t-14.5 20.5t-18.5 8.5q-17 0 -42 -17v26l188 146h29v-316q0 -38 4.5 -65.5t16 -45.5t32 -26.5t52.5 -8.5v-30h-217h13q0 23 -27 23q-17 0 -44 -9q-63 -21 -118 -21 q-53 0 -89 12t-57.5 38.5t-31.5 69.5t-11 105l-1 43q-1 9 -4 22t-9 25t-14.5 20.5t-18.5 8.5q-17 0 -42 -17v26l188 146h29zM369 533l-50 4l57 162h125z"/>
   <glyph glyph-name="yacute" horiz-adv-x="681" unicode="ý" d="M26 501h307v-31q-23 -2 -37.5 -17.5t-14.5 -32.5q0 -6 3 -10l109 -222l96 218q2 6 2 10q0 18 -19.5 36t-47.5 18v31h233v-31q-42 0 -77.5 -10t-47.5 -40l-182 -411l-72 -158q-38 -81 -106 -81q-36 0 -63.5 14.5t-46.5 36t-29 47.5t-10 50q0 36 22 60.5t55 24.5 q13 0 26.5 -6t25 -15.5t18.5 -22.5t7 -28q0 -8 -3 -15l-6 -14t-6 -15.5t-3 -20.5q0 -43 33 -43q19 0 36 15t31 48l55 125l-196 411q-21 43 -92 48v31zM390 557l-50 4l57 162h125z"/>
   <glyph glyph-name="uni0025" horiz-adv-x="1040" unicode="%" d="M257 816q48 0 90 -20t74 -54.5t50.5 -80t18.5 -95.5q0 -51 -18.5 -96t-50 -79.5t-74 -54.5t-90.5 -20t-90.5 20t-74 54t-49.5 79.5t-18 96.5t18.5 96t50 79.5t73.5 54.5t90 20zM229 787h-6q-23 0 -38 -37t-15 -98q0 -55 11 -110t28 -99.5t39 -72t44 -27.5t37 37t15 98 q0 52 -10.5 105.5t-27 97.5t-37 73t-40.5 33zM784 509q48 0 90 -20t74 -54.5t50.5 -80t18.5 -95.5q0 -51 -18.5 -96t-50 -79.5t-74 -54.5t-90.5 -20t-90.5 20t-74 54t-49.5 79.5t-18 96.5t18.5 96t50 79.5t73.5 54.5t90 20zM756 480h-6q-23 0 -38 -37t-15 -98q0 -55 11 -110 t28 -99.5t39 -72t44 -27.5t37 37t15 98q0 52 -10.5 105.5t-27 97.5t-37 73t-40.5 33zM828 805h107l-736 -809h-107z"/>
   <glyph glyph-name="Euro" horiz-adv-x="704" unicode="€" d="M27 502h66l8 26q18 58 48.5 104t68.5 77.5t81 48.5t86 17q86 0 123 -35q34 -33 77 -33q45 0 77 58h31l-91 -172h-25q-14 37 -30.5 65t-39 46t-54 27t-75.5 10q-49 0 -81 -21t-51.5 -54.5t-27.5 -76.5t-9 -87h368l-19 -40h-348q2 -35 4.5 -61t6.5 -50h296l-19 -40h-270 q29 -117 88 -180t139 -63q56 0 107.5 38t83.5 118l34 1q-19 -47 -48.5 -87t-67 -68.5t-80.5 -44.5t-89 -16q-55 0 -106.5 22.5t-93.5 63t-71.5 96t-40.5 120.5h-77l19 40h53q-1 10 -1 20v21q0 38 7 69l-76 1z"/>
   <glyph glyph-name="ellipsis" horiz-adv-x="630" unicode="…" d="M101 215q18 0 33 -8.5t26.5 -23t18 -34.5t6.5 -42q0 -23 -6.5 -42.5t-18 -34t-26.5 -23t-33 -8.5t-33 8.5t-26.5 23t-18 34t-6.5 42.5q0 22 6.5 42t18 34.5t26.5 23t33 8.5zM311 215q18 0 33 -8.5t26.5 -23t18 -34.5t6.5 -42q0 -23 -6.5 -42.5t-18 -34t-26.5 -23 t-33 -8.5t-33 8.5t-26.5 23t-18 34t-6.5 42.5q0 22 6.5 42t18 34.5t26.5 23t33 8.5zM521 215q18 0 33 -8.5t26.5 -23t18 -34.5t6.5 -42q0 -23 -6.5 -42.5t-18 -34t-26.5 -23t-33 -8.5t-33 8.5t-26.5 23t-18 34t-6.5 42.5q0 22 6.5 42t18 34.5t26.5 23t33 8.5z"/>
   <glyph glyph-name="circumflex" horiz-adv-x="833" unicode="ˆ" d="M-100 599l100 101l100 -101v-43l-100 44l-100 -44v43z"/>
   <glyph glyph-name="Acircumflex" horiz-adv-x="838" unicode="Â" d="M13 45q15 0 30.5 2t30 7t25.5 13.5t16 20.5l275 677h37l275 -677q10 -25 44.5 -34t76.5 -9v-29h-362v29q30 0 55.5 9t25.5 26q0 2 -2 8l-23 55q-6 14 -20 31t-49 25q-52 13 -103 13q-25 0 -50.5 -3.5t-48.5 -9.5q-26 -8 -43.5 -26.5t-17.5 -28.5l-23 -56q-2 -6 -2 -9 q0 -9 7.5 -15t19.5 -10.5t26 -6.5t26 -2v-29h-226v29zM214 215q33 13 67 20t69 7t69 -7t69 -20q-36 88 -68.5 169t-68.5 169zM309 804l100 101l100 -101v-43l-100 44l-100 -44v43z"/>
   <glyph glyph-name="Atilde" horiz-adv-x="838" unicode="Ã" d="M13 45q15 0 30.5 2t30 7t25.5 13.5t16 20.5l275 677h37l275 -677q10 -25 44.5 -34t76.5 -9v-29h-362v29q30 0 55.5 9t25.5 26q0 2 -2 8l-23 55q-6 14 -20 31t-49 25q-52 13 -103 13q-25 0 -50.5 -3.5t-48.5 -9.5q-26 -8 -43.5 -26.5t-17.5 -28.5l-23 -56q-2 -6 -2 -9 q0 -9 7.5 -15t19.5 -10.5t26 -6.5t26 -2v-29h-226v29zM214 215q33 13 67 20t69 7t69 -7t69 -20q-36 88 -68.5 169t-68.5 169zM290 727q-36 40 -50 70.5t-14 51.5q0 18 8.5 32.5t21.5 25t28 16.5t29 6q25 0 56 -13.5t57 -28.5q16 -10 32 -21t30.5 -20t27.5 -14.5t22 -5.5 q14 0 22 9t8 20q0 12 -7 26t-17 26l13 11q25 -30 35.5 -53.5t10.5 -43.5q0 -21 -8 -37t-19.5 -26.5t-25 -16t-25.5 -5.5q-21 0 -49 15t-56.5 33.5t-54.5 33.5t-44 15q-13 0 -28 -9t-15 -26q0 -27 29 -59z"/>
   <glyph glyph-name="degree" horiz-adv-x="285" unicode="°" d="M136 807q26 0 49.5 -11t41 -30t28 -44t10.5 -53q0 -29 -10 -54.5t-27.5 -44t-41 -29.5t-50.5 -11t-51 10.5t-41 29.5t-27 44.5t-10 54.5q0 28 10 53t27.5 44t41 30t50.5 11zM120 777h-3q-13 0 -20 -19t-7 -50t5.5 -59t14.5 -49.5t20 -34t22 -12.5q12 0 19 18.5t7 49.5 q0 29 -5.5 56.5t-14 49t-19 35t-19.5 15.5z"/>
   <glyph glyph-name="Aring" horiz-adv-x="838" unicode="Å" d="M405 946q18 0 34.5 -7.5t29 -21t20 -31t7.5 -37.5q0 -21 -7.5 -38.5t-20 -31t-29 -21t-34.5 -7.5q-19 0 -35.5 7.5t-29 21t-19.5 31t-7 38.5q0 20 7 37.5t19.5 31t29 21t35.5 7.5zM394 925h-3q-8 0 -13 -13t-5 -34q0 -22 4 -42t10 -35.5t13.5 -24.5t15.5 -9 q9 0 13.5 13.5t4.5 35.5q0 20 -3.5 39t-9.5 34t-13 24.5t-14 11.5zM13 45q15 0 30.5 2t30 7t25.5 13.5t16 20.5l275 677h37l275 -677q10 -25 44.5 -34t76.5 -9v-29h-362v29q30 0 55.5 9t25.5 26q0 2 -2 8l-23 55q-6 14 -20 31t-49 25q-52 13 -103 13q-25 0 -50.5 -3.5 t-48.5 -9.5q-26 -8 -43.5 -26.5t-17.5 -28.5l-23 -56q-2 -6 -2 -9q0 -9 7.5 -15t19.5 -10.5t26 -6.5t26 -2v-29h-226v29zM214 215q33 13 67 20t69 7t69 -7t69 -20q-36 88 -68.5 169t-68.5 169z"/>
   <glyph glyph-name="Ecircumflex" horiz-adv-x="664" unicode="Ê" d="M220 455h191q25 0 48 17t45 40l29 -23q-8 -10 -16 -19.5t-20.5 -24.5t-31 -38.5t-48.5 -61.5l-29 22q13 13 13 42q0 15 -7 15h-174v-377h223q18 0 40.5 8t46 21.5t46.5 31.5t42 38l30 -23l-114 -140l-42 2q4 4 4 8q0 10 -17 17t-39 7h-424v30q7 0 18.5 3t22 8.5t18 13.5 t7.5 17v616q0 7 -6.5 13t-16 9.5t-21.5 5.5t-22 2v30h424q22 0 39 7t17 17q0 5 -4 9l42 2l114 -141l-30 -23q-18 19 -41 37t-47 31.5t-46.5 22t-40.5 8.5h-223v-280zM239.998 828.365l89.002 98.1953l89.002 -98.1953v-41.8057l-89.002 42.7783l-89.002 -42.7783v41.8057z "/>
   <glyph glyph-name="Icircumflex" horiz-adv-x="302" unicode="Î" d="M292 735q-25 0 -47.5 -7.5t-22.5 -22.5v-616q0 -10 7.5 -17.5t18 -13t23 -8.5t21.5 -3v-30h-274v30q7 0 18.5 3t22 8.5t18 13.5t7.5 17v616q0 7 -6.5 13t-16 9.5t-21.5 5.5t-22 2v30h274v-30zM47 830l100 101l100 -101v-43l-100 44l-100 -44v43z"/>
   <glyph glyph-name="hyphen" horiz-adv-x="354" unicode="-" d="M30 415h293v-59h-293v59z"/>
   <glyph glyph-name="acircumflex" horiz-adv-x="572" unicode="â" d="M456 193q0 -75 20.5 -110.5t79.5 -35.5v-30q-145 0 -188 36q-3 1 -6.5 1h-6.5q-16 0 -24.5 -7t-23.5 -15.5t-44 -15.5t-86 -7q-50 0 -81 11.5t-48.5 30t-24 42t-6.5 46.5q0 18 6 38.5t19 39.5t34 34.5t50 22.5q85 21 141 27q53 6 53 94q0 16 -6 32t-16 28.5t-23 20 t-27 7.5q-26 0 -37 -15.5t-16 -38.5q-10 -42 -33 -60.5t-48 -18.5q-24 0 -43.5 15t-19.5 39q0 18 15.5 37t40 34t56 24.5t63.5 9.5q46 0 88 -22t73.5 -56.5t50 -78t18.5 -86.5v-73zM328 309q-11 -15 -29.5 -23t-39.5 -13t-42.5 -9.5t-38.5 -13t-28 -22.5t-11 -39 q0 -40 9.5 -69t23.5 -47.5t30.5 -27t30.5 -8.5q18 0 35 8.5t30.5 23t21.5 33.5t8 40v167zM143 595l100 101l100 -101v-43l-100 44l-100 -44v43z"/>
   <glyph glyph-name="aring" horiz-adv-x="572" unicode="å" d="M251 741q19 0 36 -7.5t29.5 -21t19.5 -31.5t7 -39t-7 -39.5t-19.5 -32t-29.5 -21t-36 -7.5q-39 0 -66 29t-27 71q0 21 7 39t20 31.5t29.5 21t36.5 7.5zM239 719h-3q-8 0 -13 -13.5t-5 -34.5q0 -22 4 -42.5t10 -36t14 -24.5t16 -9t13.5 13t5.5 34t-4 40.5t-10 35.5 t-13.5 25.5t-14.5 11.5zM456 193q0 -75 20.5 -110.5t79.5 -35.5v-30q-145 0 -188 36q-3 1 -6.5 1h-6.5q-16 0 -24.5 -7t-23.5 -15.5t-44 -15.5t-86 -7q-50 0 -81 11.5t-48.5 30t-24 42t-6.5 46.5q0 18 6 38.5t19 39.5t34 34.5t50 22.5q85 21 141 27q53 6 53 94q0 16 -6 32 t-16 28.5t-23 20t-27 7.5q-26 0 -37 -15.5t-16 -38.5q-10 -42 -33 -60.5t-48 -18.5q-24 0 -43.5 15t-19.5 39q0 18 15.5 37t40 34t56 24.5t63.5 9.5q46 0 88 -22t73.5 -56.5t50 -78t18.5 -86.5v-73zM328 309q-11 -15 -29.5 -23t-39.5 -13t-42.5 -9.5t-38.5 -13t-28 -22.5 t-11 -39q0 -40 9.5 -69t23.5 -47.5t30.5 -27t30.5 -8.5q18 0 35 8.5t30.5 23t21.5 33.5t8 40v167z"/>
   <glyph glyph-name="ecircumflex" horiz-adv-x="500" unicode="ê" d="M253 509q36 0 70 -12t62.5 -33.5t50 -51t34.5 -63.5q4 -12 4 -26q0 -13 -3.5 -24t-17 -18.5t-41 -11.5t-74.5 -4h-166q11 -94 41.5 -146t81.5 -52q26 0 49 8t42 21t32.5 29.5t21.5 33.5l19 -15q-1 -3 -2 -5l-2 -4q-30 -57 -83 -91.5t-119 -34.5q-48 0 -90.5 20t-74 54 t-49.5 79.5t-18 96.5t18.5 96t50 79.5t73.5 54.5t90 20zM169 290h111q17 0 28 5.5t11 24.5q0 5 -1 11t-3 14q-19 60 -44 97.5t-51 37.5q-24 0 -39 -36.5t-15 -96.5q0 -27 3 -57zM150 599l100 101l100 -101v-43l-100 44l-100 -44v43z"/>
   <glyph glyph-name="ucircumflex" horiz-adv-x="725" unicode="û" d="M246 509l2 -254q1 -31 6 -66.5t19.5 -66t40 -50.5t67.5 -20q41 0 63 25.5t22 64.5v136q-1 9 -4 22t-9 25t-14.5 20.5t-18.5 8.5q-17 0 -42 -17v26l188 146h29v-316q0 -38 4.5 -65.5t16 -45.5t32 -26.5t52.5 -8.5v-30h-217h13q0 23 -27 23q-17 0 -44 -9q-63 -21 -118 -21 q-53 0 -89 12t-57.5 38.5t-31.5 69.5t-11 105l-1 43q-1 9 -4 22t-9 25t-14.5 20.5t-18.5 8.5q-17 0 -42 -17v26l188 146h29zM262 599l100 101l100 -101v-43l-100 44l-100 -44v43z"/>
   <glyph glyph-name="ocircumflex" horiz-adv-x="509" unicode="ô" d="M257 509q48 0 90 -20t74 -54.5t50.5 -80t18.5 -95.5q0 -51 -18.5 -96t-50 -79.5t-74 -54.5t-90.5 -20t-90.5 20t-74 54t-49.5 79.5t-18 96.5t18.5 96t50 79.5t73.5 54.5t90 20zM229 480h-6q-23 0 -38 -37t-15 -98q0 -55 11 -110t28 -99.5t39 -72t44 -27.5t37 37t15 98 q0 52 -10.5 105.5t-27 97.5t-37 73t-40.5 33zM154 599l100 101l100 -101v-43l-100 44l-100 -44v43z"/>
   <glyph glyph-name="icircumflex" horiz-adv-x="371" unicode="î" d="M239 509l2 -316q0 -38 4.5 -65.5t15.5 -45.5t31.5 -26.5t52.5 -8.5v-30h-332v30q55 0 77.5 31.5t22.5 99.5v15l-2 73q0 7 -3 21.5t-8.5 29.5t-14 26t-20.5 11q-19 0 -43 -17v26l188 146h29zM49 612l100 101l100 -101v-43l-100 44l-100 -44v43z"/>
   <glyph glyph-name="Ucircumflex" horiz-adv-x="814" unicode="Û" d="M84 705q0 7 -6.5 13t-16 9.5t-21.5 5.5t-22 2v30h271v-30q-11 0 -23 -2t-21.5 -5.5t-16 -9.5t-6.5 -13v-210q0 -99 16 -182t42.5 -143.5t59.5 -94.5t67 -34t67 27.5t59 83.5t41.5 141.5t15.5 202.5v209q0 7 -6.5 13t-16 9.5t-21.5 5.5t-22 2v30h271v-30q-11 0 -23 -2 t-21.5 -5.5t-16 -9.5t-6.5 -13v-210q0 -117 -27 -208t-72 -152.5t-103 -93.5t-119 -32t-119 32t-103.5 94.5t-73 153.5t-27.5 209v207zM309 853l100 101l100 -101v-43l-100 44l-100 -44v43z"/>
   <glyph glyph-name="AE" horiz-adv-x="1093" unicode="Æ" d="M12 45h-1l10.5 3t24 9t27.5 14t22 17l421 522v151h122l223 4q23 0 41.5 7t18.5 18q0 4 -4 8l34 2l114 -141l-25 -20q-16 16 -38 33.5t-46 31t-48 22.5t-44 9h-221v-280h189q27 0 50.5 16.5t43.5 37.5l24 -20q-10 -12 -15.5 -19t-15.5 -19.5t-28.5 -35.5t-53.5 -67l-24 19 q14 14 14 39q0 18 -12 18h-176v-377h225q20 0 44 8.5t48 22t46 31t38 34.5l25 -20l-114 -140l-34 2q4 4 4 8q0 10 -18.5 17t-41.5 7h-319q-29 -1 -59 -1h-60v29q16 0 33 3t31 9t23 14t9 17l-1 55q0 7 -1 15t-6 15.5t-15 14t-28 11.5q-25 7 -49.5 9.5t-50.5 3.5 q-26 0 -52 -3.5t-52 -9.5q-40 -11 -58 -26.5t-29 -28.5l-46 -56q-6 -8 -6 -14q0 -7 6 -12.5t16 -9t21.5 -5.5t22.5 -2v-29h-179v29zM231 211q85 31 155 31q36 0 69 -8t64 -23l-2 354z"/>
   <glyph glyph-name="ae" horiz-adv-x="799" unicode="æ" d="M436 47q-35 18 -61 18q-28 0 -47 -19q-37 -37 -151 -37q-50 0 -81 11.5t-48.5 30t-24 42t-6.5 46.5q0 18 6 38.5t19 39.5t34 34.5t50 22.5q85 21 141 27q53 6 53 94q0 16 -6 32t-16 28.5t-23 20t-27 7.5q-26 0 -37 -15.5t-16 -38.5q-10 -42 -33 -60.5t-48 -18.5 q-24 0 -43.5 15t-19.5 39q0 18 15.5 37t40 34t56 24.5t63.5 9.5q51 0 88 -21t75 -59l6 6q68 74 164 74q36 0 70 -12t62.5 -33.5t50 -51t34.5 -63.5q4 -12 4 -26q0 -13 -3.5 -24t-17 -18.5t-41 -11.5t-74.5 -4h-166q11 -94 41.5 -146t81.5 -52q26 0 49 8t42 21t32.5 29.5 t21.5 33.5l19 -15q-1 -3 -2 -5l-2 -4q-30 -57 -83 -91.5t-119 -34.5q-73 0 -123 38zM328 309q-11 -15 -29.5 -23t-39.5 -13t-42.5 -9.5t-38.5 -13t-28 -22.5t-11 -39q0 -40 9.5 -69t23.5 -47.5t30.5 -27t30.5 -8.5q18 0 35 8.5t30.5 23t21.5 33.5t8 40v167zM475 290h111 q17 0 28 5.5t11 24.5q0 5 -1 11t-3 14q-19 60 -44 97.5t-51 37.5q-24 0 -39 -36.5t-15 -96.5q0 -27 3 -57z"/>
   <glyph glyph-name="thorn" horiz-adv-x="580" unicode="þ" d="M238 814v-313q0 -17 10 -17q5 0 15 4t22 8.5t26.5 8.5t28.5 4q43 0 81.5 -20t67 -54.5t45.5 -80t17 -95.5q0 -51 -16.5 -96.5t-45.5 -79.5t-67.5 -54t-81.5 -20q-13 0 -26.5 4t-25.5 9.5t-21.5 9.5t-14.5 4q-14 0 -14 -25v-130q0 -37 4.5 -64.5t16 -45.5t31.5 -27t52 -9 v-30h-332v30q58 0 79 35.5t21 110.5v690q0 7 -2.5 22t-8 30t-14.5 26t-21 11q-18 0 -43 -18v26l188 146h29zM239 222q1 -29 5.5 -62.5t14.5 -62.5t26.5 -48.5t40.5 -19.5q18 0 32.5 7t25 25.5t16.5 52t6 87.5t-7.5 103.5t-21.5 88t-33.5 61.5t-42.5 23q-19 0 -31 -10.5 t-19 -25.5t-10 -33t-3 -33v-118v-16.5t1 -18.5z"/>
   <glyph glyph-name="Thorn" horiz-adv-x="629" unicode="Þ" d="M402 624q52 -3 130 -39q76 -36 76 -152q0 -154 -73 -197t-162 -43h-157l-1 -104q0 -8 8 -15.5t18.5 -13.5t21.5 -9.5t18 -3.5v-30h-258v30q6 0 17.5 3.5t22 9.5t18.5 13.5t8 15.5v616q0 7 -6.5 13t-16 9.5t-21.5 5.5t-22 2v30h264v-30q-25 0 -47.5 -7.5t-22.5 -22.5v-81 h185zM217 225h118q78 0 114 39t36 111q0 85 -18.5 135.5t-41.5 61.5q-43 22 -131 22h-77v-369z"/>
   <glyph glyph-name="Eth" d="M21 17v30q6 0 17.5 3.5t22 9.5t18.5 13.5t8 15.5v289h-69v37h69v290q0 7 -6.5 13t-16 9.5t-21.5 5.5t-22 2v30h328q67 -1 124.5 -34t100 -88t66.5 -125.5t24 -146.5q0 -87 -24.5 -153.5t-69.5 -111t-108.5 -67.5t-140.5 -23q-30 0 -60.5 1.5t-60.5 1.5q-45 0 -89.5 -1 t-89.5 -1zM311 378h-96v-289q0 -8 7.5 -15.5t18.5 -13.5t23 -9.5t21 -3.5q69 0 116 11t75.5 36.5t41 68t12.5 105.5q0 26 -1.5 55.5t-6.5 63.5q-5 36 -11.5 75.5t-17 78t-27 74t-41.5 62t-59.5 42.5t-80.5 16q-25 0 -47.5 -7.5t-22.5 -22.5v-290h96v-37z" unicode="Ð"/>
   <glyph glyph-name="Ocircumflex" d="M343 775q68 0 127 -31t102.5 -83.5t68 -122t24.5 -146.5t-24.5 -146.5t-68 -122t-102.5 -83.5t-127 -31q-69 0 -128 31t-102.5 83.5t-68 122t-24.5 146.5q0 76 24.5 145.5t68 122.5t102.5 84t128 31zM304 742q-30 0 -56.5 -13t-45.5 -41t-30 -72t-11 -106q0 -26 2 -56 t6 -62q22 -179 77.5 -264t134.5 -85q30 0 56 11.5t45 37.5t30 68t11 104q0 65 -8 128t-20.5 116t-28 94t-31.5 63q-56 77 -131 77zM226 836l100 101l100 -101v-43l-100 44l-100 -44v43z" unicode="Ô"/>
   <glyph glyph-name="oe" horiz-adv-x="815" unicode="œ" d="M577 509q36 0 70 -12t62.5 -33.5t50 -51t34.5 -63.5q4 -12 4 -26q0 -13 -3.5 -24t-17 -18.5t-41 -11.5t-74.5 -4h-166q11 -94 41.5 -146t81.5 -52q26 0 49 8t42 21t32.5 29.5t21.5 33.5l19 -15q-1 -3 -2 -5l-2 -4q-30 -57 -83 -91.5t-119 -34.5q-92 0 -160 68 q-68 -68 -160 -68q-48 0 -90.5 20t-74 54t-49.5 79.5t-18 96.5t18.5 96t50 79.5t73.5 54.5t90 20q93 0 160 -70q66 70 160 70zM229 480h-6q-23 0 -38 -37t-15 -98q0 -55 11 -110t28 -99.5t39 -72t44 -27.5t37 37t15 98q0 52 -10.5 105.5t-27 97.5t-37 73t-40.5 33zM493 290 h111q17 0 28 5.5t11 24.5q0 5 -1 11t-3 14q-19 60 -44 97.5t-51 37.5q-24 0 -39 -36.5t-15 -96.5q0 -27 3 -57z"/>
   <glyph glyph-name="cedilla" horiz-adv-x="236" unicode="¸" d="M172 12q-18 -9 -30 -24.5t-12 -36.5q0 -34 45 -64q30 -20 30 -57q0 -38 -21.5 -62.5t-54.5 -24.5q-20 0 -38 10t-32 27t-22.5 39.5t-8.5 46.5q0 26 10 50.5t26 46t36.5 38t41.5 26.5z"/>
   <glyph glyph-name="Ccedilla" horiz-adv-x="656" unicode="Ç" d="M558 593h-34q-16 40 -33 68.5t-39.5 46t-53 25.5t-73.5 8q-45 0 -75.5 -22t-49 -57.5t-26.5 -80.5t-8 -92q0 -102 19 -180.5t51.5 -132t76.5 -81t94 -27.5q53 0 103.5 38t82.5 118l44 1q-19 -45 -48.5 -84.5t-67 -68.5t-81.5 -46t-93 -17q-69 0 -128 31t-102.5 83.5 t-68 122t-24.5 146.5q0 73 24.5 142t67.5 122.5t99.5 86t121.5 32.5q89 0 126 -35q18 -18 37 -25.5t41 -7.5q19 0 36 15t33 43h39zM389 12q-18 -9 -30 -24.5t-12 -36.5q0 -34 45 -64q30 -20 30 -57q0 -38 -21.5 -62.5t-54.5 -24.5q-20 0 -38 10t-32 27t-22.5 39.5t-8.5 46.5 q0 26 10 50.5t26 46t36.5 38t41.5 26.5z"/>
   <glyph glyph-name="ccedilla" horiz-adv-x="481" unicode="ç" d="M253 509q22 0 38.5 -4.5t30.5 -10.5t27.5 -10.5t30.5 -4.5q41 0 54 25h30l-66 -175h-23q-6 21 -17 48.5t-26 52t-33.5 41t-39.5 16.5q-23 0 -39 -11.5t-26 -32.5t-14 -49t-4 -61q0 -131 35 -198.5t90 -67.5q26 0 49 8t42 21t32.5 29.5t21.5 33.5l19 -15 q-11 -30 -33 -54.5t-50.5 -42.5t-60.5 -28t-62 -10q-50 0 -93.5 20t-75.5 54t-50.5 79.5t-18.5 96.5t18.5 96t50 79.5t73.5 54.5t90 20zM302 12q-18 -9 -30 -24.5t-12 -36.5q0 -34 45 -64q30 -20 30 -57q0 -38 -21.5 -62.5t-54.5 -24.5q-20 0 -38 10t-32 27t-22.5 39.5 t-8.5 46.5q0 26 10 50.5t26 46t36.5 38t41.5 26.5z"/>
   <glyph glyph-name="slash" horiz-adv-x="651" unicode="/" d="M546 794h60l-542 -823h-60z"/>
   <glyph glyph-name="Oslash" d="M595 828h60l-98 -149q56 -56 82 -130.5t26 -156.5q0 -77 -24.5 -146.5t-68 -122t-102.5 -83.5t-127 -31q-105 0 -184 66l-69 -104h-60l92 140q-54 53 -78 128t-24 153q0 76 24.5 145.5t68 122.5t102.5 84t128 31q100 0 177 -61zM381 43q30 0 56 11.5t45 37.5t30 68 t11 104q0 34 -3.5 74.5t-9.5 81t-14 78t-16 65.5l-257 -391q58 -129 158 -129zM304 742q-30 0 -56.5 -13t-45.5 -41t-30 -72t-11 -106q0 -32 3 -69.5t8.5 -75t13 -72.5t15.5 -62l258 391q-25 60 -67.5 90t-87.5 30z" unicode="Ø"/>
   <glyph glyph-name="oslash" horiz-adv-x="506" unicode="ø" d="M391 510h60l-43 -65l10 -10q35 -35 52 -80t17 -96t-18.5 -96t-50 -79.5t-74 -54.5t-90.5 -20q-64 0 -114 31l-26 -40h-60l47 71l-11 11q-68 74 -68 177q0 51 18.5 96t50 79.5t73.5 54.5t90 20q62 0 115 -33zM226 480h-6q-23 0 -38 -37t-15 -98q0 -33 5 -72.5t13 -73.5 l118 178q-14 47 -37 73.5t-40 29.5zM216 110q33 -74 73 -74q22 0 37 37t15 98q0 32 -5 71.5t-13 73.5l-119 -179z"/>
   <glyph glyph-name="bullet" horiz-adv-x="273" unicode="•" d="M134 549q24 0 45 -9.5t36.5 -26.5t25 -39.5t9.5 -48.5t-9.5 -48t-25 -39t-36.5 -26.5t-45 -9.5t-45.5 10t-37.5 26.5t-25 39t-9 47.5q0 26 9 48.5t25 39.5t37.5 26.5t45.5 9.5z"/>
   <glyph glyph-name="zcaron" horiz-adv-x="631" unicode="ž" d="M248 501h324q-1 -24 -12 -43t-26 -35l-348 -376h202q39 0 92.5 18t102.5 60l25 -21l-142 -125l-25 21q4 4 4 6q0 3 -8 5.5t-18.5 3.5t-20.5 1.5t-14 0.5h-367q-1 23 12.5 44t31.5 40l346 369h-160q-40 0 -94 -18t-108 -62l-24 21l142 126l25 -22q-4 -4 -4 -7t6 -4.5 t15.5 -2t21 -0.5h21.5zM433 655l-100 -101l-100 101v43l100 -44l100 44v-43z"/>
   <glyph glyph-name="scaron" horiz-adv-x="561" unicode="š" d="M122 39q-21 0 -39.5 -5t-26.5 -20h-33l73 174l26 1q9 -28 24.5 -54.5t37.5 -47.5t50 -33.5t63 -12.5q23 0 43.5 3.5t36 11t24.5 18.5t9 26q0 27 -16 45t-41.5 31t-57.5 23t-65 19t-65 20t-57 27.5t-40.5 41.5t-15.5 62q0 19 6.5 43.5t28 45.5t62 35.5t107.5 14.5 q43 0 68 -4.5t41.5 -10t31 -10t38.5 -4.5q19 0 36 5.5t25 19.5h33l-73 -175h-26q-10 29 -23.5 56.5t-33.5 49t-48.5 34.5t-68.5 13q-19 0 -36.5 -3t-31.5 -10t-22.5 -18t-8.5 -26q0 -20 17.5 -34t45 -24.5t61.5 -20t68 -20.5t68.5 -26t62 -36t44.5 -50.5t17 -68.5 q-1 -27 -11 -51.5t-36 -43t-73 -30t-121 -11.5q-39 0 -63.5 4.5t-42.5 10t-34 10t-38 5.5zM392 661l-100 -101l-100 101v43l100 -44l100 44v-43z"/>
   <glyph glyph-name="Scaron" horiz-adv-x="639" unicode="Š" d="M548 603h-34q-16 40 -33 67t-38.5 43.5t-50 23.5t-67.5 7q-39 -1 -71.5 -11t-56 -27.5t-36.5 -41.5t-13 -53q0 -43 22.5 -70.5t54.5 -44t67 -25t61 -13.5q28 -7 56.5 -15.5t55.5 -21.5t52 -31.5t47 -43.5q26 -31 38.5 -61.5t12.5 -59.5q0 -46 -25.5 -85.5t-66.5 -68.5 t-91.5 -45.5t-101.5 -16.5q-48 0 -77 9t-49.5 20t-37.5 20t-41 9q-20 0 -37.5 -15t-31.5 -43h-39l91 172h34q15 -40 30 -67t36.5 -43.5t51.5 -23.5t75 -7q75 0 113 33t38 90q0 45 -20 76.5t-50 53t-64.5 35t-64.5 21.5q-34 7 -65.5 15.5t-59.5 22.5t-52 36t-42 56 q-20 36 -20 71q0 49 28 90.5t70 71.5t90.5 46.5t89.5 16.5q46 0 75 -9t50 -20t38.5 -20t41.5 -9q38 0 69 58h39zM429 906l-100 -101l-100 101v43l100 -44l100 44v-43z"/>
   <glyph glyph-name="Zcaron" horiz-adv-x="748" unicode="Ž" d="M13 17v13.5t1 10.5q-2 -2 -4 -3.5t-3 -2.5q-2 -1 -2 -2h-1q0 7 14.5 19t27.5 37l482 646h-156q-40 0 -79.5 0.5t-79.5 0.5q-17 0 -37.5 -7t-43.5 -20.5t-47 -32.5t-46 -42l-34 26l113 141l51 -2q-5 -5 -5 -10q0 -9 15.5 -16t36.5 -7l478 -1q0 -16 0.5 -22t-2 -10 t-8.5 -10.5t-18 -22.5q-58 -77 -119.5 -160t-124 -166.5t-124 -166.5t-119.5 -160h347q16 0 37.5 7.5t45 21t47 32t44.5 41.5l35 -26l-114 -140l-50 2q4 4 4 9q0 9 -16 16t-36 7h-510zM481 913l-100 -101l-100 101v43l100 -44l100 44v-43z"/>
   <glyph glyph-name="OE" horiz-adv-x="1070" unicode="Œ" d="M608 455h191q25 0 48 17t45 40l29 -23q-8 -10 -16 -19.5t-20.5 -24.5t-31 -38.5t-48.5 -61.5l-29 22q13 13 13 42q0 15 -7 15h-174v-377h223q18 0 40.5 8t46 21.5t46.5 31.5t42 38l30 -23l-114 -140l-42 2q4 4 4 8q0 10 -17 17t-39 7l-491 -1q-69 1 -127.5 34 t-101.5 87.5t-67 124t-24 143.5q0 85 24.5 152t70 113t110 70.5t143.5 24.5q10 0 20.5 -1t18.5 -1v2h424q22 0 39 7t17 17q0 5 -4 9l42 2l114 -141l-30 -23q-18 19 -41 37t-47 31.5t-46.5 22t-40.5 8.5h-223v-280zM401 46l3 1q5 0 14 2t18 5.5t17 8.5t13 12v617 q0 10 -7.5 17.5t-18 13t-21.5 8.5t-18 3q-67 0 -112.5 -10.5t-74 -35.5t-41 -68t-12.5 -107q0 -26 1.5 -56t6.5 -63q5 -36 11.5 -75.5t17 -78t26.5 -74t40.5 -62t58 -42.5t78.5 -16z"/>
   <glyph glyph-name="perthousand" horiz-adv-x="1357" unicode="‰" d="M784 509q92 0 158 -68q68 68 159 68q48 0 90 -20t74 -54.5t50.5 -80t18.5 -95.5q0 -51 -18.5 -96t-50 -79.5t-74 -54.5t-90.5 -20q-92 0 -159 67q-66 -67 -158 -67q-48 0 -90.5 20t-74 54t-49.5 79.5t-18 96.5t18.5 96t50 79.5t73.5 54.5t90 20zM257 816q48 0 90 -20 t74 -54.5t50.5 -80t18.5 -95.5q0 -51 -18.5 -96t-50 -79.5t-74 -54.5t-90.5 -20t-90.5 20t-74 54t-49.5 79.5t-18 96.5t18.5 96t50 79.5t73.5 54.5t90 20zM828 805h107l-736 -809h-107zM1073 480h-6q-23 0 -38 -37t-15 -98q0 -55 11 -110t28 -99.5t39 -72t44 -27.5t37 37 t15 98q0 52 -10.5 105.5t-27 97.5t-37 73t-40.5 33zM229 787h-6q-23 0 -38 -37t-15 -98q0 -55 11 -110t28 -99.5t39 -72t44 -27.5t37 37t15 98q0 52 -10.5 105.5t-27 97.5t-37 73t-40.5 33zM756 480h-6q-23 0 -38 -37t-15 -98q0 -55 11 -110t28 -99.5t39 -72t44 -27.5t37 37 t15 98q0 52 -10.5 105.5t-27 97.5t-37 73t-40.5 33z"/>
   <glyph glyph-name="backslash" horiz-adv-x="651" unicode="\" d="M629 -29h-60l-565 857h60z"/>
   <glyph glyph-name="section" horiz-adv-x="833" unicode="§" d="M103 541q-55 30 -55 103q0 19 6.5 43.5t28 45.5t62 35.5t107.5 14.5q43 0 68 -4.5t41.5 -10t31 -10t38.5 -4.5q19 0 36 5.5t25 19.5h33l-73 -175h-26q-10 29 -23.5 56.5t-33.5 49t-48.5 34.5t-68.5 13q-19 0 -36.5 -3t-31.5 -10t-22.5 -18t-8.5 -26q0 -20 17.5 -34 t45 -24.5t61.5 -20t68 -20.5t68.5 -26t62 -36t44.5 -50.5t17 -68.5q-1 -22 -7.5 -43.5t-24.5 -39.5t-50 -31t-83 -19q28 -9 53 -20t44.5 -26.5t31 -37.5t11.5 -55q0 -20 -6.5 -44t-28 -45t-62 -35.5t-107.5 -14.5q-44 0 -68.5 4.5t-41 10t-31.5 10t-39 4.5q-19 0 -35.5 -5.5 t-24.5 -19.5h-33l73 175h26q10 -30 23.5 -57.5t33.5 -49t48 -34t69 -12.5q19 0 36.5 3t31.5 9.5t22.5 17.5t8.5 27q0 19 -17 32.5t-44 24.5t-61.5 21t-69.5 21t-69.5 26t-61.5 36.5t-44 50.5t-17 68q1 22 7.5 43t24.5 39t49.5 31t82.5 19q-23 8 -43.5 17t-40.5 20zM180 361 q17 -17 44 -26.5t53 -18.5h16q23 0 43.5 3.5t36 11t24.5 18.5t9 26q0 25 -12 41t-30.5 27t-40.5 18t-43 14q-4 1 -13 1q-23 0 -43.5 -3.5t-36 -11t-24.5 -18.5t-9 -26q0 -20 6.5 -31.5t19.5 -24.5z"/>
   <glyph glyph-name="florin" horiz-adv-x="406" unicode="ƒ" d="M125 470h-100v31l100 8v62q0 44 18.5 87.5t50 78t73.5 56t88 21.5q33 0 68 -11t64.5 -32t48 -51t18.5 -67q0 -19 -6.5 -35.5t-18 -28.5t-26.5 -19t-31 -7q-34 0 -51 22.5t-24.5 53.5t-9.5 63t-6 51q-8 36 -48 36q-31 0 -48.5 -19.5t-22.5 -55.5q-9 -72 -9 -118v-87h104 v-39h-102l2 -515q0 -44 -19 -87.5t-50.5 -78t-73.5 -56t-87 -21.5q-34 0 -69 11t-64 32t-47.5 51t-18.5 68q0 19 6.5 35.5t17.5 28.5t26 19t32 7q22 0 36.5 -10t23.5 -26.5t13.5 -37.5t7.5 -42t4.5 -41t4.5 -34q8 -35 48 -35q60 0 71 74q5 36 7.5 66t2.5 53q0 42 -1 176 t-3 363z"/>
   <glyph glyph-name="guilsinglleft" horiz-adv-x="297" unicode="‹" d="M205 114l-186 184l186 185h49l-82 -185l82 -184h-49z"/>
   <glyph glyph-name="guilsinglright" horiz-adv-x="286" unicode="›" d="M68 483l186 -184l-186 -185h-49l82 185l-82 184h49z"/>
   <glyph glyph-name="guillemotleft" horiz-adv-x="510" unicode="«" d="M427 114l-186 184l186 185h49l-82 -185l82 -184h-49zM205 114l-186 184l186 185h49l-82 -185l82 -184h-49z"/>
   <glyph glyph-name="guillemotright" horiz-adv-x="510" unicode="»" d="M68 483l186 -184l-186 -185h-49l82 185l-82 184h49zM290 483l186 -184l-186 -185h-49l82 185l-82 184h49z"/>
   <glyph glyph-name="trademark" horiz-adv-x="899" unicode="™" d="M265 734v-280q0 1 10 1h20v-41h-156v41h19.5t10.5 -1v280h-43q-16 0 -34 -11h1q-10 -5 -20.5 -15t-22.5 -23l-36 27l65 80l41 1q-2 -2 -2 -5q0 -5 4 -8.5t5 -3.5h179q1 0 4 3t3 8q0 4 -2 6l44 -1l65 -80l-36 -27q-25 27 -45 38h1q-17 11 -33 11h-42zM457 714h1h-1z M583 565q-10 14 -19 30.5t-19 30.5q-11 14 -20 27.5t-19 27.5q-1 0 -1 1v-222q2 -2 9.5 -3.5t21.5 -1.5v-41h-109v41q13 0 18.5 1.5t10.5 3.5v241q0 14 0.5 20.5t-1.5 9.5t-8.5 3.5t-20.5 2.5v39h152v-44q-10 2 -10 3q0 -3 3 -6l-1 1q12 -17 23.5 -33t22.5 -32q0 -3 5 -8 l3 3q13 13 27.5 33t26.5 37l-1 -1q2 5 4 5h-7v42h151v-42h-21.5t-9.5 1v-275q3 -3 11.5 -4t19.5 -1v-41h-151v41q3 0 14 2t14 3l1 231q-20 -29 -37.5 -51.5t-34.5 -41.5v1q-5 -7 -13 -17t-13 -16z"/>
   <glyph glyph-name="equal" horiz-adv-x="354" unicode="=" d="M30 297h293v-59h-293v59zM30 415h293v-59h-293v59z"/>
   <glyph glyph-name="yen" horiz-adv-x="786" unicode="¥" d="M534 352h-81v-59h81v-59h-81v-157q0 -8 6 -13.5t16 -9.5t21.5 -5.5t22.5 -1.5v-30h-271v30q10 0 22 1.5t22 5.5t16.5 9.5t6.5 13.5v157h-74v59h74v59h-74v59h74l1 10q-42 59 -84 117.5t-84 117.5q-23 32 -56.5 52t-71.5 28v29h270v-30q-9 0 -15 -7.5t-6 -20.5 q0 -18 11 -34l144 -202q35 50 72 101t72 101q8 12 13 25.5t6 22.5q0 14 -12 14v30h189l-1 -30q-22 -3 -45.5 -9.5t-46 -16t-41.5 -23t-31 -30.5l-147 -207v-38h82v-59z"/>
   <glyph glyph-name="plus" horiz-adv-x="354" unicode="+" d="M30 415h116v117h59v-117h118v-59h-118v-117h-59v117h-116v59z"/>
   <glyph glyph-name="plusminus" horiz-adv-x="354" unicode="±" d="M30 415h116v117h59v-117h118v-59h-118v-117h-59v117h-116v59zM30 177h293v-59h-293v59z"/>
   <glyph glyph-name="less" horiz-adv-x="287" unicode="&lt;" d="M207 22l-186 276l186 277h49l-82 -277l82 -276h-49z"/>
   <glyph glyph-name="greater" horiz-adv-x="284" unicode="&gt;" d="M53 577l186 -276l-186 -277h-49l82 277l-82 276h49z"/>
   <glyph glyph-name="asterisk" horiz-adv-x="359" unicode="*" d="M255 591q-5 -1 -11 -1.5t-11 -0.5q-22 0 -40 6q5 -9 15.5 -15.5t22.5 -6.5q9 0 19.5 3.5t20.5 3.5t20.5 -5t19.5 -13t14.5 -17t5.5 -18q0 -17 -12.5 -26.5t-33.5 -9.5q-22 0 -41 9t-33.5 23.5t-24.5 32t-14 35.5q-6 -11 -6 -26q0 -10 6 -18t13.5 -16.5t13.5 -18t6 -22.5 q0 -26 -11 -42t-28 -16q-9 0 -18.5 6.5t-17 17t-12 25t-4.5 30.5q0 27 13 53t29 40q-21 0 -29 -14t-15.5 -30.5t-20 -30.5t-42.5 -14q-17 0 -27 9.5t-10 23.5q0 19 10.5 34t26.5 26t35.5 17t38.5 6q20 0 40 -5q-5 9 -16.5 16t-24.5 7q-9 0 -20 -4t-21 -4t-20 5.5t-18.5 13.5 t-13.5 18t-5 18q0 15 13 25t33 10q22 0 41 -8.5t33.5 -23t24.5 -32.5t15 -36q5 12 5 26q0 11 -6 19t-13 16.5t-13 18t-6 23.5q0 26 11 41.5t28 15.5q19 0 35.5 -23.5t16.5 -56.5q0 -28 -14 -54.5t-31 -41.5q21 0 30 14t17.5 31.5t21 31.5t41.5 14q17 0 26.5 -10t9.5 -24 q0 -15 -8 -29t-20.5 -25t-28.5 -18t-31 -9z"/>
   <glyph glyph-name="underscore" horiz-adv-x="354" unicode="_" d="M30 -201h293v-59h-293v59z"/>
   <glyph glyph-name="asciicircum" horiz-adv-x="413" unicode="^" d="M20 481l184 186l185 -186v-49l-185 82l-184 -82v49z"/>
   <glyph glyph-name="braceleft" horiz-adv-x="274" unicode="{" d="M67 355q-44 21 -44 48t44 59q39 21 39 79q0 49 -7 108t-7 113q0 24 4 51t15 49.5t31 37.5t52 15q15 0 30.5 -6t32 -22t33 -44.5t32.5 -72.5l-19 -11q-5 12 -12 25.5t-15 24.5t-16 18t-16 7q-19 0 -29.5 -18t-10.5 -49q0 -44 7 -96t7 -108q0 -20 -0.5 -41t-3 -41.5 t-7 -38.5t-12.5 -33q16 -32 19.5 -73.5t3.5 -81.5q0 -55 -7 -108t-7 -98q0 -30 11 -47.5t29 -17.5q8 0 16 7t16 18t15 24.5t12 25.5l19 -11q-16 -44 -32.5 -72.5t-33 -44.5t-32 -22t-30.5 -6q-12 0 -22 3.5t-19 8.5q-39 21 -50 54.5t-11 86.5q0 52 7 109.5t7 106.5 q0 61 -39 84z"/>
   <glyph glyph-name="braceright" horiz-adv-x="260" unicode="}" d="M198 462q43 -22 43 -49t-43 -58q-40 -23 -40 -80q0 -50 7.5 -108t7.5 -112q0 -24 -4 -50.5t-15 -49.5t-31 -38t-52 -15q-15 0 -30.5 6t-32 22t-33 44.5t-32.5 72.5l19 11q5 -12 11.5 -25.5t14 -24.5t16 -18t16.5 -7q19 0 29.5 17.5t10.5 47.5q0 44 -7 97.5t-7 108.5 q0 40 4 82t20 72q-16 32 -20 73.5t-4 81.5q0 56 7 107.5t7 96.5q0 31 -10.5 49t-29.5 18q-8 0 -16.5 -7t-16 -18t-14 -24.5t-11.5 -25.5l-19 11q16 44 32.5 72.5t33 44.5t32 22t30.5 6q12 0 22 -3.5t19 -8.5q38 -21 49.5 -54.5t11.5 -86.5t-7.5 -110.5t-7.5 -106.5 q0 -62 40 -83z"/>
   <glyph glyph-name="parenleft" horiz-adv-x="348" unicode="(" d="M67 210q0 114 -1 194t-2.5 135.5t-3 90.5t-3 58.5t-2.5 39.5t-1 34q0 24 4 51t15 49.5t31 37.5t52 15q15 0 30.5 -6t32 -22t33 -44.5t32.5 -72.5l-19 -11q-5 12 -12 25.5t-15 24.5t-16 18t-16 7q-19 0 -29.5 -18t-10.5 -49q0 -37 2.5 -72t6 -76t6 -91.5t2.5 -119.5 q0 -63 -0.5 -113t-3.5 -88q-4 -44 -8.5 -84t-4.5 -75q0 -30 11 -47.5t29 -17.5q8 0 16 7t16 18t15 24.5t12 25.5l19 -11q-16 -44 -32.5 -72.5t-33 -44.5t-32 -22t-30.5 -6q-12 0 -22 3.5t-19 8.5q-39 21 -50 54.5t-11 86.5q0 20 1.5 41t3.5 44l8 70v0z"/>
   <glyph glyph-name="parenright" horiz-adv-x="348" unicode=")" d="M268 607q0 -114 1 -194.5t2.5 -136t3 -90.5t3 -58t2.5 -39.5t1 -33.5q0 -24 -4 -50.5t-15 -49.5t-31 -38t-52 -15q-15 0 -30.5 6t-32 22t-33 44.5t-32.5 72.5l19 11q5 -12 11.5 -25.5t14 -24.5t16 -18t16.5 -7q19 0 29.5 17.5t10.5 47.5q0 37 -2.5 72.5t-5.5 76.5 t-5.5 92t-2.5 119q0 63 0.5 113.5t3.5 88.5q3 43 7.5 82.5t4.5 74.5q0 31 -10.5 49t-29.5 18q-8 0 -16.5 -7t-16 -18t-14 -24.5t-11.5 -25.5l-19 11q16 44 32.5 72.5t33 44.5t32 22t30.5 6q12 0 22 -3.5t19 -8.5q38 -21 49.5 -54.5t11.5 -86.5q0 -21 -1.5 -42t-3.5 -43 l-8 -70v0z"/>
   <glyph glyph-name="bracketleft" horiz-adv-x="248" unicode="[" d="M238 841q-25 0 -47.5 -7.5t-22.5 -22.5v-811q0 -10 7.5 -17.5t18 -13t23 -8.5t21.5 -3v-30h-187v943h187v-30z"/>
   <glyph glyph-name="bracketright" horiz-adv-x="248" unicode="]" d="M51 -42q25 0 47.5 7.5t22.5 22.5v811q0 10 -7.5 17.5t-18 13t-23 8.5t-21.5 3v30h187v-943h-187v30z"/>
   <glyph glyph-name="space" horiz-adv-x="243" unicode=" "/>
   <glyph glyph-name="eight" horiz-adv-x="565" unicode="8" d="M397 282q-13 22 -36 40.5t-51.5 34t-59.5 30.5t-59 30q-44 -17 -62.5 -44.5t-18.5 -69.5q0 -41 17.5 -87.5t46 -85.5t64 -64.5t72.5 -25.5q18 0 38 10t36.5 29.5t27 48t10.5 65.5q0 46 -25 89zM269 9q-55 0 -104 17.5t-85.5 48t-58 71.5t-21.5 89q0 33 11 64t31.5 57.5 t48.5 47.5t62 35q-46 28 -75 66t-29 100q0 35 17.5 66t47.5 54t70 36.5t85 13.5q44 0 83.5 -13.5t69.5 -36.5t48 -54t18 -66q0 -45 -26.5 -82.5t-71.5 -60.5q30 -11 56.5 -28t46.5 -43t32 -64t12 -92q-1 -47 -22.5 -88.5t-57.5 -72t-84.5 -48t-103.5 -17.5zM343 479 q29 11 40.5 30t11.5 49t-14 63t-37 60t-53 45t-63 18q-82 0 -82 -101q0 -45 24.5 -80.5t70.5 -51.5q25 -8 50.5 -16t51.5 -16z"/>
   <glyph glyph-name="nine" horiz-adv-x="581" unicode="9" d="M0 508q0 66 21.5 116t58.5 83.5t86 50.5t103 17q55 0 97.5 -14.5t74.5 -46.5t55.5 -82.5t40.5 -123.5q7 -31 7 -69q0 -46 -11 -96.5t-31.5 -99t-50 -92t-65 -76.5t-77.5 -52.5t-88 -19.5q-20 0 -48 5v33q6 -1 11.5 -1h11.5q47 0 81.5 23t59.5 60.5t40.5 85.5t24.5 98 q-38 -28 -80 -41.5t-84 -13.5q-47 0 -90 16.5t-76 49t-52.5 80.5t-19.5 110zM410 362q3 36 3 70q0 60 -9 117t-27 101t-45.5 70.5t-64.5 26.5q-25 0 -49.5 -19.5t-43.5 -52t-31 -75.5t-12 -91q0 -105 31.5 -159.5t94.5 -54.5t153 67z"/>
   <glyph glyph-name="six" horiz-adv-x="571" unicode="6" d="M544 274q0 -65 -21 -114t-58 -83t-86 -51t-104 -17q-56 0 -99 14.5t-75 46t-55 82t-39 122.5q-7 29 -7 67q0 46 11 96t31.5 98t49.5 92t65 77t78 52.5t88 19.5q20 0 48 -5v-33q-6 1 -11.5 1h-11.5q-47 0 -81 -22t-58.5 -58.5t-40 -83.5t-24.5 -96q38 26 78.5 39t81.5 13 q47 0 90.5 -17t76.5 -49.5t53 -80.5t20 -110zM137 424q-2 -20 -3 -39t-1 -38q0 -61 8.5 -117t26.5 -99t45 -68.5t64 -25.5q25 0 49.5 19t43.5 51.5t31 75.5t12 90q0 105 -32 160.5t-95 55.5q-64 0 -149 -65z"/>
   <glyph glyph-name="four" horiz-adv-x="534" unicode="4" d="M436 349q7 0 14.5 7.5t13.5 18t10 22t4 20.5h30v-261h-30q0 6 -4 17.5t-10 22t-13.5 18.5t-14.5 8h-69v-134q0 -8 7.5 -15.5t18.5 -13t22.5 -9t20.5 -3.5v-30h-264v30q6 0 17.5 3.5t22 9.5t18.5 13t8 15v134h-238l257 544h110v-417h69zM238 349v290l-137 -290h137z"/>
   <glyph glyph-name="seven" horiz-adv-x="513" unicode="7" d="M128 17q2 58 15.5 106.5t34 90t46.5 77.5t53 69q28 34 55.5 65.5t51 64t41 67.5t25.5 76q-38 -53 -102 -53q-36 0 -73.5 7t-73 15.5t-67.5 15.5t-56 7q-41 0 -41 -57l-32 -3q-2 22 -3.5 40.5t-1.5 34.5q0 70 20 97.5t53 27.5q31 0 71 -18t81.5 -39.5t81 -39.5t71.5 -18 q31 0 50.5 23t23.5 82h1q-1 5 -1 11h35q0 -3 0.5 -7.5t0.5 -11.5q0 -49 -2 -84t-7.5 -62.5t-14 -51t-21.5 -48.5q-27 -51 -58 -100.5t-58.5 -106t-46.5 -124t-21 -153.5h-131z"/>
   <glyph glyph-name="five" horiz-adv-x="542" unicode="5" d="M248 17q-81 0 -144 39.5t-97 105.5h1q-8 18 -8 35t6.5 32t18 26.5t26.5 18.5t33 7q36 0 60.5 -25t24.5 -59q0 -18 -4.5 -29t-10.5 -19t-10.5 -15.5t-4.5 -18.5q0 -12 6 -24.5t16.5 -22t24.5 -15.5t31 -6q5 0 9.5 0.5t9.5 0.5q4 0 8 -0.5t9 -0.5q30 0 83 45q50 42 50 158 q0 72 -16 117.5t-41.5 70.5t-58.5 34t-66 9q-30 0 -60.5 -7t-57.5 -16.5t-47.5 -19t-28.5 -14.5q-1 1 -1 16q0 19 0.5 50t1 66t2 71t2.5 66t2 50t2 23h35v-3.5t-1 -7.5h1q3 -40 35 -60t83 -20q33 0 67.5 14t68.5 30.5t65.5 30.5t59.5 14q32 0 52.5 -26.5t20.5 -96.5 q0 -16 -1.5 -34.5t-3.5 -39.5l-32 3q0 56 -43 56q-24 0 -56 -7t-68 -15t-74 -15t-75 -7q-66 0 -103 63q-1 -26 -1.5 -54t-1 -52t-1 -39.5t-0.5 -16.5q9 3 31.5 9.5t52.5 13.5t63.5 12t65.5 5q47 0 93 -10t82.5 -36.5t59 -74t22.5 -122.5q0 -54 -21.5 -102t-58 -83.5 t-85 -56.5t-103.5 -21z"/>
   <glyph glyph-name="zero" horiz-adv-x="564" unicode="0" d="M269 775q55 0 104 -31t85.5 -83.5t57.5 -122t21 -146.5q0 -78 -21 -147.5t-57.5 -122t-85.5 -83t-104 -30.5q-56 0 -105 30.5t-85.5 82.5t-57.5 122t-21 148t21 147.5t57.5 122t85.5 83t105 30.5zM245 734q-21 -2 -40.5 -24.5t-35 -60.5t-24.5 -89t-9 -111 q0 -82 14 -155.5t36.5 -128.5t51 -87.5t57.5 -32.5q21 2 41.5 26t36 63.5t25.5 93t10 113.5q0 78 -14.5 149t-38 125.5t-51.5 86.5t-55 32h-4z"/>
   <glyph glyph-name="two" horiz-adv-x="542" unicode="2" d="M248 775q55 0 104 -21t85.5 -57.5t57.5 -85t21 -103.5q0 -150 -90 -190q-36 -17 -73.5 -28.5t-75.5 -22l-76 -21t-75 -23.5q-56 -20 -63 -64q37 43 95 43q37 0 74.5 -7t72.5 -15.5t66.5 -15.5t55.5 -7q42 0 42 58l32 3q2 -22 3.5 -40.5t1.5 -34.5q0 -71 -20.5 -98.5 t-53.5 -27.5q-32 0 -71.5 18t-81 39.5t-81.5 39.5t-71 18t-50.5 -23t-22.5 -83h-1q0 -8 1 -9h-35q-2 6 -2 22q0 48 3 82t10.5 57t20.5 37.5t34 23.5q29 12 60.5 21.5t63 20t61.5 24t57 33.5t42.5 64t15.5 110q0 28 -11 62t-31 78q-21 45 -50 68.5t-67 23.5q-17 0 -33 -5 t-29 -12.5t-21 -17t-8 -19.5q0 -12 8 -23q26 -38 26 -74q0 -35 -24.5 -60t-60.5 -25q-35 0 -59.5 25t-24.5 60q0 16 8 35h-1q34 66 97 106.5t144 40.5z"/>
   <glyph glyph-name="three" horiz-adv-x="567" unicode="3" d="M522 766v-88l-211 -130h8q41 0 80.5 -14.5t71 -47t51 -85t19.5 -129.5q0 -55 -21.5 -103t-58.5 -83.5t-85.5 -56t-103.5 -20.5q-79 0 -143 39.5t-97 105.5q-8 18 -8 35q0 35 25 59.5t60 24.5t59.5 -24.5t24.5 -59.5q0 -18 -4.5 -28.5t-10 -18.5t-10 -15.5t-4.5 -19.5 q0 -26 23 -46.5t58 -20.5q15 0 27 0.5t24.5 6.5t26.5 19.5t34 39.5q52 68 52 167q0 64 -8.5 108t-25.5 71t-42.5 39t-59.5 12q-63 0 -126 -48l-22 23q25 20 60 37l231 140l-230 -2q-20 0 -42 -7.5t-44 -19.5t-42 -27.5t-34 -31.5l-24 19l179 239l25 -19q-6 -5 -6 -12 q0 -11 12.5 -21t36.5 -10z"/>
   <glyph glyph-name="one" horiz-adv-x="347" unicode="1" d="M261 90q0 -8 7.5 -15.5t18.5 -13.5t23 -9.5t21 -3.5v-31h-265v31q7 0 18.5 3.5t22 9.5t18 13.5t7.5 15.5v452q0 43 -22 43q-9 0 -23.5 -8t-30 -19.5t-31 -23.5t-25.5 -19v31l216 229h45v-685z"/>
   <glyph glyph-name="multiply" horiz-adv-x="354" unicode="×" d="M49 307l85 79l-81 85l43 41l81 -85l85 81l41 -43l-86 -81l80 -85l-43 -41l-80 85l-84 -79z"/>
   <glyph glyph-name="eth" horiz-adv-x="571" unicode="ð" d="M214 651l72 34q-20 34 -55.5 50.5t-70.5 16.5q-12 0 -25 -1.5t-27 -5.5l-6 35q39 16 80 16q46 0 93 -22t85 -55l125 60v-55l-87 -41q33 -33 60.5 -75.5t47 -88.5t30.5 -92t11 -85q0 -179 -71.5 -261.5t-206.5 -82.5q-51 0 -98 18t-83.5 54t-58 90t-21.5 126q0 60 20 108 t53.5 81.5t78 51.5t92.5 18q63 0 124 -31q-12 37 -27 69.5t-34 60.5l-103 -48zM392 458q-80 44 -136 44q-57 0 -88.5 -41t-31.5 -118q0 -61 14.5 -117.5t38.5 -99.5t54.5 -69t62.5 -26q59 0 85.5 61t26.5 167q0 49 -6 98.5t-20 100.5z"/>
   <glyph glyph-name="bar" horiz-adv-x="182" unicode="|" d="M45 829h87v-849h-87v849z"/>
   <glyph glyph-name="brokenbar" horiz-adv-x="182" unicode="¦" d="M45 318h87v-338h-87v338zM45 829h87v-340h-87v340z"/>
   <glyph glyph-name="Ydieresis" horiz-adv-x="786" unicode="Ÿ" d="M452 449l1 -372q0 -8 6 -13.5t16 -9.5t21.5 -5.5t22.5 -1.5v-30h-271v30q10 0 22 1.5t22 5.5t16.5 9.5t6.5 13.5l1 344q-42 59 -84 117.5t-84 117.5q-23 32 -56.5 52t-71.5 28v29h270v-30q-9 0 -15 -7.5t-6 -20.5q0 -18 11 -34l144 -202q35 50 72 101t72 101 q8 12 13 25.5t6 22.5q0 14 -12 14v30h189l-1 -30q-22 -3 -45.5 -9.5t-46 -16t-41.5 -23t-31 -30.5zM549 1017q18 0 33 -8.5t26.5 -23t18 -34.5t6.5 -42q0 -23 -6.5 -42.5t-18 -34t-26.5 -23t-33 -8.5t-33 8.5t-26.5 23t-18 34t-6.5 42.5q0 22 6.5 42t18 34.5t26.5 23t33 8.5 zM293 1017q18 0 33 -8.5t26.5 -23t18 -34.5t6.5 -42q0 -23 -6.5 -42.5t-18 -34t-26.5 -23t-33 -8.5t-33 8.5t-26.5 23t-18 34t-6.5 42.5q0 22 6.5 42t18 34.5t26.5 23t33 8.5z"/>
   <glyph glyph-name="numbersign" horiz-adv-x="354" unicode="#" d="M30 415h77l13 58h59l-13 -58h59l13 58h59l-13 -58h39v-59h-53l-13 -59h66v-59h-79l-13 -58h-59l13 58h-59l-13 -58h-59l13 58h-37v59h50l13 59h-63v59zM139 297h59l13 59h-59z"/>
   <glyph glyph-name="endash" horiz-adv-x="408" unicode="–" d="M57 415h293v-59h-293v59z"/>
   <glyph glyph-name="emdash" horiz-adv-x="506" unicode="—" d="M44 415h425v-59h-425v59z"/>
   <glyph glyph-name="ordfeminine" horiz-adv-x="572" unicode="ª" d="M456 479q0 -75 20.5 -110.5t79.5 -35.5v-30q-145 0 -188 36q-3 1 -6.5 1h-6.5q-16 0 -24.5 -7t-23.5 -15.5t-44 -15.5t-86 -7q-50 0 -81 11.5t-48.5 30t-24 42t-6.5 46.5q0 18 6 38.5t19 39.5t34 34.5t50 22.5q85 21 141 27q53 6 53 94q0 16 -6 32t-16 28.5t-23 20 t-27 7.5q-26 0 -37 -15.5t-16 -38.5q-10 -42 -33 -60.5t-48 -18.5q-24 0 -43.5 15t-19.5 39q0 18 15.5 37t40 34t56 24.5t63.5 9.5q46 0 88 -22t73.5 -56.5t50 -78t18.5 -86.5v-73zM328 595q-11 -15 -29.5 -23t-39.5 -13t-42.5 -9.5t-38.5 -13t-28 -22.5t-11 -39 q0 -40 9.5 -69t23.5 -47.5t30.5 -27t30.5 -8.5q18 0 35 8.5t30.5 23t21.5 33.5t8 40v167z"/>
   <glyph glyph-name="ordmasculine" horiz-adv-x="509" unicode="º" d="M257 789q48 0 90 -20t74 -54.5t50.5 -80t18.5 -95.5q0 -51 -18.5 -96t-50 -79.5t-74 -54.5t-90.5 -20t-90.5 20t-74 54t-49.5 79.5t-18 96.5t18.5 96t50 79.5t73.5 54.5t90 20zM229 760h-6q-23 0 -38 -37t-15 -98q0 -55 11 -110t28 -99.5t39 -72t44 -27.5t37 37t15 98 q0 52 -10.5 105.5t-27 97.5t-37 73t-40.5 33z"/>
   <glyph glyph-name="onesuperior" horiz-adv-x="347" unicode="¹" d="M229 332q0 -3 15.5 -5t27.5 -2v-56h-184v56q9 0 24 2t15 5v276q0 8 -4 8q-5 0 -13.5 -5t-19 -13t-22 -17t-21.5 -17v57l141 148h41v-437z"/>
   <glyph glyph-name="twosuperior" horiz-adv-x="542" unicode="²" d="M242 782q72 0 124 -53h-1q52 -51 52 -128q0 -107 -62 -134q-61 -27 -116 -39q-2 -1 -5 -1q26 -5 58 -13.5t58 -9.5q15 0 15 36l41 2q2 -22 3 -38.5t1 -27.5q0 -54 -15 -74.5t-40 -20.5q-21 0 -46.5 11.5t-51.5 25.5h1q-25 13 -48 23.5t-42 10.5q-14 0 -23.5 -10t-9.5 -37 v-23h-38q-3 7 -5 19.5t-2 25.5q0 58 11 87t37 40l-1 -1q27 12 58 18.5t57 19t44 37t19 73.5q0 8 -5 28.5t-15.5 42t-27 38t-38.5 16.5q-15 0 -29 -6t-14 -11l1 -1q8 -13 13 -26.5t5 -28.5q0 -29 -18 -50t-45 -21q-26 0 -44 21t-18 50q0 28 15.5 51.5t39.5 41t52.5 27 t54.5 9.5z"/>
   <glyph glyph-name="threesuperior" horiz-adv-x="567" unicode="³" d="M425 767v-85l-90 -56q45 -16 73.5 -56.5t28.5 -122.5q0 -39 -14.5 -72t-38.5 -57t-56 -37t-67 -13q-27 0 -55.5 10t-52.5 27t-39 41t-15 51q0 29 18 49t45 20q26 0 44 -20t18 -49q0 -34 -14 -45l1 2q-3 -3 -3 -6q0 -11 14 -20h-1q5 -3 13 -3.5t17 -0.5h11q9 0 21.5 11 t23.5 28.5t19 39.5t8 45q0 70 -19 96t-54 26t-76 -32l-37 37q16 12 30 22t25 15h-1q18 10 27 15.5t15.5 9.5t15.5 9.5t27 15.5h-48.5t-44 -4.5t-42 -16t-41.5 -34.5l-36 29l127 170l43 -32q-3 -3 -3 -6t4 -3z"/>
   <glyph glyph-name="onequarter" horiz-adv-x="818" unicode="¼" d="M229 332q0 -3 15.5 -5t27.5 -2v-56h-184v56q9 0 24 2t15 5v276q0 8 -4 8q-5 0 -13.5 -5t-19 -13t-22 -17t-21.5 -17v57l141 148h41v-437zM662 794l60 -25l-542 -798h-60zM707 241q3 0 5.5 4.5t4.5 11t3.5 13.5t1.5 13h41v-196h-41q0 4 -1.5 11t-3.5 13.5t-4.5 11 t-5.5 4.5h-30v-64q0 -1 4.5 -2t11 -2t13.5 -1.5t13 -0.5v-56h-184v56q9 0 24.5 2t15.5 4v64h-157l175 370h84v-256h30zM575 241v106q-12 -26 -24 -50.5t-26 -55.5h50z"/>
   <glyph glyph-name="onehalf" horiz-adv-x="890" unicode="½" d="M229 332q0 -3 15.5 -5t27.5 -2v-56h-184v56q9 0 24 2t15 5v276q0 8 -4 8q-5 0 -13.5 -5t-19 -13t-22 -17t-21.5 -17v57l141 148h41v-437zM662 794l60 -25l-542 -798h-60zM697 511q72 0 124 -53h-1q52 -51 52 -128q0 -107 -62 -134q-61 -27 -116 -39q-2 -1 -5 -1 q26 -5 58 -13.5t58 -9.5q15 0 15 36l41 2q2 -22 3 -38.5t1 -27.5q0 -54 -15 -74.5t-40 -20.5q-21 0 -46.5 11.5t-51.5 25.5h1q-25 13 -48 23.5t-42 10.5q-14 0 -23.5 -10t-9.5 -37v-23h-38q-3 7 -5 19.5t-2 25.5q0 58 11 87t37 40l-1 -1q27 12 58 18.5t57 19t44 37t19 73.5 q0 8 -5 28.5t-15.5 42t-27 38t-38.5 16.5q-15 0 -29 -6t-14 -11l1 -1q8 -13 13 -26.5t5 -28.5q0 -29 -18 -50t-45 -21q-26 0 -44 21t-18 50q0 28 15.5 51.5t39.5 41t52.5 27t54.5 9.5z"/>
   <glyph glyph-name="threequarters" horiz-adv-x="908" unicode="¾" d="M398 767v-85l-90 -56q45 -16 73.5 -56.5t28.5 -122.5q0 -39 -14.5 -72t-38.5 -57t-56 -37t-67 -13q-27 0 -55.5 10t-52.5 27t-39 41t-15 51q0 29 18 49t45 20q26 0 44 -20t18 -49q0 -34 -14 -45l1 2q-3 -3 -3 -6q0 -11 14 -20h-1q5 -3 13 -3.5t17 -0.5h11q9 0 21.5 11 t23.5 28.5t19 39.5t8 45q0 70 -19 96t-54 26t-76 -32l-37 37q16 12 30 22t25 15h-1q18 10 27 15.5t15.5 9.5t15.5 9.5t27 15.5h-48.5t-44 -4.5t-42 -16t-41.5 -34.5l-36 29l127 170l43 -32q-3 -3 -3 -6t4 -3zM744 794h60l-542 -823h-60zM799 241q3 0 5.5 4.5t4.5 11 t3.5 13.5t1.5 13h41v-196h-41q0 4 -1.5 11t-3.5 13.5t-4.5 11t-5.5 4.5h-30v-64q0 -1 4.5 -2t11 -2t13.5 -1.5t13 -0.5v-56h-184v56q9 0 24.5 2t15.5 4v64h-157l175 370h84v-256h30zM667 241v106q-12 -26 -24 -50.5t-26 -55.5h50z"/>
   <glyph glyph-name="cent" horiz-adv-x="481" unicode="¢" d="M281 32h-47v111q-46 4 -85 26t-67.5 56t-44.5 77t-16 90q0 48 16.5 91.5t45.5 77t67.5 55t83.5 25.5v147h47v-148q15 -2 26.5 -7t22.5 -9.5t23 -8t27 -3.5q41 0 54 25h30l-66 -175h-23q-6 18 -15.5 42t-21.5 46.5t-26.5 40.5t-30.5 24v-413q9 -3 20 -3q26 0 49 8t42 21 t32.5 30t21.5 34l19 -15q-9 -27 -28.5 -50t-44.5 -40.5t-54 -29t-57 -14.5v-111zM188 560q-6 -20 -9 -43.5t-3 -49.5q0 -44 5.5 -81.5t13.5 -67.5t18.5 -52t20.5 -34v383h-2q-32 -11 -44 -55z"/>
   <glyph glyph-name="question" horiz-adv-x="610" unicode="?" d="M437 594q0 42 -9.5 76t-27 58.5t-40.5 37.5t-50 13q-39 0 -63 -3.5t-37.5 -10t-18.5 -15t-5 -18.5q0 -12 7 -26t15 -28.5t15 -28t7 -23.5q0 -18 -7.5 -33t-20.5 -26t-30.5 -17.5t-36.5 -6.5q-20 0 -37 6.5t-30 17.5t-20.5 26t-7.5 33q0 7 3 18h-1q11 37 36.5 68t61 53.5 t79 35.5t91.5 13q57 0 107 -17.5t88 -47.5t60 -71t22 -87q0 -39 -14 -64t-35.5 -41.5t-48.5 -27t-53 -20.5q-20 -7 -39 -16t-34 -20.5t-24.5 -27t-9.5 -36.5q0 -28 13 -64h-102q-3 21 -3 39q0 29 8 49t21 33.5t28 22.5t29 17q16 9 36 18.5t37 26.5t29 43.5t12 70.5zM290 208 q18 0 33 -8.5t26.5 -23t18 -34.5t6.5 -42q0 -23 -6.5 -42.5t-18 -34t-26.5 -23t-33 -8.5t-33 8.5t-26.5 23t-18 34t-6.5 42.5q0 22 6.5 42t18 34.5t26.5 23t33 8.5z"/>
   <glyph glyph-name="questiondown" horiz-adv-x="610" unicode="¿" d="M190 212q0 -42 9.5 -76t27 -58.5t40.5 -37.5t50 -13q39 0 63 3.5t37.5 10t18.5 15t5 18.5q0 11 -7 25t-15 28.5t-15 28t-7 24.5q0 18 7.5 33t20.5 26t30 17.5t37 6.5q19 0 36.5 -6.5t30.5 -17.5t20.5 -26t7.5 -33q0 -8 -3 -18h1q-11 -36 -36 -67t-60 -54t-79 -36t-93 -13 q-57 0 -107 17.5t-88 47.5t-60 70.5t-22 87.5q0 40 14 65t36 41.5t48.5 26.5t51.5 19q20 7 39.5 16t34.5 21t24.5 27.5t9.5 36.5q0 14 -3.5 29.5t-9.5 34.5h102q3 -23 3 -40q0 -30 -8 -49.5t-20.5 -33t-28 -22.5t-29.5 -17q-17 -10 -35.5 -20.5t-38.5 -24.5 q-40 -27 -40 -113zM337 598q-18 0 -33 8.5t-26.5 23t-18 34t-6.5 42.5q0 22 6.5 42t18 34.5t26.5 23t33 8.5t33 -8.5t26.5 -23t18 -34.5t6.5 -42q0 -23 -6.5 -42.5t-18 -34t-26.5 -23t-33 -8.5z"/>
   <glyph glyph-name="exclamdown" horiz-adv-x="210" unicode="¡" d="M101 584q-18 0 -33 8.5t-26.5 23t-18 34t-6.5 42.5q0 22 6.5 42t18 34.5t26.5 23t33 8.5t33 -8.5t26.5 -23t18 -34.5t6.5 -42q0 -23 -6.5 -42.5t-18 -34t-26.5 -23t-33 -8.5zM69 486h60l55 -487h-165z"/>
   <glyph glyph-name="ampersand" horiz-adv-x="511" unicode="&amp;" d="M239 322l76 -93l30 73h87l-77 -118l132 -175h-126l-56 80q-11 -18 -22.5 -34t-27.5 -28t-37.5 -19t-53.5 -7q-29 0 -58 13t-52 35.5t-37 52t-14 62.5q0 67 37.5 105.5t95.5 52.5q-44 55 -44 95q0 42 33 63t84 21q66 0 101 -21.5t35 -64.5q0 -23 -11 -38t-27.5 -25.5 t-34.5 -17t-33 -12.5zM217 475q-41 0 -41 -32q0 -15 4.5 -30.5t11.5 -28t13.5 -22t11.5 -12.5q23 8 32.5 25.5t9.5 44.5q0 55 -42 55zM164 292q-9 -2 -18 -9t-16 -21.5t-11 -38t-4 -57.5q0 -36 9.5 -62t22.5 -43.5t27.5 -26t25.5 -8.5q23 0 38 25t36 82z"/>
   <glyph glyph-name="at" horiz-adv-x="585" unicode="@" d="M445 146q7 0 16.5 26.5t9.5 74.5q0 36 -9 78.5t-30.5 79.5t-58 62.5t-90.5 28.5q-48 0 -83 -19t-57.5 -51.5t-33.5 -75t-11 -90.5q0 -49 11 -89.5t34 -69t57.5 -44t82.5 -15.5q42 0 83 14t73 40l21 -26q-38 -29 -82 -45t-95 -16q-58 0 -108.5 20.5t-87.5 56t-58.5 83 t-21.5 100.5q0 52 21.5 99.5t59 83t87.5 56.5t108 21q56 0 106 -20.5t87.5 -56t59.5 -83t22 -100.5q0 -28 -9 -55t-25.5 -48.5t-39.5 -35t-50 -13.5q-41 0 -84 29q-9 0 -16 -4.5t-19.5 -10.5t-32.5 -10.5t-54 -4.5q-46 0 -73.5 21t-27.5 72q0 31 11 50.5t30.5 30.5t47 16.5 t59.5 9.5q22 2 31 18.5t9 45.5q-9 47 -41 47q-15 0 -21.5 -13.5t-13 -30t-18 -30t-36.5 -13.5q-15 0 -30 9.5t-15 30.5q0 19 13 33t31.5 23.5t39 14t36.5 4.5q30 0 58 -14t50 -37t35 -53t13 -61v-84q0 -60 29 -60zM321 305q-17 -14 -36.5 -17.5t-36 -7t-28 -12t-11.5 -31.5 q0 -42 18 -66.5t39 -24.5q12 0 22 6t17.5 15t11.5 20t4 22v96z"/>
   <glyph glyph-name="sterling" horiz-adv-x="649" unicode="£" d="M253 50h160q18 0 40.5 8t46 21.5t46.5 31.5t42 38l30 -23l-114 -140l-42 2q4 4 4 8q0 10 -17 17t-39 7h-351v30q7 0 18.5 3t22 8.5t18 13.5t7.5 17v174h-100l-4 39h104v266q0 44 18.5 87.5t50 78t73.5 56t88 21.5q44 -1 84 -12.5t70 -32.5t48 -50.5t18 -66.5 q0 -19 -6.5 -35.5t-18 -28.5t-26.5 -19t-31 -7q-23 0 -38 10.5t-23.5 26.5t-12.5 36t-5 40q-2 19 -7 39.5t-15 37t-24.5 27t-34.5 10.5q-31 0 -48.5 -19.5t-22.5 -55.5q-9 -72 -9 -118v-291h104v-39h-104v-216z"/>
   <glyph glyph-name="uni00AD" horiz-adv-x="408" unicode="­" d="M57 415h293v-59h-293v59z"/>
   <glyph glyph-name="mu" horiz-adv-x="725" unicode="µ" d="M246 509v-2h7v-309q7 -63 37.5 -104.5t90.5 -41.5q41 0 63 25.5t22 64.5v136q-1 9 -4 22t-9 25t-14.5 20.5t-18.5 8.5q-17 0 -42 -17v26l188 146h29v-316q0 -38 4.5 -65.5t16 -45.5t32 -26.5t52.5 -8.5v-30h-204q0 23 -27 23q-17 0 -44 -9q-63 -21 -118 -21 q-16 0 -29.5 0.5t-24.5 2.5v-127q0 -38 4.5 -65.5t16 -45.5t31.5 -26.5t52 -8.5v-30h-343v30q58 0 78.5 35.5t21.5 110.5l3 392q-1 7 -4 19.5t-8 24.5t-12 21t-16 9q-15 0 -41 -17v6q-2 -1 -3.5 -2t-3.5 -2v26l188 146h29z"/>
   <glyph glyph-name="divide" horiz-adv-x="344" unicode="÷" d="M175 675q18 0 33 -8.5t26.5 -23t18 -34.5t6.5 -42q0 -23 -6.5 -42.5t-18 -34t-26.5 -23t-33 -8.5t-33 8.5t-26.5 23t-18 34t-6.5 42.5q0 22 6.5 42t18 34.5t26.5 23t33 8.5zM175 314q18 0 33 -8.5t26.5 -23t18 -34.5t6.5 -42q0 -23 -6.5 -42.5t-18 -34t-26.5 -23 t-33 -8.5t-33 8.5t-26.5 23t-18 34t-6.5 42.5q0 22 6.5 42t18 34.5t26.5 23t33 8.5zM23 415h293v-59h-293v59z"/>
   <glyph glyph-name="paragraph" horiz-adv-x="737" unicode="¶" d="M379 735q-25 0 -47.5 -7.5t-22.5 -22.5v-616q0 -10 7.5 -17.5t18 -13t23 -8.5t21.5 -3v-30h-274v30q7 0 18.5 3t22 8.5t18 13.5t7.5 17v256q-5 -1 -14 -1q-28 0 -52.5 16.5t-43 45t-29 66.5t-10.5 82q0 43 10.5 81.5t29 67t43 45t52.5 16.5l545 1v-30q-25 0 -47.5 -7.5 t-22.5 -22.5v-616q0 -10 7.5 -17.5t18 -13t23 -8.5t21.5 -3v-30h-274v30q7 0 18.5 3t22 8.5t18 13.5t7.5 17v616q0 7 -6.5 13t-16 9.5t-21.5 5.5t-22 2h-49z"/>
   <glyph glyph-name="copyright" horiz-adv-x="776" unicode="©" d="M488 530h-24l-3 7q-10 26 -20.5 43t-24 27.5t-32.5 15t-46 5.5q-29 0 -48.5 -13t-31 -35t-16.5 -51.5t-5 -62.5q0 -43 6 -77t10 -50q7 -29 20 -54.5t30.5 -44.5t39.5 -29.5t47 -10.5q37 0 68 25.5t49 72.5l3 7h31l16 1l-6 -16q-29 -70 -83 -110.5t-118 -40.5 q-47 0 -87.5 21t-71 57.5t-48 85t-17.5 103.5q0 20 5.5 48t17 57.5t29.5 58.5t42 52t55 37t69 14q28 0 48.5 -7t36 -15.5t27 -15.5t21.5 -7q13 0 22 6t20 27l2 6h28h18l-69 -131l-3 -6h-7zM364 782q78 0 146.5 -29.5t119.5 -80.5t80.5 -119t29.5 -146t-29.5 -146.5 t-80.5 -119.5t-119.5 -80.5t-146.5 -29.5t-146.5 29.5t-119.5 80.5t-80 119.5t-29 146.5q0 77 29 145t79.5 119t119 81t147.5 30zM606 648q-101 101 -242 101q-71 0 -133.5 -27t-109 -73.5t-73 -109t-26.5 -132.5q0 -68 25.5 -130t71.5 -109.5t108.5 -75.5t136.5 -28 q70 0 132 26.5t109 72.5t74.5 109t27.5 135q0 70 -27.5 132.5t-73.5 108.5z"/>
   <glyph glyph-name="registered" horiz-adv-x="776" unicode="®" d="M364 782q78 0 146.5 -29.5t119.5 -80.5t80.5 -119t29.5 -146t-29.5 -146.5t-80.5 -119.5t-119.5 -80.5t-146.5 -29.5t-146.5 29.5t-119.5 80.5t-80 119.5t-29 146.5q0 77 29 145t79.5 119t119 81t147.5 30zM308 396h67h20q69 9 69 89q0 8 -0.5 15t-1.5 14v1q-4 38 -11 59 t-20 31.5t-33 12.5t-50 2h-40v-224zM558 234q8 14 8 37v12l31 -3l10 -1v-10q0 -63 -20.5 -99t-74.5 -36q-43 0 -74 29.5t-40 78.5q-3 22 -6.5 42t-9 35t-14.5 24t-25 9h-36l-1 -153q0 -5 13 -10.5t20 -5.5h12v-32v-11h-184h-12v31v12h12q7 0 20 5.5t13 10.5v412 q0 2 -11.5 5.5t-21.5 3.5h-12v31v11h32h109h124q23 -1 49 -8t48 -23.5t36.5 -44t14.5 -69.5q0 -139 -117 -162q20 -15 29 -37.5t15.5 -43.5t16 -35.5t30.5 -14.5q9 0 16 10zM606 648q-101 101 -242 101q-71 0 -133.5 -27t-109 -73.5t-73 -109t-26.5 -132.5q0 -68 25.5 -130 t71.5 -109.5t108.5 -75.5t136.5 -28q70 0 132 26.5t109 72.5t74.5 109t27.5 135q0 70 -27.5 132.5t-73.5 108.5z"/>
   <glyph glyph-name="dagger" horiz-adv-x="393" unicode="†" d="M240 559q5 -4 9 -12.5t7 -24t5 -40t2 -60.5q0 -38 -2 -82.5t-5 -89.5t-8 -87t-10.5 -74.5t-12 -52t-13.5 -19.5t-13 19.5t-12 52t-10.5 74.5t-7.5 87t-5 90t-2 82q0 36 2 60.5t5 40t7 24t9 12.5q-33 4 -33 16q0 11 2 11q1 0 1.5 -1t1.5 -1q3 0 3 3v7t0.5 7.5t4.5 4.5h-6 q-36 0 -36 -29q0 -3 0.5 -6.5t0.5 -6.5q0 -27 -33 -27q-40 0 -40 53t40 53h85q2 13 5.5 33.5t3.5 35.5q0 17 -4 28.5t-9 20.5t-9 15.5t-4 12.5q0 25 53 25q54 0 54 -25q0 -7 -4 -13t-9 -14.5t-9 -20t-4 -28.5q0 -15 3.5 -36t5.5 -34h85q41 0 41 -53t-41 -53q-35 0 -35 27 q0 4 0.5 7.5t0.5 6.5q0 28 -34 28h-6q4 -1 4.5 -4.5t0 -7.5t-0.5 -7t3 -3l1 1q1 0 1 0.5t1 0.5q2 0 2 -11t-32 -16z"/>
   <glyph glyph-name="daggerdbl" horiz-adv-x="393" unicode="‡" d="M262 477q1 -16 1 -29.5v-25.5v-14q0 -27 -2 -66t-4 -74q15 -6 15 -13q0 -11 -2 -11q-1 0 -2 1t-2 1q-3 0 -2.5 -2.5t1.5 -5.5t0 -7t-5 -7h6q34 0 34 27q0 3 -0.5 6.5t-0.5 6.5q0 29 35 29q41 0 41 -52q0 -53 -41 -53h-84q-2 -22 -4 -42.5t-5 -38.5q3 -27 14 -41t11 -24 q0 -25 -54 -25q-53 0 -53 25q0 10 11 24.5t14 40.5q-3 20 -5.5 40.5t-4.5 40.5h-83q-40 0 -40 53q0 52 40 52q33 0 33 -28q0 -3 -0.5 -6.5t-0.5 -7.5q0 -27 36 -27h6q-5 3 -5.5 7t0 7t0.5 5.5t-3 2.5q-1 0 -1.5 -1t-1.5 -1q-2 0 -2 11q0 7 16 13q-2 34 -4 65t-2 75v14 q0 44 2 75t4 66q-16 4 -16 12q0 11 2 11q1 0 1.5 -1t1.5 -1q3 0 3 3v7t0.5 7.5t4.5 4.5h-6q-36 0 -36 -29q0 -3 0.5 -6.5t0.5 -6.5q0 -27 -33 -27q-40 0 -40 53t40 53h83q2 20 4.5 40t5.5 41q-3 26 -14 40t-11 25q0 25 53 25q54 0 54 -25q0 -11 -11 -25t-14 -40 q3 -18 5 -38.5t4 -42.5h84q41 0 41 -53t-41 -53q-35 0 -35 27q0 4 0.5 7.5t0.5 6.5q0 28 -34 28h-6q4 -1 4.5 -4.5t0 -7.5t-0.5 -7t3 -3l1 1q1 0 1 0.5t1 0.5q2 0 2 -11q0 -8 -15 -12q2 -22 3 -43t2 -43z"/>
   <glyph glyph-name="logicalnot" horiz-adv-x="408" unicode="¬" d="M57 415h294v-134h-50v75h-244v59z"/>
   <glyph glyph-name="currency" horiz-adv-x="744" unicode="¤" d="M504 824h3q3 -7 11 -20.5t16 -29t14 -30t6 -24.5q0 -8 -1.5 -15t-1.5 -15q0 -17 8 -34t8 -32q0 -20 -15 -33q0 -3 5 -3t5 -2h-14q-5 -2 -9 -6l43 -16q0 -1 0.5 -1t0.5 -1h-2q-2 0 -4 2l-2 -2q-1 0 -1.5 2t-2.5 2q-1 0 -2 -1l-8 3q-6 0 -13 4t-13 4t-10 -3l-2 -2 q-1 -1 -1 -2t1 -1l14 -8l-7 2q-3 2 -5.5 2.5t-4.5 2.5q-2 -1 -6.5 -2t-8.5 -3.5t-7 -8t-3 -15.5q0 -23 11 -47.5t15 -49.5q7 -28 4.5 -55.5t4.5 -53.5q1 0 9.5 14.5t19 32t20 33t12.5 18.5q10 19 21.5 37t19.5 39l3 6q2 18 11 37t9 49q0 17 -4 32.5t-9.5 30.5t-9.5 30t-4 30 q0 14 4.5 25t20.5 25h2l8 2l25 -6q12 -8 21.5 -24.5t15.5 -36t9 -40t3 -37.5q0 -96 -77 -206q0 -1 -3 -2q-21 -33 -37.5 -56t-28 -40.5t-17.5 -32t-6 -29.5q1 -1 3 -1q11 0 29 6.5t31 6.5q20 0 31 -11l16 -20q8 -15 14.5 -33.5t6.5 -36.5q0 -24 -19 -40.5t-43.5 -27 t-47.5 -16t-30 -7.5q-17 -1 -36 -5.5t-30 -6.5q-3 -6 -2.5 -13.5t-10.5 -9.5l-5 1q-8 -8 -27 -8q-5 0 -7.5 1.5t-4.5 1.5q-1 0 -1.5 -0.5t-1.5 -0.5l-15 8l-5 10h-17l-7 -18q-6 -2 -7 -2q-2 0 -12 2l-2 -7q-2 -2 -4 -2t-3 -1l-2 -1l-14 10l-1 -2l-1 2q-2 -1 -4 -3 q-1 -1 -1 -3h-2q-12 7 -12 27q-6 3 -14 2.5t-15 1.5l-22 3q-6 0 -16.5 1.5t-20 4t-17.5 5t-10 4.5q-45 11 -67 20t-36 9h-23l-7 2l-29 -5q13 -14 15 -30q0 -6 -4 -13l-20 -9l-3 -5l-9 -9l-12 -2l-3 3l-19 8q-3 0 -3 -6v-2q0 -1 1 -1l23 -11l2 -6q0 -1 -2 -7l-5 -5q1 0 -7 -2 h-5l-9 4l-10 11l-6 -5q0 -5 5 -7t11 -4.5t11 -5.5t5 -10q0 -1 -2 -7v-2q6 -4 13 -5t7 -11q0 -11 -5 -14t-12 -3q-5 0 -10.5 1t-10.5 1q-2 -2 -2.5 -1t-0.5 -1l20 -38l-2 -4q-2 0 -6 5.5t-7.5 12.5t-6 13.5t-2.5 8.5q0 5 1 6q0 1 -1 2h-5q-1 -1 -1 -6v-5.5t1 -8.5l14 -22 l-2 -4h-3q-4 10 -10.5 19.5t-6.5 22.5q3 3 3 6q0 1 -7.5 10t-7.5 18q0 7 4 12l4 6q-2 8 -2 9q0 6 6 17.5t13.5 23.5t15 22t9.5 12l3 8l7 5h3l11 16l22 7h16l20 8l41 9q1 1 1 2q-11 35 -11 58t7.5 34t20.5 24l16 11q1 0 2 0.5t2 0.5l8 3h-1h1q2 0 3 1q13 -2 30.5 -8.5 t31.5 -15.5q1 0 4 7.5l7 17.5t8 19.5t6 13.5q10 18 13.5 37.5t5.5 40.5t5 42t12 41q2 19 10.5 37.5t8.5 36.5q0 2 -0.5 4.5t-0.5 4.5l-15 9l-17 -5l-5 1q-11 -3 -18.5 -9.5t-18.5 -6.5q-2 0 -3 0.5t-2 0.5l52 23l-15 12q-1 0 -9.5 -4t-9.5 -4q2 2 6 4t11 6q-9 9 -16.5 18.5 t-7.5 23.5t6 26t6 25q0 11 -2 22.5t-5 25.5q0 10 6 25t13.5 29t14 24t7.5 10h5q2 0 6 -9t8.5 -20.5t9 -22t9.5 -13.5q5 -4 10.5 -5t10.5 -1q8 0 15.5 1t15.5 1q15 0 29 -5t27 -5q7 0 12 1t9.5 6.5t9.5 17.5t11 33q7 28 24 31zM515 791q0 1 -1 5t-2.5 9t-3 9t-2.5 4 q-4 0 -7 -5t-5.5 -10.5t-4 -10.5l-1.5 -5v1q1 -5 1 -11v-11v-17q0 -19 4 -31q-1 -1 -1.5 -2t-1.5 -2q-9 11 -8 27.5t-1 30.5q-5 -16 -12 -32t-28 -16q-12 0 -26 5t-28 5q-8 0 -16.5 -1.5t-14.5 -1.5q-31 0 -44 25q-1 0 -1 -2t2.5 -11t2.5 -27q-4 -9 -6 -10q-1 0 -3 2v19 q0 20 -4.5 31.5t-4.5 27.5q2 0 3 1l-2 17q0 1 -3 4l-2 -1q-1 0 -1 -1l1 1q-2 0 -7.5 -13t-11.5 -29q-7 -18 -15 -43q0 -13 8.5 -22.5t8.5 -20.5q0 -9 -2 -15.5t-5 -11.5t-5 -9t-2 -10t3 -18t8 -12l7 1v-2l-6 -1l4 -10l5 -2l64 13l-52 -1q0 1 1 2l-2 2l17 2q1 1 4 1h29 q8 0 18 -1t10 -5q0 -1 -2 -1h3q5 0 8 -1q0 -5 -2 -7h-4q-3 -6 -3 -7h1q-6 -6 -16 -6t-17 -3q0 -2 8.5 -3.5t16.5 -1.5q14 0 26 4t12 12q0 5 -10 13t-12 14q0 1 0.5 1.5t0.5 1.5t1 1v2q10 3 31 3q17 -5 18 -10v-2l-22 -22v-6q1 -4 4 -4l11 -3q5 -2 9.5 -3.5t12.5 -1.5 q17 0 27 7l-48 8l-6 6q1 6 5 7q1 -1 6 -1h5t8 1q23 0 45.5 -2.5t45.5 -3.5q5 8 11.5 14.5t6.5 16.5q0 7 -4 15t-9.5 16t-9.5 16t-4 14q0 9 6 17t6 19q0 18 -9.5 35t-14.5 34zM-27 -6h-2q1 0 1 -9l4 -3q4 2 7 5zM-37 1h-3q-2 -2 -2 -9q0 -14 15 -22.5t32 -8.5h5l5 5 q0 9 -3 11l-9 3q-9 0 -12 1l-10 -3q0 -1 -0.5 -1t-0.5 -1t3 -1l12 2l8 -1l2 -5h1q-3 -3 -10 -5q-14 2 -23 8t-9 17q0 5 2 9l-1 1h-2zM-27 37l-1 1q-1 0 -4.5 -5t-3.5 -10q0 -16 12 -22.5t16 -6.5t4 3q0 2 -4 8t-9 6q-2 0 -2 -2l5 -3l3 -6q0 -1 -3 -1q-5 2 -12 8t-7 15 q0 5 3.5 8t3.5 5q0 1 -0.5 1t-0.5 1zM-13 61l-4 -2l-4 -16q2 -6 2 -5l5 -7q2 -4 3 -7l7 -1q2 -2 3 -2q2 0 3 0.5t3 0.5l2 -1l2 6l-7 7l-11 3l12 -10v-2q-1 0 -1 -0.5t-1 -0.5t-1 1.5t-2 1.5h-3q-6 1 -12 21zM-4 70h-1q0 -1 -0.5 -1t-0.5 -1q0 -5 9 -12t19 -7q0 -1 -1 -1v4 l-16 8zM1 82q-1 -1 -1 -3q4 -9 11 -14.5t12 -5.5q3 0 4 1l-20 12zM37 90v-3q1 1 2 1q-3 1 -3 2h1zM14 99l-1 1l-4 -2q-1 -2 -1 -7q0 -8 3.5 -12t20.5 -12q3 1 7 1l-14 7q-10 10 -10 24h-1zM75 126q-8 -4 -17.5 -4t-17 -1t-12.5 -6t-5 -19q0 -5 3.5 -11.5t8.5 -9.5l12 -4l5 1 q3 1 4 4q0 14 -6 21t-12 9q-3 0 -3 -3q0 -2 5 -5.5t10 -11.5q0 -1 -1 -4t-5 -6q-3 0 -7 4l-5 5h-2q-1 0 -1 1l-1 -1h1q-3 4 -3 11q0 10 5 15t12.5 7t15 2.5t13.5 2.5h3q3 0 3 2v1h-3zM412 127l-22 -1q0 -9 -1.5 -17t-1.5 -16q0 -12 6 -18l16 2q6 27 6 45q0 5 -3 5zM121 135 l-30 -3q-5 -2 -5 -7q0 -1 1 -2l45 -1l-7 13h-4zM307 146h-1q-1 -1 -1 -2q1 0 1 -0.5t1 -0.5v1q1 1 1 2h-1zM291 151l-2 1l-2 -4v1q0 -2 2 -2.5t3 -0.5t2 1q-1 1 -1.5 2t-1.5 2zM503 158q-7 -1 -7 -6h2q3 0 8 5q-3 0 -3 1zM261 228l-3 -4q-1 -1 -3 -1h-4q-2 0 -2 -1l25 -7z M675 229l-1 -14q-18 -6 -35.5 -10.5t-32.5 -8t-25 -5.5t-12 -3q-6 -1 -10.5 -1.5t-9.5 -0.5q-9 0 -11 1q-1 -1 -1 -2l14 -29q-2 -2 -3 -2t-3 2l-3 5q-1 1 -2 1q-10 -7 -24.5 -14t-25.5 -8q-6 -12 -6.5 -25t-1.5 -25q2 -6 7 -7q58 11 89 19t47.5 16.5t25.5 20.5t23 31 q6 16 6 32q0 12 -5 27zM252 235l-1 1q-3 -6 -3 -7h2q4 1 5 4q-1 0 -3 2zM136 237h-1q-6 -20 -6 -36q0 -6 1.5 -20t4 -28.5t5.5 -25t6 -10.5q51 -17 96 -28t75 -11q11 0 14 1q0 4 -0.5 12t-1.5 16t-3.5 15.5t-5.5 10.5q-6 -2 -10 -2h-13h-7q-17 0 -21 -6t-9 -11q-3 1 -6 1h-1 v2l28 58q-20 7 -36.5 11t-33 10t-34.5 15t-40 26h-1zM241 244l-5 -7q0 -2 0.5 -3t0.5 -2v-2q-2 -5 -3 -5v3q5 -4 8 -4q2 0 2 6l-4 6l4 6q-1 1 -1.5 1t-1.5 1zM596 249q-2 0 -2.5 -1.5t-2.5 -1.5t-2 1.5t-1 1.5q-3 -3 -3 -5t2 -2l12 5q-2 2 -2.5 1t-0.5 1zM572 255l-10 -5 l-25 -18q2 -2 4 -2q7 0 20 3.5t20 8.5l-3 3l-4 -2l-4 5l4 7h-2zM217 258l-1 -3q-3 -3 -6 -4q0 -1 0.5 -2.5t0.5 -2.5l-5 -5l24 -12l-2 4q0 5 1 4.5t3 1.5v11h-3q0 -5 -5 -5v-7l-4 -2q-5 2 -5 4q1 0 1 1t1 3l2 2v4q0 7 1 7t1 -1zM649 260l-8 -5q-5 -1 -10.5 -4.5t-16 -8 t-28 -9.5t-45.5 -11q-1 1 -4 1q-3 -2 -3 -3v-14q0 -9 4 -10.5t10 -1.5q12 0 28.5 3t33.5 8.5t32 13.5t25 18v3q-8 13 -18 20zM205 264l-2 1l-1 -5l-5 -3q-2 -7 -3 -8l4 -4q0 -3 1 -3q0 1 1 2l7 19q0 1 -2 1zM160 265l-15 -11l-3 -5q-2 -2 -2 -3l20 -17q8 -2 19.5 -8.5 t26.5 -13.5t34 -13.5t42 -8.5l2 9q0 1 1 2q0 5 -4 9l-20 3l-6 4q-20 3 -32.5 11.5t-22.5 10.5q-10 6 -20 11t-17 14l-1 5q-1 1 -2 1zM184 266h3q1 0 1 -4q0 -2 -4 -2q-3 0 -3 3l2 3h1zM620 267l-17 -1q-2 -6 -4 -6v2q0 -2 0.5 -3t0.5 -2t-1 -1l4 5q0 1 1 1h3q1 -1 1 -4 t-2.5 -5t-2.5 -4v1q1 0 2 -0.5t3 -0.5q8 4 18 8t16 10h-22zM175 271q-5 -2 -5.5 -2.5t-0.5 -2.5t2 -4l11 -8q2 0 2.5 -1.5t2.5 -1.5h1q0 1 -0.5 1t-0.5 1q0 4 3 9l3 6q1 0 2 -1zM523 314l-28 -149h16l5 3l14 2q0 6 -4.5 10.5t-4.5 17.5q0 16 2.5 25t6 14t9 8.5t11.5 8.5 l-6 16zM281 327h-2q-6 -6 -11.5 -16t-10 -20.5t-7 -20.5t-2.5 -15q0 -6 7.5 -12.5t16.5 -15t16.5 -19.5t7.5 -25t-4 -23q1 -4 5 -4l22 -1q-8 23 -11 48t-8 37q-8 16 -12 37.5t-7 49.5zM488 553q-6 -6 -29.5 -13t-46.5 -12q-8 2 -15 2t-15 3q-15 1 -29 7t-25 10v-7 q0 -11 -4.5 -22.5t-7.5 -21.5q-11 -29 -14.5 -56.5t-3.5 -56.5q0 -38 5 -75.5t12 -75.5q12 -42 15.5 -81t9.5 -79q-1 -3 -4 -5t-4 -4l-1 -8q0 -1 2 -1l1 1q1 1 2 1q1 -1 1.5 -2t1.5 -2l-2 -7h3l7 26l4 2q2 -2 3 -1.5t1 -2.5q0 -5 -2 -10.5t-2 -9.5q0 -7 2 -9q0 6 2 6 q4 -2 4.5 -5t1.5 -3q3 0 5 2q-1 5 -4 10t-3 10q0 1 0.5 3.5t2.5 2.5t6 -10.5t9 -12.5q1 0 1.5 0.5t1.5 0.5v-1l-3 13q1 1 3 1q0 -1 5 -6q1 0 1 -1t1 -1l-1 2q0 1 1.5 4t1.5 8q0 4 -5 9h-1q-1 0 -2 1l-6 5q-2 4 -2 12q0 28 6.5 60t6.5 67q0 29 -2.5 57t-4.5 54q0 1 1 3t3 2 q4 0 8 -13.5t6.5 -31.5t4 -36t1.5 -26q0 -23 -3.5 -46t-8.5 -46q8 -2 10 -2q8 0 16 5l1 15q1 10 1.5 19t0.5 18q0 14 -0.5 28.5t-0.5 28.5q0 9 2 23.5t5 29t6 25t6 10.5q2 -2 2 -6q0 -6 -3 -15q-3 -22 -4 -43.5t-1 -44.5q0 -20 0.5 -41t0.5 -41q0 -24 -3.5 -36t-5.5 -27 q4 -10 2.5 -17.5t6.5 -15.5h2l1 12l4 2l4 -7h2q2 2 2 6t-5 17q0 1 2 3q5 0 8 -8t3 -12q0 -5 -3 -9t-3 -7l8 1q2 2 2 4v2l-1 -1l4 2q1 -1 4 -1q5 5 5 11q0 10 -5 11t-5 6q0 3 2 3l6 -3t3 -2l7 -18l4 -1l2 6q0 5 -5 13l-13 5q-3 9 -3 18q0 14 4 28t9 28q30 106 30 208 q0 38 -4 75.5t-12 72.5q-4 8 -4 38zM406 573q-8 -3 -10 -5l15 2l-4 3h-1zM325 574l-14 -1q-1 -2 -1 -4t13 -7t30 -9.5t34 -8t25 -3.5h6q20 0 39 8.5t28 14.5l13 8q-2 1 -3.5 0.5t-3.5 1.5q-13 -2 -24.5 -7.5t-23.5 -5.5q-6 0 -10.5 2t-6.5 2q-5 0 -11.5 -4t-14.5 -4 q-10 0 -17 6q-6 -2 -14 -2q-12 0 -23 4t-21 9zM575 585l32 -5l-34 3q-1 1 -1 3q0 1 -1 1q0 -1 1 -1t1 -0.5t2 -0.5zM351 593q-7 -2 -17.5 -3t-20.5 -2t-17 -2t-8 -4l7 -6l4 -1l61 17zM286 605l6 -1v-2l-8 2zM405 617l-15 -3q0 -1 1 -1l13 -4q1 0 1 0.5t1 0.5t1 -0.5t1 -0.5 l4 -9q2 8 3.5 9.5t5.5 1.5h2q0 1 0.5 1t0.5 1v1zM342 661q13 1 28 -8.5t15 -24.5q0 -7 -3 -7q-2 0 -3 2.5t-4 2.5q-5 -2 -8 -3.5t-8 -1.5q-16 0 -29 13l-10 17l-8 3q-1 0 -1 2v1q0 1 1 2zM375 718l-13 -44h-6q-1 0 -1 1h-6q-1 0 -2 1l-6 39q2 -3 4 -8t3.5 -10.5t3 -9.5 l1.5 -4q1 0 1.5 9.5t2.5 15.5l3 -21l14 31h1zM497 667l4 -1v-4q0 -2 -4 -3q-17 -36 -36 -36q-5 0 -9.5 1.5t-9.5 2.5q-2 0 -2 -3.5t-2 -3.5q-6 0 -6 8q0 11 11 21.5t27 15.5q3 0 6.5 -0.5t6.5 -0.5q6 0 14 3zM483 701l-7 -21q-2 -2 -3 -1t-1 -1l10 23h1zM465 705v-25 q-2 -2 -3.5 -1t-1.5 -1v-1l2 1v-1l-2 4l4 24h1zM451 707l6 -30q0 -2 -3 -2q-4 8 -4 16v16h1zM333 651l-1 -1q0 -6 9 -15l10 -4q0 2 -0.5 3t-0.5 3q0 8 4 12zM667 767q-14 -5 -19 -12.5t-5 -19.5q0 -7 3 -16q26 -50 26 -103q0 -33 -10 -65t-25.5 -61.5t-34 -56.5t-34.5 -49 q-8 -16 -18 -30.5t-14 -34.5q1 -3 4 -11.5t7 -17.5t7.5 -16t5.5 -7l1 1q3 21 13 37t18 35l26 45.5t32 51.5q28 42 48 90.5t20 114.5q0 13 -1.5 28.5t-4.5 31t-8.5 29.5t-14.5 24l-4 4q-1 1 -1 2q0 -1 1 -2q-8 8 -16 8h-2zM361 647h-1q1 -1 1 -5t-2 -7.5t-2 -6.5 q2 0 2.5 -0.5t2.5 -0.5q5 0 12 4q-1 2 -4.5 5.5t-8.5 10.5zM458 650q-8 -4 -10 -10t-2 -7l9 -4q2 0 2.5 0.5t1.5 0.5h2q-4 7 -4 14q0 5 1 6zM472 657q-2 -2 -4 -2t-3 -1l-2 -1q0 -2 3 -3l2 -19q9 6 13 13.5t5 12.5h-14zM484 584l22 -8q6 1 6 4zM503 590l19 -6l1 1q1 0 1 0.5 t1 0.5q0 2 -1 3z"/>
   </font>
</defs>
</svg>
